<svg width="120" height="80" viewBox="0 0 120 80" fill="none" xmlns="http://www.w3.org/2000/svg">
<g clip-path="url(#clip0)">
<path d="M95.2 10.3799H40.79V66.7799H95.2V10.3799Z" fill="white"/>
<path d="M95.5 10.3799H44.63V66.7799H95.5V10.3799Z" fill="#B3BAC5"/>
<path d="M95.2 66.7803H25.33V70.0003H95.2V66.7803Z" fill="#DFE1E5"/>
<path d="M95.51 66.7803H80.62V70.0003H95.51V66.7803Z" fill="white"/>
<path d="M95.4801 10C93.4875 9.99862 91.5142 10.3901 89.6731 11.1519C87.8319 11.9138 86.159 13.0311 84.75 14.44L84.2201 15C81.6973 17.7858 80.3032 21.4117 80.3101 25.17H69.05C69.0542 21.4064 70.4627 17.7798 73 15L73.53 14.43C76.3662 11.5961 80.2107 10.003 84.2201 10H95.4801Z" fill="#4C9AFF"/>
<path d="M73 10.0001C71.0006 9.99236 69.0194 10.3807 67.1709 11.1428C65.3224 11.9049 63.6431 13.0255 62.23 14.4401L61.7 15.0001C59.1745 17.7849 57.7769 21.4107 57.78 25.1701H46.52C46.5132 21.4118 47.9073 17.7859 50.43 15.0001C50.61 14.8101 50.78 14.6201 50.97 14.4301C52.3785 13.0212 54.0515 11.9046 55.893 11.1443C57.7344 10.3841 59.7079 9.99523 61.7 10.0001H73Z" fill="#4C9AFF"/>
<path d="M84.22 10.0002C82.2273 9.99768 80.2537 10.3886 78.4124 11.1505C76.5711 11.9124 74.8984 13.0304 73.49 14.4402L73 15.0002C70.4773 17.7859 69.0832 21.4119 69.09 25.1702H57.78C57.7769 21.4107 59.1745 17.7849 61.7 15.0002L62.23 14.4302C63.6439 13.0174 65.3236 11.8986 67.1721 11.1382C69.0206 10.3779 71.0013 9.99109 73 10.0002H84.22Z" fill="#0065FF"/>
<path d="M50.43 10C48.4375 9.99916 46.4644 10.3908 44.6233 11.1527C42.7823 11.9145 41.1093 13.0315 39.7 14.44L39.17 15C36.6472 17.7858 35.2532 21.4117 35.26 25.17H24C23.9991 22.1839 24.8778 19.2636 26.5264 16.7738C28.175 14.284 30.5205 12.335 33.27 11.17C33.9552 10.888 34.6605 10.6574 35.38 10.48L36.12 10.31C36.6157 10.2075 37.1164 10.1307 37.62 10.08C38.13 10.08 38.62 10 39.17 10H50.43Z" fill="#4C9AFF"/>
<path d="M61.7001 10C59.7122 10.0004 57.744 10.3927 55.908 11.1546C54.0719 11.9165 52.4042 13.0329 51.0001 14.44C50.8101 14.63 50.6401 14.82 50.4601 15.01C47.9373 17.7958 46.5432 21.4217 46.5501 25.18H35.2601C35.2508 21.4183 36.645 17.7883 39.1701 15L39.7001 14.43C42.5479 11.5891 46.4075 9.99566 50.4301 10H61.7001Z" fill="#0065FF"/>
<path d="M95.48 10V25.18H80.3099C80.3073 23.1866 80.6978 21.2123 81.4591 19.3701C82.2205 17.5278 83.3376 15.8538 84.7467 14.4438C86.1557 13.0338 87.829 11.9155 89.6708 11.153C91.5125 10.3905 93.4866 9.99869 95.48 10V10Z" fill="#B2D4FF"/>
<path d="M64.44 51.4004H63.28V54.4504H64.44V51.4004Z" fill="#FF8B00"/>
<path d="M65.38 51.8202V50.6602H62.33V51.8202H65.38Z" fill="#FF8B00"/>
<path d="M64.31 62H63.4V65.05H64.31V62Z" fill="#FF8B00"/>
<path d="M74.85 63.0898C74.651 63.0908 74.4587 63.0176 74.3108 62.8845C74.1629 62.7513 74.0699 62.5678 74.05 62.3698C73.8526 59.7972 72.6913 57.3938 70.7983 55.6405C68.9053 53.8872 66.4202 52.9131 63.84 52.9131C61.2597 52.9131 58.7746 53.8872 56.8816 55.6405C54.9886 57.3938 53.8273 59.7972 53.63 62.3698C53.6101 62.5678 53.5171 62.7513 53.3691 62.8845C53.2212 63.0176 53.029 63.0908 52.83 63.0898V63.0898C52.7241 63.0898 52.6192 63.1108 52.5215 63.1517C52.4238 63.1925 52.3351 63.2523 52.2607 63.3277C52.1863 63.403 52.1276 63.4924 52.088 63.5906C52.0484 63.6888 52.0286 63.7939 52.03 63.8998V64.2398C52.03 64.452 52.1143 64.6555 52.2643 64.8055C52.4143 64.9555 52.6178 65.0398 52.83 65.0398H74.83C75.0421 65.0398 75.2456 64.9555 75.3957 64.8055C75.5457 64.6555 75.63 64.452 75.63 64.2398V63.8998C75.6313 63.7939 75.6116 63.6888 75.572 63.5906C75.5324 63.4924 75.4736 63.403 75.3992 63.3277C75.3248 63.2523 75.2362 63.1925 75.1384 63.1517C75.0407 63.1108 74.9359 63.0898 74.83 63.0898H74.85Z" fill="url(#paint0_linear)"/>
<path d="M76.21 63.0605H51.63V65.0505H76.21V63.0605Z" fill="#FFAB00"/>
<path d="M52.85 65.0002H74.85C75.0701 65.0002 75.2812 65.0877 75.4369 65.2433C75.5926 65.399 75.68 65.6101 75.68 65.8302V66.7402H52V65.8302C52 65.7195 52.0221 65.61 52.065 65.5079C52.108 65.4059 52.1709 65.3135 52.2501 65.2362C52.3293 65.1588 52.4232 65.0981 52.5262 65.0576C52.6292 65.0171 52.7393 64.9976 52.85 65.0002V65.0002Z" fill="#FF991F"/>
<path d="M59.1899 46.6904L61.4799 48.6204" stroke="#FFE380" stroke-width="0.78" stroke-miterlimit="10"/>
<path d="M68.43 46.6904L66.14 48.6204" stroke="#FFE380" stroke-width="0.78" stroke-miterlimit="10"/>
<path d="M63.86 44.2002V47.4102" stroke="#FFE380" stroke-width="0.78" stroke-miterlimit="10"/>
</g>
<defs>
<linearGradient id="paint0_linear" x1="56.9" y1="69.4398" x2="70.78" y2="55.5598" gradientUnits="userSpaceOnUse">
<stop stop-color="#FF8B00"/>
<stop offset="0.74" stop-color="#FFC400"/>
<stop offset="1" stop-color="#FFE380"/>
</linearGradient>
<clipPath id="clip0">
<rect width="71.51" height="60" fill="white" transform="translate(24 10)"/>
</clipPath>
</defs>
</svg>
