<svg width="120" height="80" viewBox="0 0 120 80" fill="none" xmlns="http://www.w3.org/2000/svg">
<g clip-path="url(#clip0)">
<path d="M86.2646 16.5078H38.5508V70.0001H86.2646V16.5078Z" fill="#FFE380"/>
<path d="M83.6523 16.5078H35.9385V70.0001H83.6523V16.5078Z" fill="#FFC400"/>
<path d="M83.6339 24.0215H35.92V24.6769H83.6339V24.0215Z" fill="#FFAB00"/>
<path d="M83.6246 31.5908H35.9108V32.2462H83.6246V31.5908Z" fill="#FFAB00"/>
<path d="M83.6153 39.1602H35.9015V39.8155H83.6153V39.1602Z" fill="#FFAB00"/>
<path d="M83.6062 46.7383H35.8923V47.3937H83.6062V46.7383Z" fill="#FFAB00"/>
<path d="M83.5969 54.3076H35.8831V54.963H83.5969V54.3076Z" fill="#FFAB00"/>
<path d="M83.5878 61.877H35.8739V62.5323H83.5878V61.877Z" fill="#FFAB00"/>
<path d="M86.2646 10H38.5508V16.5077H86.2646V10Z" fill="#0052CC"/>
<path d="M72.7138 65.92H25C25 47.2738 36.2708 28.6369 36.2985 10H84.0123C83.9846 28.6369 72.7415 47.2738 72.7138 65.92Z" fill="url(#paint0_linear)"/>
<path d="M83.5785 16.5074C83.8498 14.364 83.9947 12.2064 84.0123 10.0459H36.2985C36.2826 12.2218 36.1378 14.3948 35.8646 16.5536L83.5785 16.5074Z" fill="#0065FF"/>
<path d="M82.3877 23.2832H34.6739L34.5354 23.9294H82.2308L82.3877 23.2832Z" fill="#0065FF"/>
<path d="M32.7076 30.9903H80.3846C80.4492 30.778 80.5046 30.5565 80.5692 30.335H32.8923C32.8276 30.5565 32.7723 30.778 32.7076 30.9903Z" fill="#0065FF"/>
<path d="M30.6216 38.0519H78.3354L78.5293 37.3965H30.8154L30.6216 38.0519Z" fill="#0065FF"/>
<path d="M28.5354 45.0773H76.24L76.4339 44.4219H28.6923C28.6923 44.6803 28.5908 44.9019 28.5354 45.0773Z" fill="#0065FF"/>
<path d="M26.7169 52.1749H74.4308C74.4769 51.9626 74.5323 51.7411 74.5785 51.5195H26.8461C26.8461 51.7411 26.7723 51.9626 26.7169 52.1749Z" fill="#0065FF"/>
<path d="M25.4523 59.2374H73.1661C73.1661 59.0251 73.2215 58.8036 73.2584 58.582H25.5446C25.5077 58.8036 25.48 59.0251 25.4523 59.2374Z" fill="#0065FF"/>
<path d="M33.3077 65.9204H32.6708C32.6708 56.5511 35.56 47.0527 38.3385 37.8681C40.4523 30.8619 42.64 23.6158 43.5354 16.4619L44.1815 16.545C43.2585 23.7173 41.0892 30.9819 38.9569 38.0158C36.1969 47.1911 33.3077 56.6435 33.3077 65.9204Z" fill="#FF8B00"/>
<path d="M92.2646 49.1016H92.2554H89.7723L91.2585 53.2646H93.2431L94.7477 49.1108H92.2646V49.1016Z" fill="#FEEFD3"/>
<path d="M91.2584 53.2646L92.2461 56.0154L93.243 53.2646H91.2584Z" fill="#091E42"/>
<path d="M94.8216 13.7387V12.631C94.8228 12.3175 94.7621 12.0068 94.643 11.7168C94.5238 11.4268 94.3486 11.1632 94.1273 10.941C93.906 10.7189 93.6431 10.5427 93.3536 10.4224C93.064 10.3022 92.7536 10.2402 92.44 10.2403H92.237C91.9234 10.239 91.6128 10.2997 91.3227 10.4189C91.0327 10.538 90.7691 10.7132 90.547 10.9345C90.3249 11.1558 90.1486 11.4187 90.0284 11.7083C89.9081 11.9978 89.8462 12.3083 89.8462 12.6218V12.7695V16.4618H94.8308V13.7387H94.8216Z" fill="#0065FF"/>
<path d="M94.8216 16.4247L92.3293 16.4154L92.2646 49.1016V49.1108H94.7477L94.8216 15.4277V16.4247Z" fill="#FFD740"/>
<path d="M92.2554 49.1012L92.32 16.415H89.837L89.7723 49.092V49.1012H92.2554Z" fill="#FCB123"/>
</g>
<defs>
<linearGradient id="paint0_linear" x1="26.1538" y1="67.1366" x2="84.7456" y2="10.7984" gradientUnits="userSpaceOnUse">
<stop stop-color="#FFC400"/>
<stop offset="1" stop-color="#FFF0B2"/>
</linearGradient>
<clipPath id="clip0">
<rect width="69.8215" height="60" fill="white" transform="translate(25 10)"/>
</clipPath>
</defs>
</svg>
