<svg width="120" height="80" viewBox="0 0 120 80" fill="none" xmlns="http://www.w3.org/2000/svg">
<path d="M88.6529 61.6311C91.6969 65.9487 93.0939 68.9314 92.2495 69.7449C90.1019 71.8933 74.3082 59.5766 56.9819 42.233C52.1448 37.4043 47.7037 32.6904 43.8569 28.3623" stroke="url(#paint0_linear)" stroke-width="1.45" stroke-miterlimit="10" stroke-linecap="round"/>
<path d="M43.857 28.3621C33.9116 17.1508 27.9381 8.50512 29.481 6.95118C30.4297 6.00214 34.0784 7.90023 39.343 11.8216" stroke="url(#paint1_linear)" stroke-width="1.45" stroke-miterlimit="10" stroke-linecap="round"/>
<path d="M34.0264 28.4769C41.4802 27.7782 50.7792 27.361 60.9123 27.361C71.3977 27.2881 81.8785 27.8244 92.3017 28.9671" stroke="url(#paint2_linear)" stroke-width="1.45" stroke-miterlimit="10" stroke-linecap="round"/>
<path d="M29.481 69.7027C27.3335 67.6169 39.6453 51.7647 56.982 34.4212C74.3186 17.0776 90.102 4.813 92.2495 6.95097" stroke="url(#paint3_linear)" stroke-width="1.45" stroke-miterlimit="10"/>
<path d="M92.2496 9.90286C93.8789 9.90286 95.1998 8.58146 95.1998 6.95143C95.1998 5.3214 93.8789 4 92.2496 4C90.6202 4 89.2993 5.3214 89.2993 6.95143C89.2993 8.58146 90.6202 9.90286 92.2496 9.90286Z" fill="#4C9AFF"/>
<path d="M88.6529 64.5825C90.2823 64.5825 91.6032 63.2611 91.6032 61.6311C91.6032 60.0011 90.2823 58.6797 88.6529 58.6797C87.0235 58.6797 85.7026 60.0011 85.7026 61.6311C85.7026 63.2611 87.0235 64.5825 88.6529 64.5825Z" fill="#4C9AFF"/>
<path d="M60.5578 74.0002C62.406 74.0002 63.9042 72.5013 63.9042 70.6524C63.9042 68.8035 62.406 67.3047 60.5578 67.3047C58.7097 67.3047 57.2114 68.8035 57.2114 70.6524C57.2114 72.5013 58.7097 74.0002 60.5578 74.0002Z" fill="#42526E"/>
<path d="M84.3891 34.7141C84.3351 30.3422 83.1055 26.0655 80.8295 22.333C78.5534 18.6004 75.3148 15.5498 71.4537 13.5013C67.5925 11.4528 63.2513 10.482 58.8858 10.6909C54.5203 10.8998 50.2916 12.2806 46.6435 14.6884C42.9954 17.0962 40.0626 20.4421 38.153 24.3749C36.2435 28.3077 35.4275 32.6823 35.7908 37.0394C36.1541 41.3965 37.6834 45.5754 40.2179 49.1373C42.7525 52.6992 46.1989 55.5128 50.1953 57.2826C51.722 57.9527 53.0245 59.0467 53.9484 60.4349C54.8723 61.8232 55.3788 63.4474 55.4078 65.1149C55.4133 65.4256 55.5413 65.7216 55.7638 65.9384C55.9864 66.1552 56.2856 66.2753 56.5963 66.2725L64.3003 66.1682C64.454 66.1683 64.6062 66.1376 64.748 66.0782C64.8897 66.0187 65.0182 65.9315 65.126 65.8218C65.2337 65.7121 65.3185 65.582 65.3754 65.4392C65.4323 65.2963 65.4602 65.1435 65.4574 64.9897C65.4396 63.324 65.9008 61.6883 66.7861 60.2775C67.6715 58.8666 68.9436 57.7402 70.451 57.0323C74.668 55.0398 78.2237 51.8768 80.6948 47.92C83.1658 43.9632 84.4482 39.3793 84.3891 34.7141Z" fill="url(#paint4_linear)"/>
<path d="M64.3176 66.1694L56.6038 66.2691C55.959 66.2774 55.443 66.8071 55.4514 67.4521L55.4931 70.6849C55.5014 71.3299 56.0309 71.8461 56.6757 71.8378L64.3895 71.7381C65.0343 71.7298 65.5502 71.2001 65.5419 70.555L65.5002 67.3223C65.4918 66.6772 64.9624 66.1611 64.3176 66.1694Z" fill="url(#paint5_linear)"/>
<path d="M62.6635 66.1891L62.4029 46.1339C62.3973 45.4792 62.6505 44.8488 63.1074 44.38C63.5644 43.9111 64.1879 43.6419 64.8423 43.6309V43.6309C65.4996 43.6254 66.1324 43.8798 66.603 44.3388C67.0736 44.7979 67.3438 45.4243 67.3547 46.0818V46.0818C67.3603 46.4076 67.3011 46.7313 67.1805 47.0341C67.06 47.3368 66.8806 47.6126 66.6527 47.8455C66.4248 48.0783 66.1529 48.2636 65.8529 48.3905C65.5529 48.5174 65.2306 48.5834 64.9049 48.5848L55.2201 48.7099C54.5639 48.7183 53.931 48.4662 53.4601 48.0088C52.9892 47.5514 52.7187 46.926 52.7077 46.2695C52.7036 45.9435 52.7637 45.62 52.8846 45.3172C53.0054 45.0145 53.1848 44.7386 53.4123 44.5052C53.6397 44.2718 53.911 44.0855 54.2104 43.957C54.5099 43.8284 54.8317 43.7602 55.1576 43.7561V43.7561C55.8138 43.7505 56.4456 44.0053 56.9145 44.4646C57.3834 44.924 57.6513 45.5504 57.6596 46.2069L57.9202 66.2621" stroke="white" stroke-width="1.09" stroke-miterlimit="10"/>
<path d="M92.2495 6.95117C94.397 9.09956 82.0852 24.8579 64.7485 42.2328C47.4118 59.6076 31.6285 71.8931 29.481 69.703" stroke="#2684FF" stroke-width="1.45" stroke-miterlimit="10" stroke-linecap="round"/>
<path d="M39.343 11.8223C48.3108 18.7894 56.7986 26.3538 64.7486 34.4638C75.2673 44.9867 83.9409 54.9465 88.6529 61.6316" stroke="#2684FF" stroke-width="1.45" stroke-miterlimit="10" stroke-linecap="round"/>
<path d="M16.4812 32.8568C16.4812 31.0734 23.3617 29.4778 34.0264 28.4766" stroke="url(#paint6_linear)" stroke-width="1.45" stroke-miterlimit="10" stroke-linecap="round"/>
<path d="M90.1646 36.9875C99.4115 35.9446 105.249 34.5053 105.249 32.8158C105.249 31.1263 100.277 29.927 92.2495 28.9258" stroke="url(#paint7_linear)" stroke-width="1.45" stroke-miterlimit="10" stroke-linecap="round"/>
<path d="M16.9503 35.4536C18.5796 35.4536 19.9005 34.1322 19.9005 32.5022C19.9005 30.8722 18.5796 29.5508 16.9503 29.5508C15.3209 29.5508 14 30.8722 14 32.5022C14 34.1322 15.3209 35.4536 16.9503 35.4536Z" fill="#FFC400"/>
<path d="M90.1645 36.9873C80.4436 37.9454 70.6799 38.4014 60.9121 38.3535C36.4031 38.3535 16.5332 35.8923 16.5332 32.8574" stroke="#FFC400" stroke-width="1.45" stroke-miterlimit="10" stroke-linecap="round"/>
<defs>
<linearGradient id="paint0_linear" x1="43.1063" y1="49.1788" x2="93.2502" y2="49.1788" gradientUnits="userSpaceOnUse">
<stop offset="0.11" stop-color="#2684FF"/>
<stop offset="0.2" stop-color="#2684FF" stop-opacity="0.98"/>
<stop offset="0.32" stop-color="#2684FF" stop-opacity="0.91"/>
<stop offset="0.45" stop-color="#2684FF" stop-opacity="0.8"/>
<stop offset="0.6" stop-color="#2684FF" stop-opacity="0.65"/>
<stop offset="0.76" stop-color="#2684FF" stop-opacity="0.46"/>
<stop offset="0.92" stop-color="#2684FF" stop-opacity="0.23"/>
<stop offset="1" stop-color="#2684FF" stop-opacity="0.1"/>
</linearGradient>
<linearGradient id="paint1_linear" x1="39.7183" y1="9.18301" x2="33.7823" y2="25.4926" gradientUnits="userSpaceOnUse">
<stop offset="0.11" stop-color="#2684FF"/>
<stop offset="0.21" stop-color="#2684FF" stop-opacity="0.89"/>
<stop offset="0.43" stop-color="#2684FF" stop-opacity="0.6"/>
<stop offset="0.76" stop-color="#2684FF" stop-opacity="0.15"/>
<stop offset="0.86" stop-color="#2684FF" stop-opacity="0"/>
</linearGradient>
<linearGradient id="paint2_linear" x1="33.2758" y1="28.1641" x2="93.0002" y2="28.1641" gradientUnits="userSpaceOnUse">
<stop stop-color="#FFC400" stop-opacity="0"/>
<stop offset="0.1" stop-color="#FFC400" stop-opacity="0.14"/>
<stop offset="0.37" stop-color="#FFC400" stop-opacity="0.5"/>
<stop offset="0.6" stop-color="#FFC400" stop-opacity="0.77"/>
<stop offset="0.76" stop-color="#FFC400" stop-opacity="0.94"/>
<stop offset="0.84" stop-color="#FFC400"/>
</linearGradient>
<linearGradient id="paint3_linear" x1="28.4802" y1="38.1235" x2="92.7812" y2="38.1235" gradientUnits="userSpaceOnUse">
<stop stop-color="#0065FF"/>
<stop offset="0.74" stop-color="#0065FF"/>
<stop offset="0.76" stop-color="#0065FF" stop-opacity="0.89"/>
<stop offset="0.83" stop-color="#0065FF" stop-opacity="0.58"/>
<stop offset="0.89" stop-color="#0065FF" stop-opacity="0.33"/>
<stop offset="0.94" stop-color="#0065FF" stop-opacity="0.15"/>
<stop offset="0.98" stop-color="#0065FF" stop-opacity="0.04"/>
<stop offset="1" stop-color="#0065FF" stop-opacity="0"/>
</linearGradient>
<linearGradient id="paint4_linear" x1="42.8353" y1="52.9963" x2="77.6476" y2="18.1979" gradientUnits="userSpaceOnUse">
<stop stop-color="#FF991F"/>
<stop offset="1" stop-color="#FFC400"/>
</linearGradient>
<linearGradient id="paint5_linear" x1="56.9775" y1="72.6057" x2="64.0185" y2="65.3939" gradientUnits="userSpaceOnUse">
<stop stop-color="#C1C7D0"/>
<stop offset="0.55" stop-color="#CFD3DA"/>
<stop offset="1" stop-color="#DFE1E5"/>
</linearGradient>
<linearGradient id="paint6_linear" x1="15.7306" y1="30.6667" x2="34.777" y2="30.6667" gradientUnits="userSpaceOnUse">
<stop stop-color="#FFAB00" stop-opacity="0"/>
<stop offset="0.1" stop-color="#FFAB00" stop-opacity="0.14"/>
<stop offset="0.37" stop-color="#FFAB00" stop-opacity="0.5"/>
<stop offset="0.6" stop-color="#FFAB00" stop-opacity="0.77"/>
<stop offset="0.76" stop-color="#FFAB00" stop-opacity="0.94"/>
<stop offset="0.84" stop-color="#FFAB00"/>
</linearGradient>
<linearGradient id="paint7_linear" x1="97.7018" y1="37.7384" x2="97.7018" y2="28.2166" gradientUnits="userSpaceOnUse">
<stop offset="0.16" stop-color="#FFC400"/>
<stop offset="0.96" stop-color="#FFC400"/>
<stop offset="1" stop-color="#FFAB00" stop-opacity="0"/>
</linearGradient>
</defs>
</svg>
