<svg width="120" height="80" viewBox="0 0 120 80" fill="none" xmlns="http://www.w3.org/2000/svg">
<g clip-path="url(#clip0)">
<path d="M37.22 23.7998H83.84V46.3798C84.8765 46.3425 85.9099 46.5144 86.8785 46.8853C87.8471 47.2562 88.7311 47.8185 89.4776 48.5386C90.224 49.2587 90.8178 50.1218 91.2233 51.0764C91.6288 52.0311 91.8378 53.0576 91.8378 54.0948C91.8378 55.132 91.6288 56.1585 91.2233 57.1132C90.8178 58.0678 90.224 58.9309 89.4776 59.651C88.7311 60.3711 87.8471 60.9334 86.8785 61.3043C85.9099 61.6752 84.8765 61.8471 83.84 61.8098H37.22C36.2062 61.8098 35.2023 62.0095 34.2657 62.3975C33.3291 62.7854 32.478 63.3541 31.7611 64.0709C30.3134 65.5187 29.5 67.4823 29.5 69.5298V31.5298C29.4987 30.5152 29.6974 29.5102 30.0848 28.5724C30.4722 27.6346 31.0406 26.7824 31.7576 26.0645C32.4746 25.3465 33.3261 24.777 34.2634 24.3884C35.2007 23.9998 36.2054 23.7998 37.22 23.7998V23.7998Z" fill="#B2D4FF"/>
<path d="M37.22 77.2403C35.1743 77.2403 33.2122 76.4283 31.7647 74.9827C30.3172 73.5371 29.5026 71.576 29.5 69.5303V69.5303C29.5026 71.576 30.3172 73.5371 31.7647 74.9827C33.2122 76.4283 35.1743 77.2403 37.22 77.2403V77.2403Z" fill="#0065FF"/>
<path d="M83.8401 46.3805V13.2305C84.8581 13.2304 85.8661 13.4318 86.806 13.8229C87.7459 14.214 88.5992 14.7871 89.3167 15.5093C90.0342 16.2314 90.6018 17.0884 90.9869 18.0308C91.3719 18.9732 91.5667 19.9825 91.5601 21.0005V54.0905C91.5574 52.0447 90.7429 50.0837 89.2954 48.6381C87.8479 47.1925 85.8858 46.3805 83.8401 46.3805V46.3805Z" fill="#4C9AFF"/>
<g opacity="0.3">
<path opacity="0.3" d="M83.8401 50.4297H90.6301C90.742 50.6235 90.8422 50.8239 90.9301 51.0297H83.8401V50.4297Z" fill="#4C9AFF"/>
<path opacity="0.3" d="M52.53 50.4297V50.9797L52.48 51.0297H37.52V50.4297H52.53Z" fill="#4C9AFF"/>
<path opacity="0.3" d="M83.85 50.4297H69.04V51.0297H83.85V50.4297Z" fill="#4C9AFF"/>
<path opacity="0.3" d="M29.5 58.2397V55.4697C30.1133 54.0027 31.1428 52.7474 32.4614 51.8588C33.78 50.9703 35.33 50.4873 36.92 50.4697V50.9997C34.9912 51.0265 33.1463 51.7924 31.7657 53.1395C30.3851 54.4866 29.5741 56.3122 29.5 58.2397V58.2397Z" fill="#4C9AFF"/>
<path opacity="0.3" d="M68.4399 50.4297V51.0297H53.7499L53.1499 50.4297H68.4399Z" fill="#4C9AFF"/>
<path opacity="0.3" d="M68.4399 34.2803H53.1299V34.8803H68.4399V34.2803Z" fill="#4C9AFF"/>
<path opacity="0.3" d="M52.53 34.2803H37.52V34.8803H52.53V34.2803Z" fill="#4C9AFF"/>
<path opacity="0.3" d="M77.42 34.2803L77.97 34.8803H69.04V34.2803H77.42Z" fill="#4C9AFF"/>
<path opacity="0.3" d="M29.5 42.1001V39.3301C30.1154 37.8646 31.1454 36.6107 32.4636 35.7224C33.7818 34.8342 35.3306 34.3503 36.92 34.3301V34.9401C35.0045 34.9658 33.1707 35.7206 31.7922 37.0508C30.4137 38.381 29.594 40.1867 29.5 42.1001V42.1001Z" fill="#4C9AFF"/>
<path opacity="0.3" d="M83.84 34.2803V34.8803H78.3301L78.3 34.2803H83.84Z" fill="#4C9AFF"/>
<path opacity="0.3" d="M69.0399 61.8098H68.4399V51.0298V50.4298V34.8798V34.2798V23.7998H69.0399V34.2798V34.8798V50.4298V51.0298V61.8098Z" fill="#4C9AFF"/>
<path opacity="0.3" d="M53.13 50.3998L53.12 50.3898L52.53 50.9798V50.4298V34.8798V34.2798V23.7998H53.13V34.2798V34.8798V50.3998Z" fill="#4C9AFF"/>
<path opacity="0.3" d="M37.5199 50.4296V61.8096H36.9199V23.8096H37.5199V50.4296Z" fill="#4C9AFF"/>
<path opacity="0.3" d="M83.8401 50.4297H90.6301C90.742 50.6235 90.8422 50.8239 90.9301 51.0297H83.8401V50.4297Z" fill="#4C9AFF"/>
<path opacity="0.3" d="M78.2999 34.2803L78.3299 34.8803H77.9699L77.4199 34.2803H78.2999Z" fill="#4C9AFF"/>
<path opacity="0.3" d="M78.2999 34.2803L78.3299 34.8803H77.9699L77.4199 34.2803H78.2999Z" fill="#4C9AFF"/>
<path opacity="0.14" d="M53.1299 50.4294V50.3994L53.1499 50.4294H53.1299Z" fill="#4C9AFF"/>
<path opacity="0.3" d="M53.12 50.3896L53.13 50.3997V50.4296H53.15L53.75 51.0296H53.13V61.8097H52.53V51.0296H52.48L52.53 50.9796L53.12 50.3896Z" fill="#4C9AFF"/>
<path opacity="0.3" d="M53.12 50.3896L53.13 50.3997V50.4296H53.15L53.75 51.0296H53.13V61.8097H52.53V51.0296H52.48L52.53 50.9796L53.12 50.3896Z" fill="#4C9AFF"/>
</g>
<path d="M37.22 61.8097V77.2397C36.1835 77.277 35.15 77.1051 34.1814 76.7342C33.2128 76.3633 32.3289 75.801 31.5824 75.0809C30.8359 74.3608 30.2422 73.4977 29.8367 72.5431C29.4312 71.5884 29.2222 70.5619 29.2222 69.5247C29.2222 68.4875 29.4312 67.4609 29.8367 66.5063C30.2422 65.5517 30.8359 64.6886 31.5824 63.9685C32.3289 63.2484 33.2128 62.6861 34.1814 62.3152C35.15 61.9443 36.1835 61.7724 37.22 61.8097V61.8097Z" fill="#2684FF"/>
<g opacity="0.7">
<path opacity="0.7" d="M44.47 40.5096C44.4726 40.3115 44.5524 40.1222 44.6925 39.9821C44.8326 39.842 45.0219 39.7622 45.22 39.7596C45.4181 39.7622 45.6073 39.842 45.7474 39.9821C45.8875 40.1222 45.9674 40.3115 45.97 40.5096V40.5096C45.97 40.7085 45.891 40.8993 45.7503 41.0399C45.6096 41.1806 45.4189 41.2596 45.22 41.2596C45.0211 41.2596 44.8303 41.1806 44.6896 41.0399C44.549 40.8993 44.47 40.7085 44.47 40.5096V40.5096ZM45.38 38.2696C45.1875 38.22 45.0221 38.0969 44.9193 37.9268C44.8165 37.7567 44.7844 37.5531 44.83 37.3596V37.3596C44.8796 37.1671 45.0027 37.0018 45.1728 36.899C45.3429 36.7962 45.5465 36.7641 45.74 36.8096C45.9328 36.8613 46.0975 36.9868 46.1985 37.1589C46.2995 37.3311 46.3288 37.5361 46.28 37.7296V37.7296C46.2378 37.8908 46.1431 38.0333 46.0109 38.1347C45.8787 38.2361 45.7166 38.2906 45.55 38.2896L45.38 38.2696ZM46.31 35.4196C46.1433 35.3213 46.0211 35.1623 45.9689 34.9759C45.9167 34.7895 45.9386 34.5902 46.03 34.4196C46.1265 34.251 46.2855 34.1271 46.4726 34.0747C46.6597 34.0224 46.8599 34.0457 47.03 34.1396V34.1396C47.1984 34.2363 47.3227 34.3946 47.3768 34.5811C47.4309 34.7676 47.4105 34.9678 47.32 35.1396V35.1396C47.2523 35.2547 47.1559 35.3503 47.0402 35.4169C46.9245 35.4835 46.7935 35.5189 46.66 35.5196V35.5196C46.5368 35.5159 46.4165 35.4816 46.31 35.4196V35.4196ZM48 32.9296C47.9289 32.8598 47.8725 32.7765 47.834 32.6847C47.7954 32.5928 47.7756 32.4942 47.7756 32.3946C47.7756 32.295 47.7954 32.1964 47.834 32.1045C47.8725 32.0127 47.9289 31.9294 48 31.8596V31.8596C48.1406 31.7192 48.3312 31.6403 48.53 31.6403C48.7287 31.6403 48.9193 31.7192 49.06 31.8596V31.8596C49.1987 32.0032 49.2762 32.195 49.2762 32.3946C49.2762 32.5942 49.1987 32.786 49.06 32.9296V32.9296C48.9167 33.0648 48.727 33.14 48.53 33.1396V33.1396C48.3327 33.141 48.1427 33.0657 48 32.9296V32.9296ZM50.25 30.9296C50.1594 30.7578 50.1391 30.5576 50.1932 30.3711C50.2473 30.1846 50.3716 30.0263 50.54 29.9296V29.9296C50.71 29.8357 50.9102 29.8124 51.0973 29.8647C51.2844 29.9171 51.4434 30.041 51.54 30.2096V30.2096C51.6313 30.3802 51.6532 30.5795 51.601 30.7659C51.5489 30.9523 51.4266 31.1113 51.26 31.2096C51.1476 31.2749 51.0199 31.3093 50.89 31.3096V31.3096C50.7613 31.3182 50.6325 31.2943 50.5154 31.2401C50.3983 31.186 50.2967 31.1033 50.22 30.9996L50.25 30.9296ZM52.96 29.6296C52.933 29.5337 52.9257 29.4334 52.9384 29.3346C52.9512 29.2358 52.9837 29.1406 53.0341 29.0547C53.0846 28.9688 53.1518 28.8939 53.2319 28.8346C53.3119 28.7753 53.4031 28.7328 53.5 28.7096V28.7096C53.6934 28.6641 53.8971 28.6962 54.0672 28.799C54.2373 28.9018 54.3603 29.0671 54.41 29.2596V29.2596C54.4339 29.3555 54.4386 29.4551 54.4238 29.5528C54.4091 29.6505 54.3752 29.7444 54.3241 29.8289C54.273 29.9135 54.2057 29.9871 54.126 30.0456C54.0464 30.104 53.956 30.1462 53.86 30.1696V30.1696C53.8004 30.1795 53.7396 30.1795 53.68 30.1696V30.1696C53.5148 30.1792 53.3512 30.1333 53.2153 30.039C53.0793 29.9447 52.9789 29.8076 52.93 29.6496L52.96 29.6296ZM58.9 29.0996C58.9026 28.9015 58.9824 28.7122 59.1225 28.5721C59.2626 28.432 59.4519 28.3522 59.65 28.3496V28.3496C59.8489 28.3496 60.0396 28.4286 60.1803 28.5693C60.321 28.7099 60.4 28.9007 60.4 29.0996V29.0996C60.4 29.2985 60.321 29.4893 60.1803 29.6299C60.0396 29.7706 59.8489 29.8496 59.65 29.8496V29.8496C59.4501 29.855 59.2561 29.7814 59.1101 29.6448C58.9641 29.5081 58.8778 29.3194 58.87 29.1196L58.9 29.0996ZM55.9 29.0996C55.9026 28.9015 55.9824 28.7122 56.1225 28.5721C56.2626 28.432 56.4519 28.3522 56.65 28.3496V28.3496C56.8489 28.3496 57.0396 28.4286 57.1803 28.5693C57.321 28.7099 57.4 28.9007 57.4 29.0996V29.0996C57.4 29.2985 57.321 29.4893 57.1803 29.6299C57.0396 29.7706 56.8489 29.8496 56.65 29.8496V29.8496C56.4501 29.855 56.2561 29.7814 56.1101 29.6448C55.9641 29.5081 55.8778 29.3194 55.87 29.1196L55.9 29.0996Z" fill="#4C9AFF"/>
<path opacity="0.7" d="M64 56.29C64 56.0911 64.079 55.9004 64.2197 55.7597C64.3603 55.6191 64.5511 55.54 64.75 55.54V55.54C64.9481 55.5426 65.1374 55.6225 65.2775 55.7626C65.4176 55.9027 65.4974 56.0919 65.5 56.29V56.29C65.4974 56.4881 65.4176 56.6774 65.2775 56.8175C65.1374 56.9576 64.9481 57.0375 64.75 57.04V57.04C64.5511 57.04 64.3603 56.961 64.2197 56.8204C64.079 56.6797 64 56.489 64 56.29V56.29ZM61 56.29C61 56.0911 61.079 55.9004 61.2197 55.7597C61.3603 55.6191 61.5511 55.54 61.75 55.54V55.54C61.9472 55.5427 62.1354 55.6228 62.2739 55.7632C62.4124 55.9036 62.49 56.0929 62.49 56.29V56.29C62.49 56.4872 62.4124 56.6765 62.2739 56.8169C62.1354 56.9572 61.9472 57.0374 61.75 57.04C61.5511 57.04 61.3603 56.961 61.2197 56.8204C61.079 56.6797 61 56.489 61 56.29V56.29ZM67 56.15C66.9761 56.0542 66.9714 55.9545 66.9861 55.8568C67.0009 55.7591 67.0348 55.6653 67.0859 55.5807C67.137 55.4962 67.2043 55.4225 67.2839 55.3641C67.3636 55.3056 67.454 55.2635 67.55 55.24V55.24C67.7435 55.1945 67.9471 55.2266 68.1172 55.3294C68.2873 55.4322 68.4104 55.5976 68.46 55.79V55.79C68.4839 55.8859 68.4886 55.9856 68.4739 56.0833C68.4591 56.181 68.4252 56.2748 68.3741 56.3594C68.323 56.4439 68.2557 56.5175 68.1761 56.576C68.0964 56.6345 68.006 56.6766 67.91 56.7V56.7H67.72C67.5564 56.6994 67.3975 56.6453 67.2676 56.5461C67.1376 56.4468 67.0436 56.3077 67 56.15V56.15ZM69.86 55.24C69.766 55.07 69.7427 54.8698 69.7951 54.6827C69.8475 54.4956 69.9714 54.3366 70.14 54.24V54.24C70.3118 54.1495 70.512 54.1292 70.6985 54.1832C70.885 54.2373 71.0433 54.3616 71.14 54.53V54.53C71.234 54.7001 71.2573 54.9003 71.2049 55.0874C71.1525 55.2745 71.0286 55.4335 70.86 55.53V55.53C70.7452 55.588 70.6186 55.6188 70.49 55.62V55.62C70.3538 55.6266 70.2185 55.5944 70.0999 55.5272C69.9813 55.4599 69.8842 55.3603 69.82 55.24H69.86ZM72.37 53.61C72.2289 53.4677 72.1498 53.2754 72.1498 53.075C72.1498 52.8747 72.2289 52.6824 72.37 52.54C72.5106 52.3996 72.7013 52.3207 72.9 52.3207C73.0988 52.3207 73.2894 52.3996 73.43 52.54V52.54C73.5551 52.6765 73.6245 52.8549 73.6245 53.04C73.6245 53.2252 73.5551 53.4036 73.43 53.54C73.3608 53.6102 73.2782 53.6657 73.1872 53.7035C73.0962 53.7413 72.9985 53.7605 72.9 53.76V53.76C72.7998 53.7737 72.6979 53.7675 72.6001 53.7417C72.5023 53.716 72.4105 53.6713 72.33 53.61H72.37ZM74.37 51.37C74.205 51.2701 74.0849 51.1104 74.0346 50.9241C73.9844 50.7379 74.0078 50.5395 74.1 50.37V50.37C74.1982 50.2031 74.3579 50.0814 74.5449 50.0309C74.7318 49.9804 74.9311 50.0052 75.1 50.1V50.1C75.2667 50.1984 75.3889 50.3574 75.4411 50.5437C75.4932 50.7301 75.4714 50.9294 75.38 51.1C75.3124 51.2152 75.216 51.3107 75.1003 51.3773C74.9846 51.444 74.8535 51.4794 74.72 51.48V51.48C74.5789 51.4823 74.4401 51.4441 74.32 51.37H74.37ZM75.7 48.68C75.5072 48.6283 75.3425 48.5028 75.2415 48.3307C75.1404 48.1586 75.1112 47.9536 75.16 47.76V47.76C75.1855 47.6648 75.2296 47.5755 75.2896 47.4973C75.3497 47.4191 75.4246 47.3535 75.5101 47.3042C75.5955 47.255 75.6899 47.2231 75.7877 47.2104C75.8854 47.1976 75.9848 47.2043 76.08 47.23C76.176 47.2544 76.2661 47.2977 76.345 47.3574C76.4239 47.4172 76.4901 47.4922 76.5395 47.578C76.5889 47.6638 76.6206 47.7586 76.6327 47.8569C76.6448 47.9551 76.6371 48.0548 76.61 48.15V48.15C76.5679 48.3085 76.4743 48.4486 76.344 48.5481C76.2137 48.6477 76.054 48.7011 75.89 48.7C75.8095 48.7102 75.7277 48.7034 75.65 48.68H75.7Z" fill="#4C9AFF"/>
<path opacity="0.7" d="M60.75 59.05C60.6169 59.0493 60.4887 58.9994 60.39 58.91L57.78 56.29L60.39 53.68C60.4852 53.5877 60.6125 53.5361 60.745 53.5361C60.8776 53.5361 61.0049 53.5877 61.1 53.68C61.1469 53.7265 61.1841 53.7818 61.2095 53.8427C61.2349 53.9036 61.2479 53.969 61.2479 54.035C61.2479 54.101 61.2349 54.1663 61.2095 54.2273C61.1841 54.2882 61.1469 54.3435 61.1 54.39L59.2 56.29L61.1 58.2C61.1469 58.2465 61.1841 58.3018 61.2095 58.3627C61.2349 58.4236 61.2479 58.489 61.2479 58.555C61.2479 58.621 61.2349 58.6863 61.2095 58.7473C61.1841 58.8082 61.1469 58.8635 61.1 58.91C61.005 58.9988 60.8801 59.0487 60.75 59.05V59.05Z" fill="#4C9AFF"/>
<path opacity="0.7" d="M50.79 58.9994C50.6603 58.9963 50.536 58.9466 50.44 58.8594C50.3477 58.7642 50.2961 58.6369 50.2961 58.5044C50.2961 58.3718 50.3477 58.2445 50.44 58.1494L54.51 53.9994C54.6034 53.9078 54.7291 53.8564 54.86 53.8564C54.9909 53.8564 55.1165 53.9078 55.21 53.9994C55.2568 54.0459 55.294 54.1012 55.3194 54.1621C55.3448 54.223 55.3579 54.2884 55.3579 54.3544C55.3579 54.4204 55.3448 54.4857 55.3194 54.5467C55.294 54.6076 55.2568 54.6629 55.21 54.7094L51.15 58.7794C51.1078 58.8383 51.0542 58.8882 50.9924 58.926C50.9305 58.9638 50.8617 58.9887 50.79 58.9994Z" fill="#4C9AFF"/>
<path opacity="0.7" d="M54.86 58.9997C54.7299 58.9984 54.6051 58.9485 54.51 58.8597L50.44 54.7897C50.3459 54.6955 50.293 54.5678 50.293 54.4347C50.293 54.3015 50.3459 54.1738 50.44 54.0797C50.5342 53.9855 50.6619 53.9326 50.795 53.9326C50.9282 53.9326 51.0559 53.9855 51.15 54.0797L55.21 58.1497C55.2785 58.2196 55.325 58.308 55.3438 58.4041C55.3625 58.5001 55.3526 58.5996 55.3153 58.6901C55.2781 58.7806 55.2151 58.8582 55.1341 58.9132C55.0532 58.9682 54.9579 58.9983 54.86 58.9997V58.9997Z" fill="#4C9AFF"/>
<path opacity="0.7" d="M60.0001 43.0001C60.0001 42.8012 60.0791 42.6104 60.2197 42.4697C60.3604 42.3291 60.5512 42.2501 60.7501 42.2501V42.2501C60.8489 42.2487 60.9471 42.2672 61.0387 42.3044C61.1303 42.3416 61.2135 42.3968 61.2834 42.4667C61.3533 42.5367 61.4085 42.6199 61.4457 42.7115C61.4829 42.8031 61.5014 42.9012 61.5001 43.0001V43.0001C61.5014 43.0989 61.4829 43.1971 61.4457 43.2887C61.4085 43.3803 61.3533 43.4635 61.2834 43.5334C61.2135 43.6033 61.1303 43.6585 61.0387 43.6957C60.9471 43.7329 60.8489 43.7514 60.7501 43.7501V43.7501C60.5512 43.7501 60.3604 43.6711 60.2197 43.5304C60.0791 43.3897 60.0001 43.199 60.0001 43.0001V43.0001ZM57.0001 43.0001C57.0001 42.8012 57.0791 42.6104 57.2197 42.4697C57.3604 42.3291 57.5512 42.2501 57.7501 42.2501V42.2501C57.8489 42.2487 57.9471 42.2672 58.0387 42.3044C58.1303 42.3416 58.2135 42.3968 58.2834 42.4667C58.3533 42.5367 58.4085 42.6199 58.4457 42.7115C58.4829 42.8031 58.5014 42.9012 58.5001 43.0001V43.0001C58.5014 43.0989 58.4829 43.1971 58.4457 43.2887C58.4085 43.3803 58.3533 43.4635 58.2834 43.5334C58.2135 43.6033 58.1303 43.6585 58.0387 43.6957C57.9471 43.7329 57.8489 43.7514 57.7501 43.7501V43.7501C57.5512 43.7501 57.3604 43.6711 57.2197 43.5304C57.0791 43.3897 57.0001 43.199 57.0001 43.0001V43.0001ZM54.0001 43.0001C53.9987 42.9012 54.0172 42.8031 54.0544 42.7115C54.0916 42.6199 54.1468 42.5367 54.2167 42.4667C54.2867 42.3968 54.3699 42.3416 54.4615 42.3044C54.5531 42.2672 54.6512 42.2487 54.7501 42.2501V42.2501C54.949 42.2501 55.1397 42.3291 55.2804 42.4697C55.4211 42.6104 55.5001 42.8012 55.5001 43.0001V43.0001C55.5001 43.199 55.4211 43.3897 55.2804 43.5304C55.1397 43.6711 54.949 43.7501 54.7501 43.7501V43.7501C54.6512 43.7514 54.5531 43.7329 54.4615 43.6957C54.3699 43.6585 54.2867 43.6033 54.2167 43.5334C54.1468 43.4635 54.0916 43.3803 54.0544 43.2887C54.0172 43.1971 53.9987 43.0989 54.0001 43.0001V43.0001ZM51.0001 43.0001C50.9987 42.9012 51.0172 42.8031 51.0544 42.7115C51.0916 42.6199 51.1468 42.5367 51.2167 42.4667C51.2867 42.3968 51.3699 42.3416 51.4615 42.3044C51.5531 42.2672 51.6512 42.2487 51.7501 42.2501V42.2501C51.949 42.2501 52.1397 42.3291 52.2804 42.4697C52.4211 42.6104 52.5001 42.8012 52.5001 43.0001C52.5001 43.199 52.4211 43.3897 52.2804 43.5304C52.1397 43.6711 51.949 43.7501 51.7501 43.7501C51.6512 43.7514 51.5531 43.7329 51.4615 43.6957C51.3699 43.6585 51.2867 43.6033 51.2167 43.5334C51.1468 43.4635 51.0916 43.3803 51.0544 43.2887C51.0172 43.1971 50.9987 43.0989 51.0001 43.0001V43.0001Z" fill="#4C9AFF"/>
<path opacity="0.7" d="M61.9999 45.9299C61.935 45.9319 61.8704 45.9206 61.8102 45.8965C61.75 45.8724 61.6954 45.8361 61.6499 45.7899C61.603 45.7434 61.5658 45.6881 61.5404 45.6271C61.515 45.5662 61.502 45.5009 61.502 45.4349C61.502 45.3688 61.515 45.3035 61.5404 45.2426C61.5658 45.1816 61.603 45.1263 61.6499 45.0799L63.5599 43.1799L61.6499 41.2699C61.603 41.2234 61.5658 41.1681 61.5404 41.1071C61.515 41.0462 61.502 40.9809 61.502 40.9149C61.502 40.8488 61.515 40.7835 61.5404 40.7226C61.5658 40.6616 61.603 40.6063 61.6499 40.5599C61.745 40.4676 61.8723 40.416 62.0049 40.416C62.1374 40.416 62.2647 40.4676 62.3599 40.5599L64.9999 43.1799L62.3999 45.7899C62.3475 45.8411 62.2845 45.8801 62.2154 45.9043C62.1463 45.9285 62.0727 45.9372 61.9999 45.9299V45.9299Z" fill="#4C9AFF"/>
</g>
<path opacity="0.15" d="M83.8401 46.38C85.2277 46.3712 86.5917 46.7384 87.7873 47.4427C88.9828 48.147 89.9652 49.1621 90.6301 50.38H83.8401V46.38Z" fill="#4C9AFF"/>
<path opacity="0.15" d="M90.9301 51C91.4372 52.1747 91.6445 53.457 91.5332 54.7316C91.4219 56.0062 90.9955 57.2332 90.2924 58.3022C89.5894 59.3711 88.6316 60.2486 87.5053 60.8557C86.3791 61.4628 85.1196 61.7804 83.8401 61.78V51H90.9301Z" fill="#4C9AFF"/>
<path d="M76.1999 46.35C78.1495 46.35 79.7299 44.7696 79.7299 42.82C79.7299 40.8705 78.1495 39.29 76.1999 39.29C74.2504 39.29 72.6699 40.8705 72.6699 42.82C72.6699 44.7696 74.2504 46.35 76.1999 46.35Z" fill="#4C9AFF"/>
<path d="M45.1999 46.35C47.1495 46.35 48.7299 44.7696 48.7299 42.82C48.7299 40.8705 47.1495 39.29 45.1999 39.29C43.2504 39.29 41.6699 40.8705 41.6699 42.82C41.6699 44.7696 43.2504 46.35 45.1999 46.35Z" fill="#4C9AFF"/>
<path d="M33.3899 12.1601C34.9307 12.1601 36.1799 10.911 36.1799 9.37008C36.1799 7.8292 34.9307 6.58008 33.3899 6.58008C31.849 6.58008 30.5999 7.8292 30.5999 9.37008C30.5999 10.911 31.849 12.1601 33.3899 12.1601Z" stroke="#A5ADBA" stroke-miterlimit="10" stroke-linecap="round"/>
<path d="M38.3799 40.6396V56.0696" stroke="#6C798F" stroke-miterlimit="10" stroke-linecap="round"/>
<path d="M57.53 31.1104L69.83 40.4403" stroke="#6C798F" stroke-miterlimit="10" stroke-linecap="round"/>
<path d="M38.3799 16.25L64.9099 36.36" stroke="#8993A4" stroke-width="3.51" stroke-miterlimit="10" stroke-linecap="round"/>
<path d="M38.3799 16.25V48.62" stroke="#8993A4" stroke-width="3.51" stroke-miterlimit="10" stroke-linecap="round"/>
<path d="M38.38 23.4098C42.3343 23.4098 45.54 20.2042 45.54 16.2498C45.54 12.2955 42.3343 9.08984 38.38 9.08984C34.4256 9.08984 31.22 12.2955 31.22 16.2498C31.22 20.2042 34.4256 23.4098 38.38 23.4098Z" fill="#42526E"/>
<path d="M38.3799 19.6896C40.2798 19.6896 41.8199 18.1494 41.8199 16.2496C41.8199 14.3497 40.2798 12.8096 38.3799 12.8096C36.4801 12.8096 34.9399 14.3497 34.9399 16.2496C34.9399 18.1494 36.4801 19.6896 38.3799 19.6896Z" fill="white"/>
<path d="M36.0901 35.3497L54.1401 24.9297" stroke="#6C798F" stroke-miterlimit="10" stroke-linecap="round"/>
<path d="M71.9199 34.6104L69.2 34.9904L69.59 37.7204L71.8899 37.9604L72.7999 36.7504L71.9199 34.6104Z" fill="#FFFAE5"/>
<path d="M72.7999 36.75L71.8899 37.96L73.3599 38.12L72.7999 36.75Z" fill="#41526E"/>
<path d="M71.9278 34.6035L59.5024 25.2539L57.1636 28.3622L69.5889 37.7118L71.9278 34.6035Z" fill="#FFAB00"/>
<path d="M65.0989 29.414L61.3833 26.6182L56.946 32.5152L60.6616 35.311L65.0989 29.414Z" fill="#7A869A"/>
<path d="M31.92 6.99L29.5 3.5" stroke="#A5ADBA" stroke-miterlimit="10" stroke-linecap="round"/>
</g>
<defs>
<clipPath id="clip0">
<rect width="62.56" height="74.24" fill="white" transform="translate(29 3)"/>
</clipPath>
</defs>
</svg>
