<svg height="20" viewBox="0 0 20 20" width="20" xmlns="http://www.w3.org/2000/svg"><path d="m2.02020202 1.51515152c-.27893169 0-.5050505.22611881-.5050505.5050505v5.05050505c0 .27893169.22611881.50505051.5050505.50505051h5.05050505c.27893169 0 .50505051-.22611882.50505051-.50505051v-5.05050505c0-.27893169-.22611882-.5050505-.50505051-.5050505zm5.05050505 9.39393938c1.11572677 0 2.02020202.9044753 2.02020202 2.020202v5.0505051c0 1.1157267-.90447525 2.020202-2.02020202 2.020202h-5.05050505c-1.11572677 0-2.02020202-.9044753-2.02020202-2.020202v-5.0505051c0-1.1157267.90447525-2.020202 2.02020202-2.020202zm10.90909093 0c1.1157267 0 2.020202.9044753 2.020202 2.020202v5.0505051c0 1.1157267-.9044753 2.020202-2.020202 2.020202h-5.0505051c-1.1157267 0-2.020202-.9044753-2.020202-2.020202v-5.0505051c0-1.1157267.9044753-2.020202 2.020202-2.020202zm-10.90909093 1.5151515h-5.05050505c-.27893169 0-.5050505.2261188-.5050505.5050505v5.0505051c0 .2789317.22611881.5050505.5050505.5050505h5.05050505c.27893169 0 .50505051-.2261188.50505051-.5050505v-5.0505051c0-.2789317-.22611882-.5050505-.50505051-.5050505zm10.90909093 0h-5.0505051c-.2789317 0-.5050505.2261188-.5050505.5050505v5.0505051c0 .2789317.2261188.5050505.5050505.5050505h5.0505051c.2789317 0 .5050505-.2261188.5050505-.5050505v-5.0505051c0-.2789317-.2261188-.5050505-.5050505-.5050505zm-10.90909093-12.4242424c1.11572677 0 2.02020202.90447525 2.02020202 2.02020202v5.05050505c0 1.11572677-.90447525 2.02020202-2.02020202 2.02020202h-5.05050505c-1.11572677 0-2.02020202-.90447525-2.02020202-2.02020202v-5.05050505c0-1.11572677.90447525-2.02020202 2.02020202-2.02020202zm10.90909093 0c1.1157267 0 2.020202.90447525 2.020202 2.02020202v5.05050505c0 1.11572677-.9044753 2.02020202-2.020202 2.02020202h-5.0505051c-1.1157267 0-2.020202-.90447525-2.020202-2.02020202v-5.05050505c0-1.11572677.9044753-2.02020202 2.020202-2.02020202zm0 1.51515152h-5.0505051c-.2789317 0-.5050505.22611881-.5050505.5050505v5.05050505c0 .27893169.2261188.50505051.5050505.50505051h5.0505051c.2789317 0 .5050505-.22611882.5050505-.50505051v-5.05050505c0-.27893169-.2261188-.5050505-.5050505-.5050505z" fill="#555"/></svg>