<svg width="16" height="16" viewBox="0 0 16 16" fill="none" xmlns="http://www.w3.org/2000/svg">
<g id="vuesax/outline/arrow-right">
<g id="arrow-right">
<path id="Vector" d="M5.94023 13.7799C5.81356 13.7799 5.68689 13.7333 5.58689 13.6333C5.39356 13.4399 5.39356 13.1199 5.58689 12.9266L9.93356 8.57991C10.2536 8.25991 10.2536 7.73991 9.93356 7.41991L5.58689 3.07323C5.39356 2.87989 5.39356 2.55989 5.58689 2.36656C5.78023 2.17322 6.10023 2.17322 6.29356 2.36656L10.6402 6.71324C10.9802 7.05324 11.1736 7.51324 11.1736 7.99991C11.1736 8.48658 10.9869 8.94658 10.6402 9.28658L6.29356 13.6333C6.19356 13.7266 6.06689 13.7799 5.94023 13.7799Z" fill="#090808"/>
</g>
</g>
</svg>
