<svg xmlns="http://www.w3.org/2000/svg" viewBox="0 0 24 24" width="100%" height="100%">
  <path fill="#000" fill-rule="evenodd" d="M12,1 C18.0751322,1 23,5.92486775 23,12 C23,18.0751322 18.0751322,23 12,23 C5.92486775,23 1,18.0751322 1,12 C1,5.92486775 5.92486775,1 12,1 Z M12,3 C7.02943725,3 3,7.02943725 3,12 C3,16.9705627 7.02943725,21 12,21 C16.9705627,21 21,16.9705627 21,12 C21,7.02943725 16.9705627,3 12,3 Z M12.75,16 C12.8880712,16 13,16.1119288 13,16.25 L13,16.940983 C13,16.9797943 12.9909637,17.0180725 12.9736068,17.0527864 L12.2236068,18.5527864 C12.1618595,18.676281 12.0116912,18.7263371 11.8881966,18.6645898 C11.8398148,18.6403989 11.8005841,18.6011683 11.7763932,18.5527864 L11.0263932,17.0527864 C11.0090363,17.0180725 11,16.9797943 11,16.940983 L11,16.25 C11,16.1119288 11.1119288,16 11.25,16 L12.75,16 Z M14.5,7 C15.0522847,7 15.5,7.44771525 15.5,8 C15.5,8.55228475 15.0522847,9 14.5,9 L14,9 L14,12 C14,12.5128358 14.3860402,12.9355072 14.8833789,12.9932723 L15,13 L16,13 C16.5522847,13 17,13.4477153 17,14 C17,14.5522847 16.5522847,15 16,15 L16,15 L8,15 C7.44771525,15 7,14.5522847 7,14 C7,13.4477153 7.44771525,13 8,13 L8,13 L9,13 C9.55228475,13 10,12.5522847 10,12 L10,12 L10,9 L9.5,9 C8.94771525,9 8.5,8.55228475 8.5,8 C8.5,7.44771525 8.94771525,7 9.5,7 L14.5,7 Z"/>
</svg>
