<svg height="200" viewBox="0 0 200 200" width="200" xmlns="http://www.w3.org/2000/svg"><g fill="#3d474d" transform="translate(0 80)"><path d="m194.335302 14.7489991 5.606609 9.7002875h-7.05965c-.659184-1.185313-1.329-2.3920473-1.995272-3.5987817-.999409-1.7993908-2.009449-3.6023518-2.994681-5.3874618-.176292-.4273816-.605135-.6923513-1.063201-.6569204-2.399288.0285617-4.802121 0-7.20141 0-.233904 0-.467808.0321319-.769048.0571235v9.5753297h-7.013578v-24.36675077c.3544 0 .63792-.04641285.935616-.04641285 6.613106 0 13.226212.02856176 19.846406-.02142132 2.054736-.07027108 4.032666.79042199 5.390426 2.34563447 2.480801 2.7097969 2.672177 7.25111661.3544 10.05016897-.769454.9057204-1.769175 1.583303-2.891905 1.9600508-.333136.1178172-.666272.2213536-1.144712.3891539zm-15.441213-5.17681882c.116751.02690611.235144.04598909.3544.05712352 3.948017 0 7.89249 0 11.836964-.02499154.472228-.03761799.919745-.22796737 1.27584-.54267342.737152-.63906937.843472-1.51377324.524512-2.40989843-.308028-.88239033-1.165004-1.447204-2.09096-1.37810488h-11.241572c-.209096 0-.418192.02856175-.659184.04641285z"/><path d="m67.3112134 5.23793333h-.9249843c-5.3679804 0-10.7359608 0-16.1039411 0-.3705357-.01942182-.7420252.00816622-1.1057284.08211505-1.0242163.26419628-1.5912565 1.16746191-1.5097445 2.31707272.0548556.97914566.8042705 1.77487255 1.7720006 1.88150588.3457525.04106543.6938304.05895589 1.0419363.0535533 3.7991692 0 7.5947944.03213198 11.3939636 0 2.2936716-.10375847 4.4911089.93633062 5.8759539 2.78120132 2.2956016 3.035017 2.1076271 7.2897224-.4465441 10.1072925-1.1408021 1.2531096-2.7458193 1.9743128-4.4335454 1.9921827-7.0029463.0392724-14.0094365 0-21.0123827 0-.1701121 0-.3544001-.032132-.5705842-.0535533v-5.0875633c.3118721-.0214214.5847602-.0535533.8611923-.0535533h17.2840935.8505602c.5671676.0107741 1.1142622-.2114527 1.5153816-.6155396.4011193-.4040868.6217141-.9552288.6110191-1.5265924.0121754-1.1953946-.8790846-2.2045141-2.0590646-2.3313536-.2622561 0-.5245122 0-.7867683 0-3.9267532 0-7.8570505-.0249915-11.7838037 0-3.1842351-.014931-5.9714645-2.1579936-6.8257462-5.24822322-.7796802-2.93829097-.2232721-5.5802537 2.0094486-7.72952608 1.1570186-1.13939085 2.7092398-1.77972855 4.3272254-1.78510994 6.5032421-.03213198 13.0064841-.0178511 19.4920062 0 .1709767.01015488.3413168.02922158.5103362.05712351z"/><path d="m141.760045 24.4314355v-24.38817212h25.222656v5.16253797h-18.074406v4.39137047h13.608965v5.26964458h-13.608965v4.3806598h18.471334v5.1839593z"/><path d="m107.996346.05397404h6.981683v9.52534668h14.920244v-9.50392537h7.049018v24.34175925h-6.992314v-9.5646191h-14.959228v9.5681893h-6.999403z"/><path d="m103.265105.06468469v5.12683578c-.31896.02142132-.595392.0535533-.86828.0535533-5.8688663 0-11.7377322 0-17.6065981 0-.6731469-.00548982-1.3414021.11558912-1.9704646.35702199-1.5664485.64263958-2.1264007 2.01717424-2.1866487 3.59521143-.063792 1.94934011-.056704 3.90582061 0 5.85516061.060248 2.077868 1.1978724 3.6237732 2.9308889 4.0486294.5130845.1032353 1.0366237.1439899 1.5593605.1213875h17.213213c.301241 0 .598937.0285617.946249.0428426v5.19467c-.251624.0214213-.481984.0535533-.7088.0535533-7.1588827 0-14.314221.0178511-21.4695592 0-4.3272254 0-7.5132824-3.2417597-7.5274584-7.5867173-.014176-3.2012972-.014176-6.4037845 0-9.60746177 0-3.85940771 3.412873-7.28681881 7.2439383-7.29038903h21.6644793c.23036-.00357022.464264.0178511.77968.03570219z"/><path d="m0 .06111448h23.9787116v5.19466995h-16.95804537v4.37351937h12.64499597v5.244653h-12.68397998v9.5931809h-6.98168222z"/><path d="m35.6845473 24.4528568h-6.9426982v-14.8057019h6.9426982z"/><path d="m35.7199873 31.4897602v7.4367681h-7.0064902v-7.4367681z"/><path d="m35.7128993 4.89876244h-6.9994022v-4.8447884h6.9994022z"/><path d="m74.9308158 31.6075775h2.0342566c.4146482 1.4745008.8257523 2.9418612 1.2581204 4.4949068.4217362-1.5708967.8186643-3.0596784 1.2226804-4.5698814h2.0980487v7.0940269h-1.3254564v-5.6516581h-.063792c-.4607202 1.8565144-.9214403 3.7130287-1.3857045 5.5945346h-1.1092723c-.4512695-1.7351269-.902539-3.4762041-1.3538085-5.2232317h-.081512v5.1946699h-1.2864724z"/><path d="m144.889398 38.6409107h-1.265208c-.769049-1.428088-1.566449-2.8847377-2.427641-4.4770558v4.4592047h-1.417601v-7.0083417h1.516833l2.172473 3.9879357v-4.0736209h1.4176z"/><path d="m180.060065 31.6075775h1.417601l2.211456 4.0771911v-4.1557359h1.417601v7.079746h-1.254577l-2.402832-4.4342131v4.4449238h-1.389249z"/><path d="m176.640104 38.6694724h-1.531008v-2.9989847h-1.963377v2.9989847h-1.555817v-7.047614h1.484937v2.6134009h1.988185v-2.6205414h1.587712z"/><path d="m120.995742 35.1956485c-.008626.6218032-.050031 1.242706-.12404 1.8600846-.184288 1.121049-.847016 1.7172757-1.956288 1.8886463-1.672769.2534856-2.835201-.6783418-2.884817-2.3777665-.028435-1.0280355.003517-2.0568654.095688-3.0810997.120496-1.3245516.917896-1.9993232 2.275249-2.0350254 1.4176-.0357022 2.275248.5712352 2.4808 1.8707952.069274.6224518.107126 1.2480459.113408 1.8743655zm-3.274657-.096396h-.03544c.03544.631929.049616 1.2674281.116952 1.899357.018677.1794206.107895.3438356.247733.4565333s.318649.1642924.496508.1432637c.338823.0347991.654316-.1780852.751328-.5069712.051292-.1436828.08231-.2939077.092144-.4462775 0-.9889509.038984-1.9743316 0-2.9597123-.021264-.6497801-.28352-.8961252-.808032-.9032657-.524513-.0071404-.836385.3106092-.868281.9353976-.024808.4676989.007088.9318274.007088 1.3816751z"/><path d="m85.141083 31.6111477h1.5558165v.860423 3.5702199c-.0010013.2393446.019161.4783034.0602481.714044.109864.6319289.4571761.9246869 1.0135843.8854145.2457814-.003911.4788052-.1109188.6429472-.2952505.1641421-.1843318.2445252-.4292802.221789-.6758493.0425281-1.2924196.0318961-2.5848392.0425281-3.8772588 0-.357022 0-.7390355 0-1.153181h1.6054325v1.121049c0 1.4030964 0 2.8097631-.0708801 4.2057191-.07088 1.1424703-.6591842 1.7137055-1.7720005 1.9529102-1.3219124.2856176-2.5729448-.2035025-3.030121-1.2174449-.1493479-.3179864-.23486-.662565-.2516241-1.0139425-.042528-1.6744331-.01772-3.3381556-.01772-5.0768527z"/><path d="m124.263311 31.6040073c1.017129 0 1.974009-.032132 2.927345 0 1.063201.0464128 1.729473.5890863 1.871233 1.4994923.14176.9104061.01772 1.8743655-1.11636 2.3170727-.067367.0395227-.130337.0862019-.187832.1392386.492616.9925211.981688 1.9850423 1.5062 3.0489678h-1.619608c-.492617-.9282572-.988777-1.8779357-1.506201-2.8204737-.024808-.0464129-.198464 0-.37212 0v2.8811674h-1.499113zm1.577081 3.0632486c.634376-.0749746 1.325456.1927919 1.626696-.4962605.136641-.3621966.109458-.7664451-.074424-1.1067682-.375664-.5462436-.995864-.292758-1.552272-.2713367z"/><path d="m66.279909 31.600437h1.5310085c0 .2356346.028352.4641286.028352.6926227v4.0807614c0 .4462774.0496161.8961251.4997042 1.1353299.7088002.357022 1.4176005-.0714044 1.4388645-.9318274.031896-1.185313 0-2.370626 0-3.5523688v-1.4030964h1.4813924c.024808.0285617.0744241.0606937.0744241.0963959 0 1.752978.038984 3.5059559 0 5.2589339-.0283521 1.0246531-.6591843 1.6708629-1.6763126 1.9064974-1.3927924.3213198-2.6650888-.1642301-3.147073-1.2174449-.1297149-.252996-.2068905-.5299681-.2268161-.8140102-.014176-1.7279864-.003544-3.4524026-.003544-5.2517935z"/><path d="m156.152234 31.6147179h4.748961v1.2638579h-3.161249v1.5066328h2.126401v1.3816751h-2.126401v1.6708629h3.363257v1.331692h-4.961601z"/><path d="m133.849835 37.4163253h3.334905v1.3459729h-4.911986v-7.1404398h4.75605v1.2745685h-3.189601v1.4887817h2.1264v1.3816751h-2.147665z"/><path d="m46.1818787 38.694464h-1.4991125l-.3792081-1.3031303h-2.1264007l-.3933841 1.2781387h-1.4991125l1.9492006-7.0583247h1.9031286c.6875362 2.3563451 1.3608964 4.7019796 2.0448887 7.0833163zm-2.1760167-2.6740947-.7088003-2.874027h-.120496l-.7725922 2.8883079z"/><path d="m100.578752 38.6980342c.666272-2.3991878 1.318368-4.7341116 1.974009-7.0868865h1.899584c.67336 2.3492047 1.346721 4.691269 2.030713 7.0797461h-1.488481l-.386296-1.3031303h-2.1264c-.131128.4391371-.258713.8711337-.386297 1.3102707zm3.784993-2.6740947c-.2658-.9925211-.520968-1.9386294-.772592-2.8883079l-.127584.0214213-.7088 2.8561759z"/><path d="m166.727533 36.3809615h1.463672c.148848 1.3673942-.51388 2.2920812-1.793264 2.5419966-1.736561.3391708-2.923801-.5640948-3.015945-2.3242132-.049616-.9389678-.077968-1.8815059-.085056-2.8204737-.050588-.9325092.504344-1.7905674 1.371528-2.1207106 1.010041-.3320305 2.030713-.3855838 2.881273.4177157.474896.4498477.577672 1.071066.556408 1.7851099h-1.438864c-.042528-.1999323-.081512-.3570219-.116952-.5319627-.036988-.3450075-.332691-.6023471-.676904-.5890863-.335814-.0496299-.66099.1415829-.783225.4605584-.064725.1613871-.100715.3330013-.10632.5069712v2.8954483c-.019032.1966533.031145.3937902.14176.5569543.192847.2158853.452758.3593903.737153.4070051.266067-.0477555.501441-.2023963.652096-.4284264.112351-.2385584.184226-.4943965.21264-.7568866z"/><path d="m153.037057 31.6182881v1.2567175h-1.697577v5.8694415h-1.672768v-5.8230287h-1.772001v-1.3031303z"/><path d="m110.179451 32.8999971h-1.772001v-1.2674281h5.096274v1.2745685h-1.669224v5.8337393h-1.644417z"/><path d="m98.1263032 38.6908938h-4.6072015v-7.0654652h1.5203765v5.7123518h3.093913z"/><path d="m187.892308 31.6575606h3.232129v.5533841l-.761961.0749746v5.7766158l.761961.0928257v.6140778h-3.189601l-.042528-.5997969.77968-.1106769v-5.780186l-.74424-.0535533c-.010632-.1892216-.01772-.3391709-.03544-.5676649z"/><path d="m52.7382807 31.600437h1.6904886l-2.1264007 3.295313 2.4808008 3.7880033h-1.8747766c-.7619602-1.1960236-1.5345525-2.4063282-2.3248647-3.6523349.7300642-1.1674619 1.4494964-2.3063621 2.1547526-3.4309814z"/><path d="m195.61823 34.8921798 2.005905-3.2881725h1.715296l-2.1264 3.2953129c.825752 1.249577 1.637328 2.499154 2.4808 3.7808629h-1.87832c-.7088-1.1424704-1.445953-2.3277834-2.183105-3.5130964z"/><path d="m63.3561081 38.694464h-1.8712326l-2.3461287-3.6630456 2.1582967-3.4274111h1.6834005l-2.1264007 3.2988832c.8009443 1.2174449 1.6196085 2.452741 2.5020648 3.7915735z"/><path d="m50.448856 38.694464h-1.5239205v-7.0690354h1.5239205z"/><path d="m195.61823 34.8921798v.2749069c-.073762.1846626-.124936.377684-.152392.5748054v2.9275803h-1.548728v-7.0404736h1.552272v2.6205414c.025623.2191434.075551.4347026.148848.6426396z"/><path d="m57.5510343 31.6147179h1.4991125v7.0547545h-1.4991125z"/></g></svg>