<svg height="200" viewBox="0 0 200 200" width="200" xmlns="http://www.w3.org/2000/svg"><g fill="#3d474d" transform="translate(0 75.795764)"><path d="m18.2259356 26.4649521h-6.8290975l3.6371823-11.9616742zm-10.37122277 13.1820474 2.33139887-7.8769541h9.2005203l2.1813088 7.8567826h8.505103l-8.45007-29.95461418c-.5003002-1.77004539-1.5509306-2.58698941-3.3970382-2.58698941h-12.06223738v2.8290469h1.00060036c1.26075645 0 1.9411647.50428639 1.9411647 1.46747349 0 .6404438-.14008405 1.1749874-.64038423 2.6323752l-8.46507905 25.6328795z"/><path d="m39.9139484 39.6469995v-30.06555724c0-1.56833081-.9105464-2.49621785-2.4164499-2.49621785h-7.4794877v2.8290469h.5003002c1.2557534 0 1.7910746.53958649 1.7910746 1.82047399v27.9122542z"/><path d="m52.841705 39.6469995v-30.06555724c0-1.56833081-.9255553-2.49621785-2.4214528-2.49621785h-7.4544727v2.8290469h.5003001c1.2607565 0 1.7960777.53958649 1.7960777 1.82047399v27.9122542z"/><path d="m66.1046628 10.0554715c0-2.18356025-1.6059636-3.53000504-4.3576146-3.53000504s-4.3676205 1.32123046-4.3676205 3.53000504c0 2.2087746 1.6559936 3.5300051 4.3676205 3.5300051 2.711627 0 4.3576146-1.3111448 4.3576146-3.5300051m-.1450871 29.591528v-21.9162885c0-1.5632879-.9205523-2.4861321-2.4264558-2.4861321h-7.3594157v2.7735754h.4352612c1.2557534 0 1.7910746.5849723 1.7910746 1.8557741v19.7730711z"/><path d="m82.6095657 27.9273828v4.7453353c-1.2657594 1.3161876-2.806684 2.1230459-4.1124674 2.1230459-1.3057835 0-1.8411047-.6757438-1.8411047-2.5214322 0-1.8456883.3802281-2.6273323 1.7410446-3.1568331 1.355003-.5560139 2.7682168-.9552726 4.2125275-1.1901159m-10.2261356-5.6984368c2.3239826-1.1621356 4.8669008-1.8119558 7.4594756-1.9062027 2.0412248 0 2.76666.7312153 2.76666 2.864347v.5446293c-3.0968581.5042865-4.0674404.6959153-5.8134881 1.0842159-.9779488.2171345-1.9354251.5191517-2.861717.9026727-3.0568341 1.2355017-4.5027016 3.6157337-4.5027016 7.2718104 0 4.6394352 2.0012007 6.87856 6.0986592 6.87856 1.3937677.0056678 2.7758718-.2561833 4.0724435-.7716513 1.1760604-.539566 2.2694605-1.2460046 3.2469481-2.0978316v.3429148c0 1.5128593.7704623 2.2844175 2.2763658 2.2844175h6.9291575v-2.6071608h-.3402041c-1.3057835 0-1.7860716-.5900152-1.7860716-2.1482602v-11.6238024c0-6.1976802-2.1362818-8.3560262-8.294977-8.3560262-1.9524486.009814-3.8975697.2415697-5.7984791.6908724-1.7959648.4037068-3.5259368 1.0624968-5.1380828 1.9566314z"/><path d="m103.086852 39.6469995v-16.5002521c1.26576-1.4170449 2.56654-2.0574887 4.067441-2.0574887 1.605963 0 2.0012.6404438 2.0012 3.0963187v15.4614221h7.554533v-16.5910237c0-3.8628341-.275165-5.0832073-1.500901-6.394352-1.0006-1.1346445-2.566539-1.709531-4.562737-1.709531-2.956774 0-5.038023.9228442-7.834701 3.5602622v-.9732728c0-1.5128593-.785471-2.2945033-2.331399-2.2945033h-7.1793074v2.7735754h.4352611c1.2557535 0 1.7960777.5849723 1.7960777 1.8557741v19.7730711z"/><path d="m139.118471 34.5234493h-10.541325l10.081049-14.2460918v-5.0428643h-15.809486c-1.791074 0-2.61657.8270297-2.61657 2.637418v4.4377207h2.806684v-.4336864c0-1.1245587.580349-1.6591023 1.786072-1.6591023h5.43326l-10.186112 14.4074634v5.0428644h19.011407z"/><path d="m178.777266 39.0267272v-27.5895109c0-2.19868882-.775465-2.93998988-2.891735-2.93998988h-6.408845v3.10136158h.385231c1.460877 0 1.746048.332829 1.746048 2.1079173v25.3202219zm3.161897 0h7.114269v-21.487645c0-2.1583459-.825495-2.9349471-2.911747-2.9349471h-4.202522zm-13.473083 0v-24.4024206h-4.217531c-2.086252 0-2.901741.7766011-2.901741 2.9349471v21.4674735zm27.321392-14.0242058c0 12.158346-8.675205 20.9984872-20.587352 20.9984872s-20.607364-8.8401412-20.607364-20.9984872c0-12.1583459 8.690214-20.99848711 20.607364-20.99848711s20.587352 8.89056981 20.587352 20.99848711m4.212528 0c0-14.2965204-10.611367-25.0025214-24.79988-25.0025214s-24.809886 10.706001-24.809886 25.0025214c0 14.2965205 10.611367 24.9974786 24.809886 24.9974786s24.79988-10.6656581 24.79988-24.9974786"/></g></svg>