<svg xmlns="http://www.w3.org/2000/svg" width="100%" height="100%" viewBox="0 0 24 24">
  <path fill="#000" fill-rule="evenodd" d="M11.2842883,0 C11.704917,-4.10335141e-16 12.0715681,0.286272592 12.1735856,0.694342344 L12.4015366,1.60614659 C12.482349,1.92939587 12.7322,2.18333874 13.054094,2.26939099 L13.5876818,2.41203556 C13.90921,2.49799001 14.2520668,2.40291769 14.4834137,2.163654 L15.1364739,1.48824587 C15.4288585,1.18585582 15.889524,1.12126208 16.2537991,1.33157641 L16.7462009,1.61586471 C17.110476,1.82617904 17.2848689,2.25742397 17.1691838,2.66183146 L16.910223,3.56709573 C16.818636,3.88726193 16.9078855,4.23191459 17.143358,4.46738708 L17.5326129,4.85664199 C17.7680854,5.09211447 18.1127381,5.18136402 18.4329043,5.08977698 L19.3381685,4.83081624 C19.742576,4.71513106 20.173821,4.889524 20.3841353,5.25379912 L20.6684236,5.74620088 C20.8787379,6.110476 20.8141442,6.57114153 20.5117541,6.8635261 L19.836346,7.51658632 C19.5970823,7.74793325 19.50201,8.09079004 19.5879644,8.41231818 L19.730609,8.94590604 C19.8166613,9.26780003 20.0706041,9.51765103 20.3938534,9.59846335 L21.3056577,9.82641441 C21.7137274,9.92843185 22,10.295083 22,10.7157117 L22,11.2842883 C22,11.704917 21.7137274,12.0715681 21.3056577,12.1735856 L20.3938534,12.4015366 C20.0706041,12.482349 19.8166613,12.7322 19.730609,13.054094 L19.5879644,13.5876818 C19.50201,13.90921 19.5970823,14.2520668 19.836346,14.4834137 L20.5117541,15.1364739 C20.8141442,15.4288585 20.8787379,15.889524 20.6684236,16.2537991 L20.3841353,16.7462009 C20.173821,17.110476 19.742576,17.2848689 19.3381685,17.1691838 L18.4329043,16.910223 C18.1127381,16.818636 17.7680854,16.9078855 17.5326129,17.143358 L17.143358,17.5326129 C16.9078855,17.7680854 16.818636,18.1127381 16.910223,18.4329043 L17.1691838,19.3381685 C17.2848689,19.742576 17.110476,20.173821 16.7462009,20.3841353 L16.2537991,20.6684236 C15.889524,20.8787379 15.4288585,20.8141442 15.1364739,20.5117541 L14.4834137,19.836346 C14.2520668,19.5970823 13.90921,19.50201 13.5876818,19.5879644 L13.054094,19.730609 C12.7322,19.8166613 12.482349,20.0706041 12.4015366,20.3938534 L12.1735856,21.3056577 C12.0715681,21.7137274 11.704917,22 11.2842883,22 L10.7157117,22 C10.295083,22 9.92843185,21.7137274 9.82641441,21.3056577 L9.59846335,20.3938534 C9.51765103,20.0706041 9.26780003,19.8166613 8.94590604,19.730609 L8.41231818,19.5879644 C8.09079004,19.50201 7.74793325,19.5970823 7.51658632,19.836346 L6.8635261,20.5117541 C6.57114153,20.8141442 6.110476,20.8787379 5.74620088,20.6684236 L5.25379912,20.3841353 C4.889524,20.173821 4.71513106,19.742576 4.83081624,19.3381685 L5.08977698,18.4329043 C5.18136402,18.1127381 5.09211447,17.7680854 4.85664199,17.5326129 L4.46738708,17.143358 C4.23191459,16.9078855 3.88726193,16.818636 3.56709573,16.910223 L2.66183146,17.1691838 C2.25742397,17.2848689 1.82617904,17.110476 1.61586471,16.7462009 L1.33157641,16.2537991 C1.12126208,15.889524 1.18585582,15.4288585 1.48824587,15.1364739 L2.163654,14.4834137 C2.40291769,14.2520668 2.49799001,13.90921 2.41203556,13.5876818 L2.26939099,13.054094 C2.18333874,12.7322 1.92939587,12.482349 1.60614659,12.4015366 L0.694342344,12.1735856 C0.286272592,12.0715681 7.1764597e-16,11.704917 0,11.2842883 L0,10.7157117 C7.25643962e-16,10.295083 0.286272592,9.92843185 0.694342344,9.82641441 L1.60614659,9.59846335 C1.92939587,9.51765103 2.18333874,9.26780003 2.26939099,8.94590604 L2.41203556,8.41231818 C2.49799001,8.09079004 2.40291769,7.74793325 2.163654,7.51658632 L1.48824587,6.8635261 C1.18585582,6.57114153 1.12126208,6.110476 1.33157641,5.74620088 L1.61586471,5.25379912 C1.82617904,4.889524 2.25742397,4.71513106 2.66183146,4.83081624 L3.56709573,5.08977698 C3.88726193,5.18136402 4.23191459,5.09211447 4.46738708,4.85664199 L4.85664199,4.46738708 C5.09211447,4.23191459 5.18136402,3.88726193 5.08977698,3.56709573 L4.83081624,2.66183146 C4.71513106,2.25742397 4.889524,1.82617904 5.25379912,1.61586471 L5.74620088,1.33157641 C6.110476,1.12126208 6.57114153,1.18585582 6.8635261,1.48824587 L7.51658632,2.163654 C7.74793325,2.40291769 8.09079004,2.49799001 8.41231818,2.41203556 L8.94590604,2.26939099 C9.26780003,2.18333874 9.51765103,1.92939587 9.59846335,1.60614659 L9.82641441,0.694342344 C9.92843185,0.286272592 10.295083,7.72682335e-17 10.7157117,0 L11.2842883,0 Z M11,4 C7.13400675,4 4,7.13400675 4,11 C4,14.8659932 7.13400675,18 11,18 C14.8659932,18 18,14.8659932 18,11 C18,7.13400675 14.8659932,4 11,4 Z M8.5,6.85492374 C8.58586843,6.85492374 8.6702898,6.87703801 8.74513062,6.91913597 L15.2252662,10.5642122 C15.4659451,10.6995941 15.5513052,11.0044517 15.4159233,11.2451306 C15.371029,11.3249429 15.3050784,11.3908934 15.2252662,11.4357878 L8.74513062,15.080864 C8.50445168,15.2162459 8.19959413,15.1308858 8.06421223,14.8902069 C8.02211427,14.8153661 8,14.7309447 8,14.6450763 L8,7.35492374 C8,7.07878137 8.22385763,6.85492374 8.5,6.85492374 Z" transform="translate(1 1)"/>
</svg>
