<svg xmlns="http://www.w3.org/2000/svg" width="100%" height="100%" viewBox="0 0 24 24">
  <path fill="#000" fill-rule="evenodd" d="M8.4361148,13 C9.32763354,13 9.65091978,13.0928256 9.9768457,13.2671327 C10.3027716,13.4414398 10.5585602,13.6972284 10.7328673,14.0231543 C10.9071744,14.3490802 11,14.6723665 11,15.5638852 L11,19.4361148 C11,20.3276335 10.9071744,20.6509198 10.7328673,20.9768457 C10.5585602,21.3027716 10.3027716,21.5585602 9.9768457,21.7328673 C9.65091978,21.9071744 9.32763354,22 8.4361148,22 L3.5638852,22 C2.67236646,22 2.34908022,21.9071744 2.0231543,21.7328673 C1.69722837,21.5585602 1.4414398,21.3027716 1.2671327,20.9768457 C1.09282561,20.6509198 1,20.3276335 1,19.4361148 L1,15.5638852 C1,14.6723665 1.09282561,14.3490802 1.2671327,14.0231543 C1.4414398,13.6972284 1.69722837,13.4414398 2.0231543,13.2671327 C2.34908022,13.0928256 2.67236646,13 3.5638852,13 L8.4361148,13 Z M20.4361148,13 C21.3276335,13 21.6509198,13.0928256 21.9768457,13.2671327 C22.3027716,13.4414398 22.5585602,13.6972284 22.7328673,14.0231543 C22.9071744,14.3490802 23,14.6723665 23,15.5638852 L23,19.4361148 C23,20.3276335 22.9071744,20.6509198 22.7328673,20.9768457 C22.5585602,21.3027716 22.3027716,21.5585602 21.9768457,21.7328673 C21.6509198,21.9071744 21.3276335,22 20.4361148,22 L15.5638852,22 C14.6723665,22 14.3490802,21.9071744 14.0231543,21.7328673 C13.6972284,21.5585602 13.4414398,21.3027716 13.2671327,20.9768457 C13.0928256,20.6509198 13,20.3276335 13,19.4361148 L13,15.5638852 C13,14.6723665 13.0928256,14.3490802 13.2671327,14.0231543 C13.4414398,13.6972284 13.6972284,13.4414398 14.0231543,13.2671327 C14.3490802,13.0928256 14.6723665,13 15.5638852,13 L20.4361148,13 Z M8.3590287,15 L3.6409713,15 C3.41809162,15 3.33727006,15.0232064 3.25578857,15.0667832 C3.17430709,15.1103599 3.11035995,15.1743071 3.06678318,15.2557886 C3.0232064,15.3372701 3,15.4180916 3,15.6409713 L3,15.6409713 L3,19.3590287 C3,19.5819084 3.0232064,19.6627299 3.06678318,19.7442114 C3.11035995,19.8256929 3.17430709,19.8896401 3.25578857,19.9332168 C3.33727006,19.9767936 3.41809162,20 3.6409713,20 L3.6409713,20 L8.3590287,20 C8.58190838,20 8.66272994,19.9767936 8.74421143,19.9332168 C8.82569291,19.8896401 8.88964005,19.8256929 8.93321682,19.7442114 C8.9767936,19.6627299 9,19.5819084 9,19.3590287 L9,19.3590287 L9,15.6409713 C9,15.4180916 8.9767936,15.3372701 8.93321682,15.2557886 C8.88964005,15.1743071 8.82569291,15.1103599 8.74421143,15.0667832 C8.66272994,15.0232064 8.58190838,15 8.3590287,15 L8.3590287,15 Z M20.3590287,15 L15.6409713,15 C15.4180916,15 15.3372701,15.0232064 15.2557886,15.0667832 C15.1743071,15.1103599 15.1103599,15.1743071 15.0667832,15.2557886 C15.0232064,15.3372701 15,15.4180916 15,15.6409713 L15,15.6409713 L15,19.3590287 C15,19.5819084 15.0232064,19.6627299 15.0667832,19.7442114 C15.1103599,19.8256929 15.1743071,19.8896401 15.2557886,19.9332168 C15.3372701,19.9767936 15.4180916,20 15.6409713,20 L15.6409713,20 L20.3590287,20 C20.5819084,20 20.6627299,19.9767936 20.7442114,19.9332168 C20.8256929,19.8896401 20.8896401,19.8256929 20.9332168,19.7442114 C20.9767936,19.6627299 21,19.5819084 21,19.3590287 L21,19.3590287 L21,15.6409713 C21,15.4180916 20.9767936,15.3372701 20.9332168,15.2557886 C20.8896401,15.1743071 20.8256929,15.1103599 20.7442114,15.0667832 C20.6627299,15.0232064 20.5819084,15 20.3590287,15 L20.3590287,15 Z M8.4361148,2 C9.32763354,2 9.65091978,2.09282561 9.9768457,2.2671327 C10.3027716,2.4414398 10.5585602,2.69722837 10.7328673,3.0231543 C10.9071744,3.34908022 11,3.67236646 11,4.5638852 L11,8.4361148 C11,9.32763354 10.9071744,9.65091978 10.7328673,9.9768457 C10.5585602,10.3027716 10.3027716,10.5585602 9.9768457,10.7328673 C9.65091978,10.9071744 9.32763354,11 8.4361148,11 L3.5638852,11 C2.67236646,11 2.34908022,10.9071744 2.0231543,10.7328673 C1.69722837,10.5585602 1.4414398,10.3027716 1.2671327,9.9768457 C1.09282561,9.65091978 1,9.32763354 1,8.4361148 L1,4.5638852 C1,3.67236646 1.09282561,3.34908022 1.2671327,3.0231543 C1.4414398,2.69722837 1.69722837,2.4414398 2.0231543,2.2671327 C2.34908022,2.09282561 2.67236646,2 3.5638852,2 L8.4361148,2 Z M20.4361148,2 C21.3276335,2 21.6509198,2.09282561 21.9768457,2.2671327 C22.3027716,2.4414398 22.5585602,2.69722837 22.7328673,3.0231543 C22.9071744,3.34908022 23,3.67236646 23,4.5638852 L23,8.4361148 C23,9.32763354 22.9071744,9.65091978 22.7328673,9.9768457 C22.5585602,10.3027716 22.3027716,10.5585602 21.9768457,10.7328673 C21.6509198,10.9071744 21.3276335,11 20.4361148,11 L15.5638852,11 C14.6723665,11 14.3490802,10.9071744 14.0231543,10.7328673 C13.6972284,10.5585602 13.4414398,10.3027716 13.2671327,9.9768457 C13.0928256,9.65091978 13,9.32763354 13,8.4361148 L13,4.5638852 C13,3.67236646 13.0928256,3.34908022 13.2671327,3.0231543 C13.4414398,2.69722837 13.6972284,2.4414398 14.0231543,2.2671327 C14.3490802,2.09282561 14.6723665,2 15.5638852,2 L20.4361148,2 Z M8.54084688,4 L3.6409713,4 C3.41809162,4 3.33727006,4.0232064 3.25578857,4.06678318 C3.17430709,4.11035995 3.11035995,4.17430709 3.06678318,4.25578857 C3.0232064,4.33727006 3,4.41809162 3,4.6409713 L3,4.6409713 L3,8.5590287 C3,8.78190838 3.0232064,8.86272994 3.06678318,8.94421143 C3.11035995,9.02569291 3.17430709,9.08964005 3.25578857,9.13321682 C3.33727006,9.1767936 3.41809162,9.2 3.6409713,9.2 L3.6409713,9.2 L8.54084688,9.2 C8.76372657,9.2 8.84454813,9.1767936 8.92602961,9.13321682 C9.00751109,9.08964005 9.07145823,9.02569291 9.11503501,8.94421143 C9.15861178,8.86272994 9.18181818,8.78190838 9.18181818,8.5590287 L9.18181818,8.5590287 L9.18181818,4.6409713 C9.18181818,4.41809162 9.15861178,4.33727006 9.11503501,4.25578857 C9.07145823,4.17430709 9.00751109,4.11035995 8.92602961,4.06678318 C8.84454813,4.0232064 8.76372657,4 8.54084688,4 L8.54084688,4 Z M20.3590287,4 L15.6409713,4 C15.4180916,4 15.3372701,4.0232064 15.2557886,4.06678318 C15.1743071,4.11035995 15.1103599,4.17430709 15.0667832,4.25578857 C15.0232064,4.33727006 15,4.41809162 15,4.6409713 L15,4.6409713 L15,8.3590287 C15,8.58190838 15.0232064,8.66272994 15.0667832,8.74421143 C15.1103599,8.82569291 15.1743071,8.88964005 15.2557886,8.93321682 C15.3372701,8.9767936 15.4180916,9 15.6409713,9 L15.6409713,9 L20.3590287,9 C20.5819084,9 20.6627299,8.9767936 20.7442114,8.93321682 C20.8256929,8.88964005 20.8896401,8.82569291 20.9332168,8.74421143 C20.9767936,8.66272994 21,8.58190838 21,8.3590287 L21,8.3590287 L21,4.6409713 C21,4.41809162 20.9767936,4.33727006 20.9332168,4.25578857 C20.8896401,4.17430709 20.8256929,4.11035995 20.7442114,4.06678318 C20.6627299,4.0232064 20.5819084,4 20.3590287,4 L20.3590287,4 Z"/>
</svg>
