<svg width="24px" height="24px" viewBox="0 0 24 24" version="1.1" xmlns="http://www.w3.org/2000/svg" xmlns:xlink="http://www.w3.org/1999/xlink">
    <title>Service/Facebook/Monochrome</title>
    <g id="Service/Facebook/Monochrome" stroke="none" stroke-width="1" fill="none" fill-rule="evenodd">
        <path d="M15.3083444,1 C17.9829006,1 18.9527593,1.27847683 19.9305371,1.80139811 C20.9083149,2.32431939 21.6756806,3.09168511 22.1986019,4.06946289 C22.7215232,5.04724067 23,6.01709938 23,8.6916556 L23,15.3083444 C23,17.9829006 22.7215232,18.9527593 22.1986019,19.9305371 C21.6756806,20.9083149 20.9083149,21.6756806 19.9305371,22.1986019 C18.9527593,22.7215232 17.9829006,23 15.3083444,23 L15,23 L15,15 L18,15 L19,12 L15,12 L15,9 C15,8.44771525 15.4477153,8 16,8 L19,8 L19,5 L16,5 C13.790861,5 12,6.790861 12,9 L12,12 L9,12 L9,15 L12,15 L12,23 L8.6916556,23 C6.01709938,23 5.04724067,22.7215232 4.06946289,22.1986019 C3.09168511,21.6756806 2.32431939,20.9083149 1.80139811,19.9305371 C1.27847683,18.9527593 1,17.9829006 1,15.3083444 L1,8.6916556 C1,6.01709938 1.27847683,5.04724067 1.80139811,4.06946289 C2.32431939,3.09168511 3.09168511,2.32431939 4.06946289,1.80139811 C5.04724067,1.27847683 6.01709938,1 8.6916556,1 L15.3083444,1 Z" id="Combined-Shape" fill="#000"></path>
    </g>
</svg>