<?xml version="1.0" encoding="UTF-8"?>
<svg width="24px" height="24px" viewBox="0 0 24 24" version="1.1" xmlns="http://www.w3.org/2000/svg" xmlns:xlink="http://www.w3.org/1999/xlink">
    <title>Icons/Integration</title>
    <g id="Icons/Integration" stroke="none" stroke-width="1" fill="none" fill-rule="evenodd">
        <path d="M20,14 C22.209139,14 24,15.790861 24,18 C24,20.209139 22.209139,22 20,22 C17.790861,22 16,20.209139 16,18 C16,15.790861 17.790861,14 20,14 Z M4,14 C6.209139,14 8,15.790861 8,18 C8,20.209139 6.209139,22 4,22 C1.790861,22 0,20.209139 0,18 C0,15.790861 1.790861,14 4,14 Z M20,16.5 C19.1715729,16.5 18.5,17.1715729 18.5,18 C18.5,18.8284271 19.1715729,19.5 20,19.5 C20.8284271,19.5 21.5,18.8284271 21.5,18 C21.5,17.1715729 20.8284271,16.5 20,16.5 Z M4,16.5 C3.17157288,16.5 2.5,17.1715729 2.5,18 C2.5,18.8284271 3.17157288,19.5 4,19.5 C4.82842712,19.5 5.5,18.8284271 5.5,18 C5.5,17.1715729 4.82842712,16.5 4,16.5 Z M15,18 C15,18.342885 15.0345146,18.6777087 15.1002591,19.0011864 L8.89974091,19.0011864 C8.9654854,18.6777087 9,18.342885 9,18 C9,17.6574677 8.96555639,17.3229802 8.89994372,16.999812 L15.1000563,16.999812 C15.0344436,17.3229802 15,17.6574677 15,18 Z M15.4192188,8.64816469 L18.2831507,13.3025505 C17.6442432,13.5361255 17.0663219,13.896331 16.5797717,14.3527821 L13.7158466,9.69781599 C14.3547103,9.46441274 14.9326242,9.10440583 15.4192188,8.64816469 Z M10.2831507,9.69744954 L7.41921884,14.3518353 C6.9328788,13.8958329 6.35531503,13.535964 5.71684933,13.3025505 L8.58078116,8.64816469 C9.0671212,9.10416712 9.64468497,9.46403601 10.2831507,9.69744954 Z M12,1 C14.209139,1 16,2.790861 16,5 C16,7.209139 14.209139,9 12,9 C9.790861,9 8,7.209139 8,5 C8,2.790861 9.790861,1 12,1 Z M12,3.5 C11.1715729,3.5 10.5,4.17157288 10.5,5 C10.5,5.82842712 11.1715729,6.5 12,6.5 C12.8284271,6.5 13.5,5.82842712 13.5,5 C13.5,4.17157288 12.8284271,3.5 12,3.5 Z" id="Combined-Shape" fill="#000"></path>
        <g id="Combined-Shape-2" opacity="0.498535156" transform="translate(4.881208, 7.364985)"></g>
    </g>
</svg>
