<svg height="200" viewBox="0 0 200 200" width="200" xmlns="http://www.w3.org/2000/svg"><path d="m7.17122826 114.166213v-35.166213h-7.17122826v42h24.7780776v-6.833787zm141.92511474-5.264715c0-5.655302-2.447042-8.84558-6.727905-10.1346405v-.1126772c3.169216-1.3420357 5.337825-4.1984864 5.337825-9.0713542 0-6.8876031-4.059619-10.5828261-12.176352-10.5828261h-14.513608v42h14.790789c9.452129 0 13.289251-4.53862 13.289251-12.098502m-7.174567-.502003c0 4.814848-2.055065 6.271243-5.948125 6.271243h-8.061631v-12.37473h7.783198c4.392737 0 6.226558 1.735565 6.226558 6.103487m-1.111647-17.4716901c0 3.8646593-1.612577 5.6002243-5.337408 5.6002243h-7.506434v-11.0873509h7.339875c3.837123 0 5.503967 1.3420357 5.503967 5.4871266m31.442949-11.9278049-5.5311 27.938896-.776859 4.703432h-.166559l-.723844-4.761452-5.503967-27.880876h-7.534402l8.896097 42h9.008388l5.337825-27.5420037.778111-5.0999039h.166559l.722592 5.0999039 5.392092 27.5420037h8.784223l8.897766-42h-7.255551l-5.563244 27.71144-.776859 4.763134h-.166559l-.723843-4.703432-5.530683-27.771142zm-113.9319027 29.901498c0-5.655302-2.4470423-8.84558-6.7279053-10.1346405v-.1126772c3.1692162-1.3420357 5.337825-4.1984864 5.337825-9.0713542 0-6.8876031-4.059619-10.5828261-12.1759349-10.5828261h-14.5127727v42h14.7899539c9.4533812 0 13.288834-4.53862 13.288834-12.098502m-7.172898-.502003c0 4.814848-2.0579868 6.271243-5.9493768 6.271243h-8.0620486v-12.37473h7.7831976c4.3927374 0 6.2282278 1.735565 6.2282278 6.103487m-1.1116468-17.4716901c0 3.8646593-1.6125767 5.6002243-5.337825 5.6002243h-7.5072687v-11.0873509h7.3407095c3.8358703 0 5.5043842 1.3420357 5.5043842 5.4871266m59.3914955-11.9278049h-41.6873822v8.3751101h41.6873822zm0 16.7977296h-41.6873822v8.3734284h41.6873822zm0 25.2022704h-41.6873822v-8.376371h41.6873822z" fill="#3e484d"/></svg>