<svg height="24" viewBox="0 0 24 24" width="24" xmlns="http://www.w3.org/2000/svg"><path d="m18.9123214 18.9122971h-3.2888275v-5.1504136c0-1.2281847-.0219407-2.8092082-1.7104841-2.8092082-1.7129661 0-1.9750636 1.338087-1.9750636 2.7197576v5.2394671h-3.28872817v-10.5913185h3.15718297v1.44739349h.0442786c.6428339-1.09912157 1.8425257-1.75803855 3.1150886-1.71078158 3.3333046 0 3.9479431 2.19248489 3.9479431 5.04487969zm-13.97396737-12.03950622c-.00019856 0-.00029784 0-.00039711 0-1.04700016 0-1.90854646-.86144683-1.90854646-1.90844674 0-1.04699992.8615463-1.90854603 1.90854646-1.90854603 1.04690087 0 1.9083479.86134755 1.90854645 1.90814891v.00039712c0 1.04680136-.86134774 1.90834746-1.90814934 1.90844674m1.64436408 12.03950622h-3.29220293v-10.5917156h3.29220293zm13.96910269-18.91062932h-18.91400916c-.88785534-.01002721-1.62699019.71193215-1.63781164 1.59978728v18.99253484c.01042433.8883515.74945991 1.6111051 1.63781164 1.6017031h18.91400916c.8905358.0110897 1.6321527-.7115646 1.6440662-1.6017031v-18.99382547c-.0119135-.88974144-.7545232-1.61160152-1.6440662-1.60002716" fill="#000" transform="translate(1.284416 1)"/></svg>