<svg xmlns="http://www.w3.org/2000/svg" width="138" height="32" viewBox="0 0 138 32">
  <g fill="none" fill-rule="evenodd">
    <g fill-rule="nonzero" transform="translate(-1 .5)">
      <path fill="#FFF" d="M10.7133889,8.0044454 L13.7237108,1.98987014 C15.0516293,-0.663290046 18.8380532,-0.663290046 20.1659717,1.98987014 L23.1762473,8.00435286 L29.8508141,9.01237662 C32.7844687,9.45543064 33.9545381,13.0565337 31.8415822,15.1393309 L27.0412338,19.8711628 L28.1423016,26.5136626 C28.6274813,29.4406452 25.5642001,31.6662493 22.930403,30.3003286 L16.9325213,27.1897507 L10.9346396,30.3003286 C8.30084248,31.6662493 5.23756124,29.4406452 5.72274098,26.5136626 L6.82734892,19.8498059 L2.04866672,15.1393309 C-0.0642891548,13.0565337 1.10578016,9.45543064 4.03943485,9.01237662 L10.7133889,8.0044454 Z"/>
      <path fill="#2BD9D9" d="M16.9448412,9.4795892 L15.4445837,12.4770798 C14.7943217,13.7762931 13.2139597,14.302372 11.9147464,13.6521099 C10.6155331,13.0018479 10.0894542,11.4214858 10.7397163,10.1222726 L14.5924075,2.42465676 C15.5622038,0.487019175 18.3274787,0.487019175 19.297275,2.42465676 L23.1499662,10.1222726 C23.8002282,11.4214858 23.2741494,13.0018479 21.9749361,13.6521099 C20.6757228,14.302372 19.0953608,13.7762931 18.4450987,12.4770798 L16.9448412,9.4795892 Z" style="mix-blend-mode:multiply"/>
      <path fill="#3DCC3D" d="M24.1519491,18.7894077 C23.501687,20.088621 21.921325,20.6146999 20.6221118,19.9644378 C19.3228985,19.3141758 18.7968196,17.7338137 19.4470817,16.4346005 L23.2997729,8.73698466 C24.2695692,6.79934707 27.034844,6.79934707 28.0046403,8.73698466 L31.8573316,16.4346005 C32.5075936,17.7338137 31.9815147,19.3141758 30.6823014,19.9644378 C29.3830882,20.6146999 27.8027262,20.088621 27.1524641,18.7894077 L25.6522066,15.7919171 L24.1519491,18.7894077 Z" style="mix-blend-mode:multiply" transform="rotate(72 25.652 13.763)"/>
      <path fill="#FFD426" d="M20.8260315,29.0146463 C20.1757694,30.3138596 18.5954074,30.8399385 17.2961941,30.1896764 C15.9969809,29.5394143 15.470902,27.9590523 16.121164,26.659839 L19.9738553,18.9622232 C20.9436516,17.0245856 23.7089264,17.0245856 24.6787227,18.9622232 L28.5314139,26.659839 C29.181676,27.9590523 28.6555971,29.5394143 27.3563838,30.1896764 C26.0571706,30.8399385 24.4768085,30.3138596 23.8265465,29.0146463 L22.326289,26.0171557 L20.8260315,29.0146463 Z" style="mix-blend-mode:multiply" transform="rotate(144 22.326 23.989)"/>
      <path fill="#F7578C" d="M11.5387536,26.0171557 L10.0384961,29.0146463 C9.38823402,30.3138596 7.80787201,30.8399385 6.50865873,30.1896764 C5.20944546,29.5394143 4.68336657,27.9590523 5.33362863,26.659839 L9.18631985,18.9622232 C10.1561161,17.0245856 12.921391,17.0245856 13.8911873,18.9622232 L17.7438785,26.659839 C18.3941406,27.9590523 17.8680617,29.5394143 16.5688484,30.1896764 C15.2696351,30.8399385 13.6892731,30.3138596 13.0390111,29.0146463 L11.5387536,26.0171557 Z" style="mix-blend-mode:multiply" transform="rotate(-144 11.539 23.989)"/>
      <path fill="#0AF" d="M8.2380423,15.7919171 L6.73778481,18.7894077 C6.08752274,20.088621 4.50716073,20.6146999 3.20794746,19.9644378 C1.90873419,19.3141758 1.38265529,17.7338137 2.03291735,16.4346005 L5.88560857,8.73698466 C6.85540487,6.79934707 9.62067973,6.79934707 10.590476,8.73698466 L14.4431672,16.4346005 C15.0934293,17.7338137 14.5673504,19.3141758 13.2681371,19.9644378 C11.9689239,20.6146999 10.3885619,20.088621 9.73829979,18.7894077 L8.2380423,15.7919171 Z" style="mix-blend-mode:multiply" transform="rotate(-72 8.238 13.763)"/>
    </g>
    <path fill="#FFF" d="M0.368727313,11.8742759 L3.88830453,11.8742759 C4.091947,11.8742759 4.25703184,12.0393608 4.25703184,12.2430032 L4.25703184,13.8440948 L4.25703184,13.8440948 C4.45411734,13.5655332 4.65120018,13.2869757 4.90741171,13.0084141 C5.16362324,12.7298524 5.46910163,12.4811404 5.82385606,12.2622706 C6.17861049,12.0434007 6.5826303,11.8643281 7.03592763,11.7250472 C7.48922495,11.5857664 7.98193204,11.5161271 8.51406368,11.5161271 C9.51920123,11.5161271 10.4110011,11.7250451 11.1894899,12.1428876 C11.9679788,12.56073 12.5543003,13.2173298 12.9484719,14.1127064 C13.4608949,13.1775352 14.0817058,12.510987 14.8109233,12.1130419 C15.5401407,11.7150967 16.4368676,11.5161271 17.5011309,11.5161271 C18.4668513,11.5161271 19.279818,11.680277 19.9400554,12.0085818 C20.6002928,12.3368865 21.1225623,12.7845682 21.5068796,13.3516401 C21.8911969,13.918712 22.1671129,14.5852602 22.3346358,15.3513047 C22.5021587,16.1173492 22.5859189,16.9380988 22.5859189,17.8135782 L22.5859189,26.0105783 C22.5859189,26.2142208 22.4208341,26.3793057 22.2171916,26.3793057 L18.5202381,26.3793057 C18.3165956,26.3793057 18.1515108,26.2142208 18.1515108,26.0105783 L18.1515108,17.9329612 L18.1515108,17.9329612 C18.1515108,17.2564544 18.0086257,16.6744683 17.7228513,16.1869854 C17.4370769,15.6995025 16.9295886,15.4557648 16.2003712,15.4557648 C15.6879481,15.4557648 15.2592929,15.5403268 14.9143928,15.7094535 C14.5694927,15.8785803 14.2935767,16.1123695 14.0866366,16.4108284 C13.8796965,16.7092873 13.7318844,17.0574842 13.6431958,17.4554293 C13.5545072,17.8533745 13.5101636,18.2712107 13.5101636,18.7089504 L13.5101636,26.0105783 C13.5101636,26.2142208 13.3450787,26.3793057 13.1414362,26.3793057 L9.4444827,26.3793057 C9.24084023,26.3793057 9.07575539,26.2142208 9.07575539,26.0105783 L9.07575539,18.7089504 L9.07575539,18.7089504 C9.07575539,18.4502861 9.06590124,18.1319347 9.04619266,17.7538868 C9.02648408,17.3758388 8.95750509,17.0176935 8.83925362,16.6794401 C8.72100214,16.3411867 8.52884637,16.0526808 8.26278055,15.8139136 C7.99671473,15.5751465 7.60747613,15.4557648 7.09505307,15.4557648 C6.52350427,15.4557648 6.0603596,15.5602238 5.70560518,15.769145 C5.35085075,15.9780663 5.07986185,16.2566237 4.89263035,16.6048258 C4.70539884,16.9530278 4.58222207,17.3459928 4.52309633,17.7837325 C4.46397059,18.2214722 4.43440817,18.6791023 4.43440817,19.1566365 L4.43440817,26.0105783 C4.43440817,26.2142208 4.26932333,26.3793057 4.06568086,26.3793057 L0.368727313,26.3793057 C0.165084841,26.3793057 2.49390101e-17,26.2142208 0,26.0105783 L0,12.2430032 C3.05721411e-17,12.0393608 0.165084841,11.8742759 0.368727313,11.8742759 Z M38.1903806,24.1758607 C38.0090847,24.3841041 37.8599129,24.5440972 37.7428654,24.6558397 C37.1714365,25.2013695 36.5100576,25.6465243 35.7587196,25.991311 C34.6747478,26.4887425 33.5513756,26.7374545 32.3885694,26.7374545 C31.284889,26.7374545 30.245277,26.5583819 29.2697024,26.2002312 C28.2941277,25.8420805 27.4466715,25.3297338 26.7273083,24.6631756 C26.0079452,23.9966174 25.441332,23.1957647 25.0274519,22.2605935 C24.6135717,21.3254223 24.4066347,20.2808319 24.4066347,19.1267908 C24.4066347,17.9727497 24.6135717,16.9281593 25.0274519,15.9929881 C25.441332,15.0578169 26.0079452,14.2569642 26.7273083,13.590406 C27.4466715,12.9238478 28.2941277,12.411501 29.2697024,12.0533504 C30.245277,11.6951997 31.284889,11.5161271 32.3885694,11.5161271 C33.4134156,11.5161271 34.344632,11.6951997 35.1822466,12.0533504 C36.0198612,12.411501 36.7293594,12.9238478 37.3107625,13.590406 C37.8921656,14.2569642 38.340529,15.0578169 38.6558663,15.9929881 C38.9712036,16.9281593 39.1288698,17.9727497 39.1288698,19.1267908 L39.1288698,20.0379042 C39.1288698,20.3094275 38.9087567,20.5295406 38.6372334,20.5295406 L28.8410429,20.5295406 L28.8410429,20.5295406 C29.0184201,21.3851228 29.4027316,22.0665937 29.993989,22.5739738 C30.5852464,23.0813539 31.3144529,23.3350402 32.1816304,23.3350402 C32.9108478,23.3350402 33.5267317,23.1708902 34.0293005,22.8425855 C34.3395298,22.6399271 34.6253496,22.401258 34.8867631,22.1265751 C34.9509268,22.0591544 35.0308337,21.9668335 35.1264837,21.8496123 C35.2509775,21.6971007 35.4733248,21.6692646 35.6315518,21.7864085 L38.131614,23.6373394 C38.2953757,23.7584695 38.3298338,23.9894352 38.2086316,24.1531436 C38.2028496,24.1609534 38.1967612,24.1685317 38.1903806,24.1758607 Z M85.1408866,24.1758607 C84.9595906,24.3841041 84.8104189,24.5440972 84.6933714,24.6558397 C84.1219425,25.2013695 83.4605636,25.6465243 82.7092256,25.991311 C81.6252538,26.4887425 80.5018816,26.7374545 79.3390754,26.7374545 C78.235395,26.7374545 77.195783,26.5583819 76.2202083,26.2002312 C75.2446337,25.8420805 74.3971775,25.3297338 73.6778143,24.6631756 C72.9584512,23.9966174 72.391838,23.1957647 71.9779579,22.2605935 C71.5640777,21.3254223 71.3571407,20.2808319 71.3571407,19.1267908 C71.3571407,17.9727497 71.5640777,16.9281593 71.9779579,15.9929881 C72.391838,15.0578169 72.9584512,14.2569642 73.6778143,13.590406 C74.3971775,12.9238478 75.2446337,12.411501 76.2202083,12.0533504 C77.195783,11.6951997 78.235395,11.5161271 79.3390754,11.5161271 C80.3639215,11.5161271 81.2951379,11.6951997 82.1327526,12.0533504 C82.9703672,12.411501 83.6798654,12.9238478 84.2612685,13.590406 C84.8426716,14.2569642 85.291035,15.0578169 85.6063723,15.9929881 C85.9217096,16.9281593 86.0793758,17.9727497 86.0793758,19.1267908 L86.0793758,20.0379042 C86.0793758,20.3094275 85.8592627,20.5295406 85.5877394,20.5295406 L75.7915489,20.5295406 L75.7915489,20.5295406 C75.9689261,21.3851228 76.3532376,22.0665937 76.944495,22.5739738 C77.5357524,23.0813539 78.2649589,23.3350402 79.1321364,23.3350402 C79.8613538,23.3350402 80.4772377,23.1708902 80.9798064,22.8425855 C81.2900357,22.6399271 81.5758556,22.401258 81.8372691,22.1265751 C81.9014328,22.0591544 81.9813397,21.9668335 82.0769897,21.8496123 C82.2014835,21.6971007 82.4238307,21.6692646 82.5820578,21.7864085 L85.08212,23.6373394 C85.2458816,23.7584695 85.2803398,23.9894352 85.1591376,24.1531436 C85.1533556,24.1609534 85.1472671,24.1685317 85.1408866,24.1758607 Z M34.6944617,17.4852751 C34.7141703,16.7291792 34.4678167,16.082528 33.9553937,15.545302 C33.4429706,15.008076 32.7827431,14.739467 31.9746913,14.739467 C31.4819769,14.739467 31.0483946,14.8190548 30.6739316,14.9782329 C30.2994686,15.137411 29.979209,15.3413548 29.7131432,15.5900706 C29.4470773,15.8387863 29.2401404,16.1272923 29.092326,16.4555971 C28.9445117,16.7839018 28.8607515,17.1271244 28.8410429,17.4852751 L34.6944617,17.4852751 Z M45.0745028,11.8742759 C45.2781453,11.8742759 45.4432301,12.0393608 45.4432301,12.2430032 L45.4432301,26.0105783 C45.4432301,26.2142208 45.2781453,26.3793057 45.0745028,26.3793057 L41.3775493,26.3793057 C41.1739068,26.3793057 41.008822,26.2142208 41.008822,26.0105783 L41.008822,12.2430032 C41.008822,12.0393608 41.1739068,11.8742759 41.3775493,11.8742759 L45.0745028,11.8742759 Z M43.2354796,5.30909091 C44.6641591,5.30909091 45.8223326,6.47947933 45.8223326,7.92322662 C45.8223326,9.36697391 44.6641591,10.5373623 43.2354796,10.5373623 C41.8068002,10.5373623 40.6486267,9.36697391 40.6486267,7.92322662 C40.6486267,6.47947933 41.8068002,5.30909091 43.2354796,5.30909091 Z M55.8961496,16.1422168 C55.2457665,15.3264291 54.3884561,14.9185414 53.3241929,14.9185414 C52.9497299,14.9185414 52.5851266,15.0080778 52.2303722,15.1871531 C51.8756178,15.3662284 51.6982432,15.6746313 51.6982432,16.112371 C51.6982432,16.4705217 51.8805448,16.7341564 52.2451535,16.9032832 C52.6097623,17.0724099 53.0729069,17.2216371 53.6346014,17.3509693 C54.1962959,17.4803014 54.7973986,17.6195802 55.4379274,17.7688096 C56.0784563,17.9180391 56.6795589,18.1518284 57.2412534,18.4701845 C57.8029479,18.7885407 58.2660926,19.2212996 58.6307013,19.7684742 C58.99531,20.3156489 59.1776116,21.0468622 59.1776116,21.9621361 C59.1776116,22.8973073 58.9756017,23.6683146 58.5715759,24.275181 C58.16755,24.8820474 57.6502075,25.3695229 57.019533,25.7376222 C56.3888585,26.1057216 55.6793603,26.364382 54.8910171,26.5136115 C54.1026739,26.6628409 53.3241967,26.7374545 52.5555621,26.7374545 C51.5504246,26.7374545 50.535448,26.5932016 49.5106018,26.3046913 C48.4857557,26.016181 47.6185912,25.5038343 46.9090824,24.7676357 L49.59929,21.7532159 C50.0131702,22.2705447 50.4713878,22.6635097 50.9739565,22.9321227 C51.4765253,23.2007357 52.0628467,23.3350402 52.7329384,23.3350402 C53.2453615,23.3350402 53.7085062,23.2604266 54.1223863,23.1111971 C54.5362665,22.9619677 54.7432035,22.6883845 54.7432035,22.2904393 C54.7432035,21.9123913 54.5609019,21.6288596 54.1962931,21.4398357 C53.8316844,21.2508117 53.3685398,21.091636 52.8068452,20.9623038 C52.2451507,20.8329716 51.6440481,20.6936929 51.0035193,20.5444635 C50.3629904,20.395234 49.7618878,20.1713932 49.2001933,19.8729343 C48.6384988,19.5744754 48.1753541,19.151665 47.8107454,18.6044903 C47.4461367,18.0573157 47.263835,17.3261024 47.263835,16.4108284 C47.263835,15.5552463 47.4362825,14.8190587 47.7811827,14.2022437 C48.1260828,13.5854286 48.5793733,13.0780561 49.1410678,12.6801109 C49.7027623,12.2821657 50.3482086,11.9886855 51.0774261,11.7996616 C51.8066435,11.6106376 52.5457041,11.5161271 53.2946301,11.5161271 C54.240642,11.5161271 55.1964937,11.6554058 56.1622141,11.9339674 C57.1279345,12.212529 57.9458283,12.7099531 58.6159199,13.4262544 L55.8961496,16.1422168 Z M70.0009827,15.4557648 L66.4674308,15.4557648 L66.4674308,15.4557648 L66.4674308,20.2907747 C66.4674308,20.6887199 66.4871391,21.0518394 66.5265563,21.3801442 C66.5659734,21.708449 66.6546607,21.9919807 66.7926208,22.2307478 C66.9305808,22.4695149 67.1424449,22.6535618 67.4282193,22.782894 C67.7139937,22.9122262 68.0933781,22.9768913 68.566384,22.9768913 C68.802887,22.9768913 69.1132925,22.9520201 69.4976098,22.9022769 C69.6150845,22.8870719 69.7398098,22.8547865 69.8717855,22.8054207 C70.0625239,22.7340581 70.2749913,22.8308475 70.3463394,23.0215913 C70.3617944,23.062909 70.36971,23.1066647 70.36971,23.1507784 L70.36971,26.0127376 C70.3697484,26.1777917 70.2600713,26.3227442 70.1012334,26.3676149 C69.5611622,26.5201818 69.1382339,26.6136159 68.8324485,26.6479173 C68.3003169,26.7076091 67.7780474,26.7374545 67.2656243,26.7374545 C66.5166983,26.7374545 65.8269084,26.6578667 65.1962338,26.4986886 C64.5655593,26.3395105 64.0137274,26.0858243 63.5407215,25.7376222 C63.0677156,25.3894202 62.6981852,24.9367643 62.4321194,24.3796411 C62.1660536,23.8225178 62.0330227,23.1460211 62.0330227,22.3501307 L62.0330227,15.4557648 L59.5637288,15.4557648 C59.3600863,15.4557648 59.1950014,15.2906799 59.1950014,15.0870374 L59.1950014,12.2430032 C59.1950014,12.0393608 59.3600863,11.8742759 59.5637288,11.8742759 L62.0330227,11.8742759 L62.0330227,11.8742759 L62.0330227,7.94521666 C62.0330227,7.74157419 62.1981075,7.57648935 62.40175,7.57648935 L66.0987035,7.57648935 C66.302346,7.57648935 66.4674308,7.74157419 66.4674308,7.94521666 L66.4674308,11.8742759 L66.4674308,11.8742759 L70.0009827,11.8742759 C70.2046252,11.8742759 70.36971,12.0393608 70.36971,12.2430032 L70.36971,15.0870374 C70.36971,15.2906799 70.2046252,15.4557648 70.0009827,15.4557648 Z M81.5913711,17.4852751 C81.6110797,16.7291792 81.3647262,16.082528 80.8523031,15.545302 C80.3398801,15.008076 79.6796525,14.739467 78.8716008,14.739467 C78.3788863,14.739467 77.9453041,14.8190548 77.5708411,14.9782329 C77.1963781,15.137411 76.8761185,15.3413548 76.6100526,15.5900706 C76.3439868,15.8387863 76.1370498,16.1272923 75.9892355,16.4555971 C75.8414211,16.7839018 75.7576609,17.1271244 75.7379524,17.4852751 L81.5913711,17.4852751 Z M88.2152224,11.8742759 L91.912176,11.8742759 C92.1158184,11.8742759 92.2809033,12.0393608 92.2809033,12.2430032 L92.2809033,14.2022437 L92.2809033,14.2022437 L92.3400287,14.2022437 C92.8130346,13.306867 93.3747207,12.6353445 94.0251038,12.1876562 C94.6754869,11.7399679 95.4933807,11.5161271 96.4788097,11.5161271 C96.7350212,11.5161271 96.9912289,11.5260755 97.2474404,11.5459728 C97.356575,11.5544481 97.4925281,11.5737537 97.6552998,11.6038895 C97.8301126,11.6362093 97.9569457,11.78868 97.9569457,11.9664553 L97.9569457,15.2749472 C97.9569237,15.4785775 97.7918487,15.6436525 97.5882184,15.6436525 C97.5581738,15.6436525 97.5282418,15.6399802 97.4990882,15.6327173 C97.3039575,15.5841049 97.1461681,15.5499922 97.02572,15.5303791 C96.720237,15.480636 96.3999774,15.4557648 96.0649316,15.4557648 C95.2174627,15.4557648 94.547381,15.5751465 94.0546665,15.8139136 C93.5619521,16.0526808 93.1825676,16.3859549 92.9165018,16.8137459 C92.6504359,17.241537 92.4779885,17.7538838 92.3991542,18.3508016 C92.3203198,18.9477193 92.2809033,19.6043191 92.2809033,20.3206204 L92.2809033,26.0105783 C92.2809033,26.2142208 92.1158184,26.3793057 91.912176,26.3793057 L88.2152224,26.3793057 C88.0115799,26.3793057 87.8464951,26.2142208 87.8464951,26.0105783 L87.8464951,12.2430032 C87.8464951,12.0393608 88.0115799,11.8742759 88.2152224,11.8742759 Z" transform="translate(38)"/>
  </g>
</svg>
