<svg height="200" viewBox="0 0 200 200" width="200" xmlns="http://www.w3.org/2000/svg"><path d="m92.1329887 83.4399425c-7.9377791 0-15.8755582-.0087392-23.8133373.0171966-.6010351.0019734-.7947083-.0865468-.7927349-.73156.0225529-7.6558678-.0665311-15.313145.044542-22.9676032.0623024-4.3149358 2.0565436-7.658123 5.9770854-9.627556 1.1059384-.5553655 2.4016032-.751012 3.6265082-1.0433541.4924992-.1175571 1.0284127-.066813 1.5445925-.0670949 14.1849356-.0031011 28.3698714.0053563 42.5548064-.0098669 3.453415-.0036649 6.292263 1.285234 8.53966 3.8819199 1.634241 1.8882425 2.302653 4.1641132 2.461087 6.5989819.079217 1.2158838.011558 2.4413527.010431 3.6625928-.000282.563259-.221019.875053-.845171.8299472-.467127-.0335475-.938765.0056382-1.408429.0056382-15.218141.0005638-30.4362818.0002819-45.6547046.0005638-1.8800671 0-1.8592057.0005638-1.7954937 1.8377804.0439782 1.2666279.0332655 2.5360749.0205795 3.8038304-.0059201.5844024.2150984.8756168.8234632.8440427.3746603-.0197337.7512939-.0005638 1.1270818-.0005638 15.3120173.0014096 30.6240348.0016915 45.9363338.0050744 1.818893.0002819 1.810435.0073297 1.809026 1.7560261-.005357 7.1864853-.004229 14.3726886-.007612 21.5591739-.001691 3.4145108-1.180081 6.3193261-3.789171 8.5748991-1.712048 1.480035-3.686837 2.391172-5.97483 2.481384-2.015949.079499-4.034152.137009-6.05151.139264-11.507623.012686-23.0152463.012404-34.5228694-.000564-1.6883674-.001973-3.3880112.009905-5.0628468-.169147-3.102153-.332937-5.5265909-1.911077-7.3629618-4.406557-1.355148-1.8414448-1.8490568-3.9729769-1.9761988-6.202896-.0611748-1.0769015-.0310103-2.160287-.0090212-3.2400076.0208614-1.0177002.0400314-1.0233384 1.0177001-1.0408169.7512939-.0132499 1.5028697-.0118403 2.2544454-.0118403 14.7484765-.0005638 29.4969535-.0005638 44.2454295-.0005638.328709 0 .657699.0056382.986408-.0011277 1.084231-.0225529 1.098045-.0239624 1.107066-1.0921247.012404-1.4557904.013814-2.9121447-.004511-4.3679351-.012404-.9731582-.040031-.9844346-1.060268-1.0199555-.328427-.0115583-.6577-.0022553-.986408-.0022553-7.65615 0-15.3120176 0-22.9681673 0zm-2.9493006-51.7407768c-.2184813-5.94974 5.0560809-10.9215294 11.1290159-10.6914897 5.652606.2139708 10.447918 4.9320399 10.315138 10.9860871-.120094 5.4834585-4.683394 10.5553264-10.8876998 10.4205728-6.2240398-.1353175-10.7278562-5.0989314-10.5564541-10.7151702m-14.2872808 100.5417283c0 .402043.0123172.804604-.0048235 1.205871-.009647.225561.0683041.374785.2401411.514263.3279977.266275.6804573.482003 1.0982064.553337.9592725.163629 1.7864157-.118603 2.2342254-1.025593.0882872-.178725.1555577-.371164.2070658-.564034.2558175-.959348.2481515-1.92991.0951779-2.902887-.0583988-.371249-.1975049-.713603-.3826927-1.043707-.5041413-.898106-1.8681566-1.006445-2.538364-.369352-.543246.516419-.7764965 1.166192-.8660756 1.873067-.0737306.581112-.0777789 1.171109-.1127492 1.757224.0099915.000604.0198969.001207.0298884.001811zm-1.5586778-4.750939c0-.100576.0004307-.201238-.0004794-.301813-.001071-.116878.0449245-.199685.1705937-.200978.4017282-.004227.8034564-.003364 1.2051846-.003537.144188 0 .1475472.099023.148667.207275.0028424.272917.0105944.545661.0186049.818491.0007752.027171.0161931.053997.0248927.080995.0318695-.01751.0745057-.027084.0938858-.053738.2366097-.32536.4956141-.620618.8494519-.832378 1.0878703-.650894 2.7884105-.550922 3.7265802.564378.4335116.515299.6819215 1.123582.8142231 1.778185.260038 1.286434.2511663 2.573903-.1111988 3.836099-.2468595.859636-.697684 1.616798-1.5070836 2.068094-.3312707.184762-.7122407.333555-1.0852002.379099-.8423027.102732-1.6910655.117309-2.4412911-.401267-.0468568-.032433-.1005182-.055894-.1532321-.078321-.1200706-.05115-.1977633-.020012-.198883.120759-.0021534.258598.0014642.517283.0018088.775967.001292.847991.0036176 1.695981.002584 2.543972-.0005168.432665-.0032731.433527-.414476.436546-.2440172.001725-.4880343.002243-.7319653-.000172-.408016-.004055-.4105139-.005176-.4119781-.397386-.0022395-.589306-.0005168-1.178613-.0005168-1.767919 0-1.322318 0-2.644635-.0000862-3.966866-.0000861-1.868495-.0000861-3.73699-.0000861-5.605485zm-3.0263638-3.64235c.1854461.0477.2700295.098246.2622775.30026-.0131785.344337-.0028424.689623.0001722 1.034478.0015504.176309-.0672705.228581-.2405718.170444-.6266236-.210295-1.2695265-.348737-1.9273306-.415845-.4728747-.048303-.9498839-.072628-1.4097524.056844-.2983676.084014-.6068128.194595-.8590988.368403-.837307.576971-.9139661 2.092331.1378141 2.69104.5912226.336574 1.2274932.547903 1.8417997.819785.5493616.243158 1.1121601.469496 1.6265513.774931.8614245.511503 1.3568662 1.274186 1.4601407 2.301073.070802.703683.0078382 1.368465-.2562481 2.023068-.2174018.539019-.5939789.933989-1.0555701 1.264007-.6163737.440514-1.3266333.616047-2.0595461.672976-1.2417914.096521-2.4606713-.047269-3.6379485-.476828-.0539198-.019666-.1083563-.038039-.1616732-.059258-.4420388-.175792-.4432447-.176395-.3025881-.619928.0649449-.204601.1256692-.411445.2068073-.609663.1256693-.307074.1277365-.288098.4351481-.200979.6195607.175533 1.237657.369266 1.8692764.484936.6367013.11662 1.2869256.09126 1.9197509-.0841 1.1413594-.316304 1.7192312-1.598339 1.1737457-2.654295-.2298051-.444999-.6267959-.745949-1.0834775-.945289-.7355829-.320961-1.4827078-.615356-2.2172571-.93856-.7605617-.334763-1.4188826-.788129-1.8177684-1.56168-.2322168-.45026-.3061196-.926484-.3176615-1.412197-.0136953-.580767.1211041-1.136519.4072407-1.652076.3971631-.71576 1.0110389-1.151443 1.7667772-1.418235.5909642-.208569 1.1984661-.28068 1.8398186-.247471.8077631-.038125 1.6045872.129558 2.3991718.334159zm27.1532596-.460724c.0001723-.376942.0029286-.379702.3778691-.38436.3156805-.003882.6317056.005089.9472999-.002329.1794168-.004313.2698573.063571.2653784.248075-.0028425.11498.0005168.230047.0005168.345027.000689 2.069905.0000861 4.13981.0046512 6.209715.0002584.134474.0406552.268862.062447.403337.1089593-.087206.2317862-.161818.3247246-.263687.7915697-.868089 1.5839147-1.73566 2.3617897-2.615997.226273-.25601.467276-.383412.816721-.354257.356336.029759.71715.003364 1.075984.007936.077865.000948.155385.029327.233078.045112-.04143.073232-.070802.157591-.126272.217885-.241606.262393-.494667.514177-.736617.776311-.748503.810901-1.49425 1.624302-2.240169 2.437618-.268909.293187-.26555.292324.017658.579646.877876.890515 1.650755 1.868064 2.364201 2.892881.335233.481572.650828.976859.970212 1.469299.051508.079442.076573.176136.113783.264895-.092077.015871-.184155.044853-.276404.045284-.40147.001726-.803887-.023116-1.204065-.001984-.274767.014492-.434028-.082806-.596304-.305607-.724386-.994887-1.465395-1.977956-2.216913-2.952658-.2354035-.305435-.5217985-.571537-.785971-.854632-.0278212-.029759-.0629638-.052703-.0946611-.078753-.0289409.047096-.0822578.093934-.0826885.141289-.002584.242554.0134369.485281.0139537.727921.0021534.963058.0010336 1.926201.0007752 2.889259-.0000861.071852-.0011197.14379-.0043928.215555-.0061155.137666-.0751948.208569-.2167989.209432-.4019004.002329-.8038009.013456-1.2053568.003795-.0547811-.001293-.1383309-.093416-.1537489-.156901-.0265292-.10877-.010939-.228235-.010939-.343129-.0002584-1.954925-.0001722-3.909936-.0001722-5.864861 0-1.983734-.0005168-3.967382.0004306-5.951117zm12.6499937 9.26614c0-.301813.004048-.603712-.00112-.905525-.005254-.308454-.01559-.334676-.308876-.322686-.54316.022254-1.090799.034589-1.626637.11636-1.171076.178552-1.537661 1.031287-1.377539 2.035402.089235.559376.440919.919412 1.022237 1.012483.112921.018114.227048.034675.34109.038729.680457.024325 1.250232-.255665 1.77806-.652188.14238-.106958.176919-.250834.175197-.417051-.003101-.301813-.000862-.603712-.000862-.905524zm1.545585-.25325c0 .977031.002326 1.954062-.001206 2.931179-.001292.35995-.009991.365039-.356766.369352-.286826.003536-.573824-.002416-.860735.001552-.189236.002502-.308101-.056412-.28407-.273434.006288-.056412.007236-.115153-.000947-.171133-.017485-.118517-.067098-.192008-.197591-.108511-.060122.03847-.119296.078493-.177953.119293-.906472.630796-1.902007.750952-2.953873.498047-.765299-.184072-1.252558-.695489-1.467807-1.429103-.290529-.990574-.243759-1.961653.368481-2.843198.242294-.348995.580197-.591635.958928-.77519.724385-.351065 1.49847-.470962 2.294777-.482348.286826-.00414.573738-.014491.860477-.012335.202587.001553.290788-.089879.272528-.28896-.024893-.270588-.034971-.543677-.079244-.811073-.084152-.508312-.415509-.80745-.890537-.941838-.619475-.175102-1.253506-.137752-1.877201-.035797-.393287.064261-.774085.203825-1.161256.306643-.210598.055981-.261416.02536-.268566-.190972-.00913-.272658.00112-.54592.001723-.818923.000431-.185366.087943-.261962.27313-.315527.99054-.286287 1.999253-.379616 3.021748-.300174.546174.042525 1.082874.178207 1.539814.49106.384243.26317.684333.628467.791312 1.093305.096039.416793.17132.846525.18424 1.27272.027476.904316.008355 1.810099.008355 2.715365zm-24.457081.270311c0-.329673-.0046512-.659519.001895-.989021.0035314-.178034-.0621025-.27352-.2479793-.26015-.5977688.043042-1.2025145.044508-1.7909808.143531-.520679.087637-.9806337.355033-1.1717646.897244-.1608119.456298-.1662383.937956-.0043067 1.392702.1351439.379617.4154234.629848.835412.716795.8177546.169235 1.5206928-.081858 2.1695389-.5542.1465137-.1067.2173157-.250404.2081855-.444137-.0140398-.30026-.0037037-.601727-.0037037-.902764zm1.5461884 2.63713c-.0007752.389708-.0037899.390743-.407413.393331-.2725275.001725-.5450549-.002501-.8174962.000345-.1509065.001639-.2501326-.042869-.2447062-.217194.0027563-.085826-.0014643-.1726-.0111974-.257908-.0124894-.109719-.0764869-.153106-.1775218-.099972-.0754533.039764-.1410011.097815-.2129229.144739-.9984633.650808-2.0598905.828583-3.1927227.408167-.706039-.262048-1.0961391-.815989-1.2761588-1.513635-.1480641-.573866-.1478057-1.161879-.0038761-1.745579.2205888-.894311.7901057-1.470592 1.6235366-1.809495.6876925-.279645 1.4100108-.366678 2.145766-.377202.2717523-.003881.544452-.004571.8143093-.031397.074678-.007418.1974187-.100058.2012086-.159661.0271322-.429732.0576235-.868952-.1617593-1.264094-.2627082-.473291-.7140495-.651153-1.2187938-.688243-.8069017-.059259-1.6012279.020529-2.3718673.288701-.4612466.160438-.4634861.154572-.4652088-.326999-.0007752-.201065.0036176-.402302-.0015504-.603194-.0043067-.166735.0620164-.27447.2266181-.316822 1.3062196-.336143 2.6164874-.506586 3.9432929-.109115.8362734.250404 1.3256858.823667 1.5123379 1.658374.0651171.291289.0887178.596639.0925077.896036.0114558.919153.0041344 1.838478.0041344 2.757631 0 .991091.001292 1.982095-.0005168 2.973186zm44.1239586-4.631862c.500782 0 1.001564.003019 1.502346-.001208.291219-.002415.334114-.028809.335578-.30854.003014-.560497-.02696-1.126169-.316456-1.623181-.12498-.214607-.305344-.439047-.517406-.55282-.686831-.36823-1.772203-.274728-2.278584.464665-.367878.537122-.501041 1.14299-.564521 1.774045-.018691.185883.065548.251093.250994.247988.529206-.008885 1.058671-.003105 1.588049-.003105zm-1.422759 1.19552c-.336266-.001898-.434803-.037953-.3609.396695.070716.415758.1789.809606.361159 1.186807.304569.630451.821372.970993 1.491666 1.107193.644539.131024 1.282274.059 1.918631-.059949.14057-.026308.281313-.0546.419213-.092036.181742-.049252.270719.034848.310254.199167.063739.264723.126875.529617.187772.79503.035142.153019-.019294.250576-.181226.278264-.422917.072542-.843078.178293-1.269009.213054-.887782.072456-1.776597.092381-2.62536-.261875-.770122-.321479-1.344118-.85377-1.72526-1.596097-.696909-1.357596-.695186-2.787734-.426277-4.240902.10517-.568002.32128-1.09943.650828-1.576258.618096-.894569 1.46393-1.387786 2.559725-1.433674.475372-.019839.944285.004313 1.40424.139304.873397.256269 1.442052.834104 1.797354 1.658719.27804.645632.365983 1.32525.397336 2.014701.014987.327517-.035057.657449-.032387.986174.001895.235136-.106375.305435-.316886.287753-.071233-.006038-.143327-.000777-.215076-.000777-.71715 0-1.434301 0-2.151451 0-.731449 0-1.462897.002933-2.194346-.001293zm-4.676136-4.812398c.225154.056412.313441.161645.305086.384792-.009561.258253.003014.517368-.00646.775621-.008097.220128-.046943.238328-.264603.198736-.534461-.097212-1.066682-.224872-1.605707-.271882-.422831-.036831-.859013-.002932-1.280983.057361-.442641.063226-.743421.420847-.798719.847215-.056676.43689.101294.791665.522574.990142.464606.21892.950918.395056 1.436368.565499.541523.190197 1.081066.375476 1.562295.702131.474426.32191.783991.74914.890797 1.314295.108442.574126.090612 1.142213-.126962 1.691755-.292855.739825-.872966 1.161276-1.605448 1.376745-.880633.258943-1.781592.252215-2.684447.125418-.512324-.072025-1.016293-.174498-1.490288-.391779-.26288-.1205-.279073-.14793-.195437-.423952.070715-.233238.154696-.462423.230752-.694022.055643-.169322.149442-.211675.327567-.152847.366672.121018.737478.236516 1.114313.318546.637219.138701 1.282016.144308 1.922594.011903.639199-.132231.949711-.482434.965991-1.078555.009991-.368489-.099485-.696437-.442901-.869986-.407499-.205895-.830157-.384102-1.254539-.553596-.584073-.233325-1.185287-.412567-1.734391-.741723-1.353593-.811245-1.162806-2.798171-.358402-3.581556.533771-.519783 1.173573-.746639 1.883833-.832809.183637-.022341.37227-.003364.558664-.003364.718097-.006901 1.428271.060466 2.128453.235912zm-7.729418-.012706c.364088.09471.36426.104112.368136.460353.002843.258512-.00112.517024-.004565.775535-.001636.128782-.072008.181312-.195524.153796-.083636-.018631-.164429-.049856-.247462-.071248-.824387-.212796-1.656612-.329415-2.507528-.195285-.413357.065123-.792087.20762-.931882.646149-.209478.657277.011628 1.000493.509654 1.250638.432736.217367.903113.358656 1.354454.539709.437129.175446.876154.347529 1.305358.541089.643765.290427 1.050661.794684 1.174521 1.486723.176402.984708.038244 1.895062-.791828 2.572954-.493116.402647-1.084683.567225-1.705536.640285-1.009402.118862-2.009847.051495-2.972737-.266275-.826712-.27283-.775807-.172772-.4957-.947531.062533-.173031.095867-.450347.208099-.48899.15418-.053134.37451.064693.559956.128178.885801.303624 1.786588.395142 2.708737.207188.664178-.135337.986318-.561186.940151-1.221741-.021792-.310352-.15194-.569985-.416285-.712913-.362796-.196062-.747297-.354084-1.129731-.510727-.502936-.205895-1.01638-.386085-1.519229-.592153-1.796063-.736202-1.641194-3.207028-.409566-4.053984.508792-.349858 1.078568-.514091 1.684261-.570761.14212-.013284.286567-.001984.429894-.001984.702593.002501 1.401655.05322 2.084352.230995zm-27.618029.282423c.0005168-.343993.0058571-.345632.3579722-.348564.2867395-.002415.5735652.004485.8601324-.001898.1789-.003968.2614162.066073.263225.250835.0026702.2862.0211889.572141.0298023.858255.0017227.056844-.0230838.116102-.0140398.170616.0110251.066849.0447035.129903.0686487.194596.0464261-.042784.09914-.080564.1383309-.129386.2140426-.266619.4012975-.559461.6414387-.799428.5273974-.527029 1.1936426-.634332 1.9074336-.561704.1686501.017165.2145594.108166.2135258.25808-.0024979.358829-.0023256.717657.0010336 1.076485.0016366.169409-.083033.212278-.2412608.219179-.3263611.014232-.6646087.004485-.9752073.088844-.847643.229961-1.3453243.838417-1.5894276 1.654493-.0848418.283612-.1105097.593533-.1131798.891809-.0119726 1.349402-.0059433 2.698976-.0067185 4.048464-.0000861.114808.0012059.229874-.0049957.344423-.0064601.120501-.0689071.1726-.1960406.169236-.3580584-.009402-.7167196-.018027-1.0746918-.008625-.2092191.00552-.273475-.077977-.2702019-.278782.0090441-.545402.0028424-1.090977.0027563-1.636551 0-.818319 0-1.636637.0002584-2.454956.0002584-1.335169-.0011197-2.670252.0012059-4.005421zm-37.2241485 20.970635c.0386741-.946065.1059446-1.891181.1707172-2.835952.0341952-.500117.0854448-.999285.1394507-1.497677.0293716-.271105.0529723-.292497.3176616-.297068.4447089-.007591.8897625.003709 1.3344714-.003968.2083578-.003623.3058613.097039.3698587.283957.6782178 1.980629 1.3603116 3.959965 2.0439558 5.938696.2573679.745173.5188702 1.489052.7853683 2.230947.0349703.097297.1110265.179759.1680471.269121.0510774-.097039.1155055-.189334.151251-.291721.4584904-1.313432.9153442-2.627469 1.3675468-3.943058.4754588-1.382955.944802-2.768067 1.4181074-4.151713.1064615-.310956.1464276-.344424.4550451-.345459.4160264-.00138.8321389.002243 1.2479069.013543.2912185.007849.3012962.020529.3192981.327948.04634.787525.0856171 1.575567.1319571 2.363092.0436698.742844.1041358 1.484825.1366082 2.2281.048924 1.117888.0835498 2.236467.1176588 3.354959.0397077 1.305842.0733861 2.611943.1070644 3.917958.0074936.291203-.0181742.317942-.3085314.322686-.3299787.005348-.6601297.005435-.9901084-.000776-.2717522-.005175-.2763173-.01061-.281916-.298276-.0120588-.617599-.0146428-1.23537-.0285103-1.852883-.0278212-1.23468-.0538337-2.46936-.093283-3.703609-.0376404-1.176457-.0914741-2.352396-.1380725-3.528508-.0011197-.028723.0045651-.058827-.0022395-.085912-.0098192-.03916-.0280796-.076078-.0428085-.114031-.0430669.030621-.1098206.052099-.125497.093157-.1326461.348305-.2590044.699112-.381659 1.051212-.3678776 1.055697-.7331712 2.112257-1.0994122 3.168472-.4277406 1.233559-.8547921 2.467376-1.2836525 3.700504-.1310957.377028-.1335936.384447-.5440213.37677-.9222349-.017165-.7142217.153709-1.0101775-.69454-.8452313-2.422696-1.681677-4.84841-2.5217402-7.272917-.0093886-.027171-.0174852-.055722-.0325586-.079615-.0635668-.101524-.1295453-.201496-.1946625-.301985-.0260985.118086-.0714049.235567-.0751948.354343-.0449619 1.406331-.0882872 2.812749-.1227407 4.219425-.0361762 1.478614-.0621886 2.957488-.0930246 4.436188-.0018088.086085.0001723.173032-.0114558.257995-.0354871.26015-.0486656.273347-.3268778.277402-.3156805.004657-.6315333.005951-.9471277-.000432-.3205901-.006469-.3252413-.011386-.3274808-.35003-.0037899-.589048-.0010336-1.178182-.0010336-1.90317.06305-1.787673.1232575-3.710855.2018116-5.633175zm67.1536835-4.888269c0-.537552-.008805-.485453.495681-.488817.301382-.00207.602765.002932.904147.002501.14014-.000172.210683.051582.201295.20624-.0087.142669.010594.286718.010594.430249.000948 2.069646.000689 4.139379.000431 6.209111-.000086.114895-.012317.230565-.003015.344596.009906.121105.038674.240657.05926.360899.095609-.077804.202846-.145084.285189-.235136.841011-.92036 1.687793-1.835718 2.510199-2.772553.258229-.294136.526191-.44612.923871-.412912.370548.03088.745833.002502 1.118879.008799.060207.001035.119726.046751.179589.071852-.023773.048476-.038071.10575-.072956.144221-.269254.296896-.543418.58922-.814223.884736-.784334.856013-1.569014 1.711767-2.351023 2.570022-.241864.265326-.238935.269639.005771.513832 1.027491 1.02499 1.918545 2.160906 2.725619 3.364879.295353.440772.590189.881976.879685 1.326716.151079.232203.145566.24195-.111974.244452-.502332.00483-1.004923-.007591-1.506825.007245-.199055.005866-.317231-.072973-.426966-.224871-.620852-.859722-1.232833-1.726603-1.878492-2.567521-.400695-.521854-.854534-1.002908-1.287357-1.499833-.044789-.051409-.108959-.085912-.164085-.128264-.02851.076941-.081396.153709-.081654.230737-.001723.675304.009733 1.350609.00956 2.026-.000258.60328-.008268 1.20656-.016796 1.809841-.004823.339765-.008355.344682-.325327.34796-.344363.003622-.688985-.009747-1.033175-.002847-.166756.003364-.235404-.060466-.232389-.224699.003703-.201064-.003274-.402388-.003274-.603539-.000344-1.940347-.000239-3.880694-.000239-5.821042 0-2.040922.000153-4.081931 0-6.122854zm-49.0282399 9.564976c0-.343302.0043928-.686777-.0015504-1.029993-.0040483-.232375-.0528001-.299225-.2711493-.285337-.6255039.03985-1.256951.058913-1.8723773.165699-.5531514.096004-1.0167237.402388-1.2325751.957796-.1472027.378581-.1568497.778813-.0702852 1.182408.1217071.567829.4528917.924415 1.0204275 1.012742.8216306.127746 1.5553186-.093158 2.2002026-.616995.1416902-.115067.2130951-.24842.2036204-.441204-.015418-.31432-.0041344-.63002-.0041344-.945116zm1.5869297-.244193c0 1.034996.0015504 2.069991-.0008613 3.104987-.0007752.334504-.0054265.339507-.3213654.346235-.3156805.006642-.6317916-.005521-.9472137.004744-.1948347.006383-.3038802-.050719-.2849307-.264809.0063739-.071248.0057709-.144048-.0011198-.215297-.0196385-.202962-.0674428-.23065-.2313554-.114549-.5601283.396696-1.1717647.666334-1.8563564.741033-.7923451.086515-1.5367998-.022858-2.1957236-.53117-.3111154-.239966-.5235214-.554114-.6454008-.895259-.3798502-1.063374-.3638293-2.11519.2886345-3.087305.4211083-.627345 1.0507466-.956415 1.7617814-1.143075.7255052-.190455 1.4662562-.257563 2.2151037-.245832.1434128.002243.2916492.01751.4285158-.013628.0747642-.016993.1867382-.12007.1851016-.181657-.0084411-.313803-.0273044-.630538-.0823439-.939165-.0989678-.55558-.4559925-.865932-.9966546-1.001355-.4819188-.120846-.9691779-.150863-1.4516135-.071162-.5209374.085998-1.0353286.217712-1.5471358.350548-.3527181.091604-.3493589.107562-.3514261-.276712-.0013781-.244366.0055987-.48899-.0017226-.733097-.0059433-.20141.0639974-.291979.2764896-.35348.9915726-.287236 2.0026977-.377633 3.0244172-.313458.5719286.035883 1.1496282.149828 1.6400743.461388.5398868.342871.8922603.85584.984079 1.500093.0685625.481226.0988816.970475.1093038 1.456964.0172268.804689.0046512 1.609983.0046512 2.415018zm33.2119132.272865c0-.315269-.004393-.630537.001206-.945634.005943-.337091-.062964-.41593-.390445-.402733-.357627.014405-.718011.013543-1.071591.061329-.351856.047527-.704574.122485-1.042391.230823-.348239.111789-.639113.339076-.796394.677202-.225326.484332-.259004 1.001097-.100001 1.509581.148581.475534.487862.779848.987094.847473.802595.10877 1.534043-.080305 2.173673-.591721.142207-.113687.222484-.245315.214473-.439479-.013092-.315096-.003531-.631141-.003531-.946841zm1.590289-.351238c0 1.048366.001714 2.096731-.000861 3.14501-.000862.382463-.005427.384619-.379937.388156-.315508.003019-.631102-.004227-.946438.002243-.166927.00345-.226618-.067626-.22748-.230565-.000689-.155435-.027993-.310783-.043583-.466132-.132043.080478-.264776.159748-.395871.241778-1.016983.635885-2.088574.824098-3.239494.409461-.67193-.242036-1.080635-.738962-1.305444-1.386578-.294319-.84825-.224723-1.706246.094489-2.528015.183809-.472946.546691-.830998.985371-1.103656.636443-.395488 1.338089-.572832 2.073586-.628467.499662-.037867 1.001478-.046752 1.50226-.070386.270029-.012766.285275-.029672.279849-.306729-.002757-.143445-.013782-.286632-.017658-.429991-.022567-.832723-.458921-1.332495-1.28882-1.449114-.600181-.084273-1.202515-.078321-1.794254.063744-.38855.093329-.771243.212191-1.153591.329156-.106547.032605-.167272.02648-.168219-.095228-.002842-.359001.000861-.718002-.003359-1.076916-.001809-.150864.100604-.195976.214128-.225044.291047-.074613.581059-.157678.876326-.210381.893466-.159316 1.792704-.203048 2.693147-.066073.470549.071594.91922.217799 1.303549.512539.697684.535137.923441 1.289194.936016 2.122435.015504 1.019383.003704 2.039197.003704 3.058753zm24.222608-1.767342c.559095 0 1.118189-.004916 1.677198.002588.203276.002674.295956-.075992.273561-.279127-.045479-.411704-.056332-.831947-.152026-1.231748-.063912-.26731-.212665-.535309-.387258-.75121-.598458-.739911-2.06058-.739998-2.706325.184934-.40035.573349-.543332 1.222777-.587777 1.905586-.013265.204084.112146.190886.249616.190196.544279-.003105 1.088645-.001293 1.633011-.001293 0-.006642 0-.013284 0-.019926zm.883905 1.2559c-.80337 0-1.606826-.001639-2.410197.000862-.309048.000949-.341176.010868-.305947.310525.118434 1.006962.425673 1.918955 1.452303 2.356622.282002.120242.606985.166303.916463.189679.632309.0477 1.257985-.034416 1.877718-.170443.390703-.08574.391048-.074871.474167.300863.052628.237983.111888.474585.168478.711705.037123.155608-.019553.248593-.1789.279645-.337128.065641-.670983.163974-1.011126.195027-1.057637.09678-2.115877.18088-3.130103-.276022-.761595-.34313-1.333782-.881027-1.718284-1.615332-.527742-1.007824-.666245-2.091469-.604229-3.214619.043929-.795115.182863-1.565216.522316-2.29055.560214-1.1969 1.479435-1.912314 2.806671-2.03937.629208-.060207 1.254625-.030449 1.862989.204688.834033.322341 1.361689.930452 1.682193 1.734797.324466.813919.392512 1.672175.370548 2.539746-.006116.241691-.025496.483038-.038846.724557-.252114.019408-.504056.05253-.756428.055636-.659785.007849-1.319828.002674-1.979786.002674zm-22.349136-4.604726c.000775-.47148.005081-.472429.458835-.475361.272527-.001726.545227-.004745.817668.001466.283725.006469.291735.010351.312924.283526.018863.243158.015332.487955.026013.731803.001808.040713.025409.080478.038932.120673.043756-.028809.09492-.050546.129976-.08755.155644-.164751.298884-.34175.460644-.499945.814912-.797013 2.627254-1.024904 3.733729-.287925.494494.329328.831105.795374.964871 1.373812.096126.415672.168306.847042.172182 1.272116.017485 1.924993.006891 3.850332.006288 5.775498 0 .08617-.004049.172427-.00112.258512.004307.124727-.04858.180449-.177177.179931-.444623-.001984-.889246.001553-1.333955.003709-.1466.000777-.1379-.083496-.137297-.199857.009044-1.881865.019896-3.763816.007235-5.645595-.002326-.352445-.066409-.716104-.170287-1.053455-.155557-.505292-.526019-.783125-1.056087-.893707-.906731-.189161-1.683055.250318-2.146196.931229-.341866.502619-.476407 1.067687-.475373 1.671571.00267 1.551674.006805 3.103348-.000861 4.654936-.002929.595344.076745.52125-.528776.533326-.286739.005779-.574168-.00992-.860563.002242-.188289.007936-.248582-.061414-.245137-.246349.009303-.4883.002756-.976859.00267-1.465331-.000086-.948221 0-1.896442 0-2.844664 0-1.364841-.001464-2.729769.000862-4.094611zm-30.0621891.113859c0-.11498.0073214-.23022.0015505-.344855-.009647-.190972.0864783-.247988.2631388-.244365.3585751.007331.717581.007676 1.0762422.00069.1873411-.003709.2395382.073059.2447062.25739.0080966.291289.0557286.581457.0865645.872056.1996583-.202962.3846737-.423348.6016449-.605609.6856253-.57585 1.4937329-.759836 2.3690249-.68876 1.3007069.10575 2.1369803.825391 2.3685942 2.09466.0665814.365298.1060307.740688.1082702 1.111678.0111974 1.882728.0068046 3.765456.0062016 5.648183-.0002584.519784.0249789.422141-.4410052.432664-.3155082.007074-.6317055-.012248-.9468692-.000948-.1967296.006986-.2501326-.081513-.2446201-.256873.0058571-.186487-.0027562-.373492-.0028424-.560325-.0003445-1.652767.0030147-3.305533-.0023256-4.9583-.0013781-.445689-.0415165-.885427-.2453091-1.298942-.1635682-.332002-.4175769-.551612-.758753-.653827-.8127588-.243589-1.5244826-.061415-2.1225098.549888-.5234353.535051-.7187007 1.197244-.7218877 1.921888-.0074936 1.681404-.0049957 3.362981.0067185 5.044299.001292.178638-.0368653.221852-.2056015.217281-.3871716-.010351-.7748599.000776-1.1622038-.005348-.268393-.004227-.2738194-.010523-.2756282-.2975-.0043067-.661072-.0028425-1.322145-.003187-1.983303-.0003445-.747329-.0000861-1.494658-.0000861-2.241987 0-1.33655-.000093-2.673186.0001722-4.009735zm57.5142121-.054264c.000086-.114894.005254-.229788.005513-.344683.000258-.122053.056848-.187004.180881-.187177.387257-.000259.774515.001725 1.161773-.001035.174507-.001294.213181.095228.211803.24842-.002326.243934.003015.488386.018346.731803.006719.106699.067529.159057.163396.060638.109563-.112392.21723-.226596.323002-.342526.338765-.37099.76306-.614321 1.237571-.741205.918187-.245573 1.823626-.212623 2.65275.305522.548414.342785.847901.885599 1.011297 1.494658.0733.273348.099312.566621.100604.851096.008786 2.011078.005685 4.022156.006116 6.033234.000086.08617-.008011.172686-.002412.258339.009561.143876-.053747.216418-.196127.217109-.41594.002328-.831794.002328-1.247734.004744-.130493.000776-.17468-.07306-.174852-.190369-.000172-.114894-.001723-.229875-.001723-.344769-.000344-1.75248.001551-3.505046-.003014-5.257526-.000603-.242985-.013007-.489248-.053403-.728352-.187255-1.107969-.99898-1.450581-1.962301-1.269097-1.016207.191404-1.75024 1.139884-1.792273 2.24423-.013092.344251-.00267.689451-.002842 1.03422-.000345 1.393392.000516 2.786785-.001895 4.180178-.000517.321048-.005599.325533-.332305.330967-.34419.005693-.688984-.009316-1.032658.005779-.213957.009316-.273561-.079701-.270374-.277057.007493-.45949.000861-.919239.000689-1.378901-.000345-.962454-.000086-1.924907-.000086-2.887361 0-1.350264-.000173-2.700615.000258-4.050879zm-46.0341744 8.306075c-.0000862.241864-.0213612.274986-.2612439.281369-.3582306.009489-.7170642-.001552-1.0754671.004313-.1771772.002933-.2714077-.060207-.2619329-.248937.0057709-.114549.0008613-.229702.0009474-.344596.0003446-2.197393.0010336-4.394785.0008614-6.592178 0-.572917-.001292-.572831-.5625401-.576627-.0859615-.000603-.1720954-.006728-.2580569-.00414-.176316.005348-.2573679-.050029-.2397105-.252905.0197247-.227028-.0169684-.458196-.0142982-.687467.0046512-.41524.0092163-.415413.4410052-.420588.0716634-.000863.1434128.001898.2150762.001811.3952681-.000431.3888942-.000603.3918228-.412997.0039621-.544626-.0137814-1.092098.0358317-1.633101.1365221-1.490776 1.0349841-2.170825 2.3524872-2.256392.523263-.033899 1.054881.060552 1.582623.09747.197591.013801.3161111.089966.3010377.320444-.0167099.257477.0027563.517024-.0080966.775104-.010336.245487-.0351426.254889-.2917352.234791-.356508-.027947-.713102-.060207-1.0702129-.07211-.7789944-.025964-1.1756407.4293-1.2409301 1.136778-.0486656.526857-.0145566 1.061132-.0291132 1.591784-.0051681.185883.0975896.219782.240744.220041.3872577.00069.7744293-.001898 1.1616009-.002933.0860477-.000259.1726122.006211.2580569-.000949.1922507-.01613.2969033.045544.2892374.2611-.0101638.286804-.00646.57447-.0000861.861533.0041344.184503-.073989.249972-.2573679.246263-.4300662-.008712-.8603908-.001121-1.2906293-.00069-.0573652.000086-.1157639.003795-.171837-.005262-.1979356-.031915-.2357483.066677-.2333366.242641.0104222.746639.0104222 1.493364.0127478 2.240089.0013782.459577.0002584.919153.0002584 1.378729-.0058571 0-.0118003 0-.0176574 0 0 1.205871.0001723 2.411741-.0000861 3.617612zm6.0584039-8.186351c.5122379-.553165 1.1789995-.736374 1.9118265-.708772.326103.012248.36581.058741.372443.385999.006718.33045.006374.661245.000947.991695-.004565.283095-.009733.283009-.28338.28206-.129201-.000518-.258315-.000949-.387516-.001725-1.0077661-.005866-1.7717732.633297-2.1340521 1.524416-.1584862.389881-.2258429.796668-.2237756 1.220276.0073213 1.523381.001981 3.046849.0096469 4.570231.0006891.139132-.0016365.213313-.1700281.209173-.4158542-.010351-.8323113-.011127-1.2482515-.003968-.1659799.002847-.2331643-.054514-.2254123-.222801.0086996-.186315-.001292-.373492-.001292-.560325-.0002618-2.615824-.0000861-5.231562-.0002618-7.847387-.0000827-.561273.001037-.487178.489502-.492871.2726136-.003192.5456578.009229.8179269-.00138.198883-.007677.2801933.056584.277437.268431-.0048235.372888.0183465.746208.0314389 1.119269.0024117.068746.0127478.137148.0198108.209172.2515107-.32191.4751142-.652274.7429904-.941493zm-20.4649281 3.911687c0 1.350868.0000724 2.701822-.000186 4.05269-.0000861.100576-.0043067.201151-.0039622.301727.0004307.117999-.0454786.195113-.1728706.196061-.4304107.003192-.8609937.010093-1.29106-.000431-.0565899-.00138-.1437573-.087378-.159003-.14862-.027046-.108511-.0108529-.22815-.0108529-.343044-.0002584-2.256306-.0002584-4.512612-.0004306-6.768831 0-.114981-.0081828-.230392.0000861-.344769.0147289-.205291-.0914741-.280162-.2791598-.296637-.2140425-.01889-.4265347-.054859-.6403189-.077631-.1423792-.015095-.1977632-.094883-.1969019-.229875.001292-.215555.0055987-.431284-.0008613-.646667-.0056849-.186487.0846695-.256442.2607271-.255752.3586612.001553.7174087-.003622 1.0760699-.004485.3731318-.000863.7463497-.005089 1.1193092.001725.2799349.005089.2916491.014233.2945777.296292.00646.617944.0026701 1.235888.0027563 1.853832.0001722.804862.0000861 1.609639.0000861 2.414415zm-.9916209-6.390924c-.5853655-.016992-1.0472151-.480191-1.0830468-1.043276-.0342812-.538156.4922549-1.138417 1.0536752-1.117112.6209388.023548 1.0700406.451641 1.0766729 1.090373.0629638.565327-.5728761 1.083817-1.0473013 1.070015zm57.5171305 22.661571c0-.474068-.008958-.948308.004134-1.421944.005771-.207275-.049785-.360467-.223259-.476828-.106547-.07142-.196815-.166734-.301812-.240915-.984682-.695403-2.576952-.62519-3.219597.891723-.336266.793735-.362882 1.616712-.341865 2.451333.013781.547472.098192 1.085542.305 1.596786.565124 1.397274 2.209505 1.415819 2.981953.623551.411203-.421796.658493-.947532.71827-1.532008.06417-.627087.071749-1.259953.10405-1.890318-.008958-.000431-.017916-.000949-.026874-.00138zm1.631891 5.990795c-.072094.273779-.141259.548421-.216798.821251-.316112 1.141954-1.079085 1.81424-2.202529 2.122867-.833861.229012-1.67625.178896-2.518208.102473-.440833-.04011-.876584-.133612-1.315608-.196234-.14393-.020443-.19673-.079616-.168134-.228236.059347-.309317.108357-.620704.158831-.93166.025496-.15716.083636-.217022.261933-.166907.695703.195458 1.411045.254544 2.128884.216418.339023-.017941.688037-.073145 1.007766-.183468.780372-.269207 1.132229-.898192 1.21242-1.673296.052972-.51202.017915-1.033357.018518-1.550466.000086-.053997-.025754-.107994-.039535-.161991-.047201.027171-.102758.045975-.139968.083152-.160639.160524-.309134.333814-.474683.488904-.278729.261013-.614737.421968-.986491.495545-.80561.159316-1.594509.133094-2.347922-.240484-.736272-.364953-1.220603-.975478-1.474783-1.722204-.55186-1.621369-.576408-3.268875-.009475-4.897231.238246-.684189.624642-1.28307 1.214056-1.736867.738167-.56826 1.569186-.731199 2.47273-.615356.581317.074439 1.101738.28758 1.547653.676426.057537.050115.142982.068143.215593.101093.024548-.077545.064945-.153883.070974-.232894.030405-.394711.027218-.39635.422745-.399628.387258-.003191.774688-.003105 1.162031-.004485zm-72.41943-13.224638c.2009502 0 .4020727-.005002.6028507.001122.3156805.009661.3396257.033899.4006946.326999.2658951 1.278327.5003514 2.564157.8069879 3.832564.4179213 1.7285.8904515 3.443803 1.3433432 5.163678.0153318.057965.0715772.105147.1087009.157332.0327308-.057964.0801044-.11222.0957808-.174411.2870841-1.139107.5716702-2.278819.8541892-3.419134.4342868-1.752739.8661618-3.506167 1.3000179-5.259079.0790709-.319495.0812242-.323808.3938039-.327258.3875161-.004399.775549.011645 1.1624622-.003191.2165404-.008281.3031049.081944.3513399.281197.2260152.933902.4640891 1.864872.6955307 2.797481.4663285 1.879623.9303315 3.759849 1.3978659 5.639212.0442728.178207.1066337.352015.1605535.527892.0826885-.174239.1899251-.341059.2442755-.523751.5765799-1.938622 1.0901098-3.894151 1.5057917-5.873831.1974187-.940286.3528903-1.889456.5265361-2.834744.0543504-.295775.0528862-.300347.3531487-.309921.3870854-.012335.7745154-.018114 1.1617731-.024251.1755408-.002575.2540087.04823.2080994.258438-.1469444.672545-.2464289 1.35613-.4074131 2.024965-.4294633 1.784654-.8561703 3.570602-1.3319735 5.343093-.4201609 1.564958-.9132771 3.109558-1.4849473 4.627937-.0883733.234791-.2068935.307247-.4422111.292928-.3003487-.0182-.6026784-.009919-.9039745-.002673-.2037927.00483-.3001764-.067108-.3485837-.28275-.1793306-.798221-.3889803-1.589455-.5787332-2.385347-.2492713-1.045777-.4869145-2.094315-.7363581-3.140007-.2894958-1.213806-.5863991-2.425887-.8799432-3.638744-.0202415-.083583-.0319557-.170098-.0614134-.250145-.0121449-.03295-.0608105-.052444-.0929384-.078062-.0153319.022341-.0376405.042611-.0448758.067367-.0280796.096262-.0528.193646-.0762284.291116-.6837304 2.845354-1.3677191 5.690622-2.0498129 8.536321-.053403.22306-.1000014.44819-.1372974.674355-.0229977.139478-.0950056.200806-.2295466.200806-.3875161.000087-.7751184-.005175-1.1625483.001812-.1555577.002846-.2341118-.062881-.2807102-.205982-.133249-.409374-.2808824-.814178-.4117197-1.224329-.789072-2.473069-1.4644474-4.978226-2.0853001-7.49796-.2608132-1.058372-.4870007-2.125455-.7186145-3.190727-.0874259-.402043-.0743335-.404544.3177477-.401525.1578833.001207.3157666.000172.4736499.000172zm41.059773 8.657106c0 .430335-.010508.861016.005771 1.290747.005685.14888.042637.320531.126359.438099.227135.318546.523866.580508.891054.719209.97693.369007 2.251883.233756 2.779194-1.161879.070544-.186833.134283-.37815.178814-.572573.147978-.646236.177953-1.303168.159951-1.964068-.014987-.550405-.122224-1.081919-.32929-1.589972-.616029-1.511478-2.489957-1.413318-3.18609-.433354-.291477.41041-.466846.861533-.523436 1.346124-.074591.6383-.091388 1.283242-.133076 1.925338.01025.000777.0205.001553.030749.002329zm-1.625776-8.752825c0-.071765-.000689-.143617.000173-.215383.004737-.425677.004823-.428006.421711-.43275.301124-.003451.602506-.004917.903458.002501.288634.007073.295094.012938.303363.28896.008183.272572.002929.545661.002584.818578-.001206 1.206387-.003015 2.412862-.003618 3.61925-.000086.085739-.000516.173376.017744.255924.004823.021391.091819.04977.119898.034847.046857-.024755.074334-.0841.113955-.124986.782009-.807709 1.73999-1.037324 2.826568-.885167.814309.114031 1.45971.506155 1.937753 1.158343.386224.52677.615598 1.137296.725677 1.777408.201123 1.16947.213699 2.343598-.059518 3.505822-.182518.775966-.495011 1.482841-1.072022 2.067317-1.091143 1.105295-3.035184 1.161621-4.007204.469582-.151251-.107562-.305344-.211156-.458146-.316562-.13945-.096263-.185446-.072628-.207496.1067-.059605.484159-.059605.485194-.544538.485798-.272442.000345-.545055-.011127-.817238-.002846-.155385.004744-.20095-.063399-.198969-.204084.003101-.215383-.00379-.430853-.003876-.646236-.000431-1.924649-.000259-3.849211-.000259-5.773773 0-1.996414 0-3.992829 0-5.989243zm-17.1576607 8.076365c0 1.393824.0010336 2.787648-.0006891 4.181558-.0004306.347787-.0043928.351496-.3497894.357017-.3299787.005262-.6605604-.009747-.98985.005865-.2183493.010437-.2717523-.083237-.2614162-.279472.0112835-.214779.0035315-.430853-.0042206-.646063-.0024978-.069092-.0314388-.137321-.048321-.205895-.0528001.041403-.1180034.073749-.1565052.125762-.2435865.329156-.5497061.576972-.9100901.771481-.9915726.53531-2.0130338.553338-3.0176988.102991-.5745126-.257563-.9661631-.739998-1.1525568-1.369931-.1440157-.486661-.2129228-.979101-.2128367-1.484739.0004307-1.954234.0021534-3.908469-.0079419-5.862704-.0011021-.206585.0506643-.288011.2576439-.283439.3585752.008021.7174948-.001907 1.0761561.003881.3067226.004917.3062919.00992.3062058.312595-.0005168 1.551933-.0032731 3.103779.0002584 4.655712.0010336.459317.0054264.919584.034798 1.377694.0343674.535913.1913894 1.029647.7154277 1.285658.6355815.310438 1.2827911.286631 1.890293-.075561.8590127-.511934 1.1951069-1.325681 1.2068211-2.28641.0153318-1.249947.0042206-2.50024.0046513-3.75036.0000861-.416707.0086133-.833672-.0025841-1.250034-.0055125-.206154.0685626-.280335.2736472-.273693.3584029.011558.7177532.013197 1.0758977-.000863.2127506-.00828.2815715.080996.2737333.278179-.0074075.186487.0000862.373578.0000862.560324.0001722 1.25012.0000861 2.500326.0000861 3.750447zm34.1423997 4.336139c.000775.142065-.006977.211243-.172612.206757-.387085-.010437-.774602-.011903-1.161687-.003277-.191475.004312-.251338-.081599-.246429-.257305.00646-.229615.008269-.459748-.001464-.689019-.002584-.061329-.054523-.120501-.083808-.180708-.052973.038039-.122827.064865-.156333.115757-.789417 1.19966-2.803829 1.52295-4.029772.824701-.521368-.296896-.865214-.731026-1.053675-1.297044-.142379-.427747-.187341-.867916-.187085-1.315848.00095-1.968208.000347-3.936416.000433-5.90471 0-.071766.003187-.143618.003101-.215384-.000258-.144049.073817-.206164.214129-.205636.401728.001725.803456.005175 1.205012-.000431.175455-.002415.223001.084014.212148.240311-.007063.100058-.000689.201065-.000689.30164.000172 1.824591-.002326 3.649095.003531 5.473686.000775.2272.038071.455436.071664.681256.099915.672286.630327 1.093392 1.365565 1.135313.998636.056757 1.851189-.522803 2.195466-1.526142.105083-.306126.167185-.642269.170544-.965559.01671-1.580139.006805-3.160537.006374-4.740934 0-.086171-.001895-.172427.000776-.258512.010422-.328811.010939-.333124.340314-.337954.358576-.005175.717323.002156 1.075898-.002588.184929-.002415.231872.065469.230236.258857-.011801 1.450926-.006374 2.901938-.006202 4.352951.000259 1.436607-.002584 2.873214.004565 4.309822zm-22.4376647.200003c-1.003976 0-2.0079519.002933-3.0119278-.001725-.3199872-.001466-.3199011-.010523-.3302371-.338385-.0335922-1.066135-.0346258-1.066825.5836428-1.940779.8020782-1.133673 1.5968351-2.272608 2.4126086-3.39619.4369569-.601641.9114682-1.175939 1.3692695-1.762399.0428085-.054859.1079257-.103249.1236882-.164664.0102499-.040023-.0434114-.134647-.0801045-.141461-.1111987-.02053-.2280823-.011645-.3427265-.011645-1.1330905 0-2.2661811.00069-3.3992716.000949-.1004321 0-.200778-.000518-.3011239-.003192-.1149025-.003105-.1933704-.050029-.1936289-.177775-.0006029-.330364.0004307-.660641.0004307-.990919-.0000861-.123002.0636529-.18433.1832067-.189247.0859615-.00345.1720954-.003709.2581431-.003795 1.8502408-.000143 3.7004816-.000143 5.5507224-.000143.071663 0 .143413.002903.215076.00135.137814-.003019.221709.057792.221881.200289.000603.330104.009302.661244-.014212.989883-.008441.118344-.079674.246263-.15573.343561-.766333.980222-1.5577304 1.941382-2.3058889 2.935147-.7232657.960729-1.4044121 1.953372-2.1032159 2.932646-.0416026.058309-.077262.120932-.1137827.182778-.0590879.100144-.036004.164233.0857031.16984.1287701.005951.2578847.005261.3869132.005261 1.3338685.000345 2.6678231-.000862 4.0016912.001035.356939.000518.357714.004745.366069.357362.005771.243935.006633.487955.013868.731803.005857.196148-.073731.279559-.280021.277029-.673998-.00877-1.348167-.002732-2.0222504-.002559-.3729595.000172-.745919.000086-1.1187923.000086zm25.2478017-4.553359c0-1.33655-.000072-2.673185.000186-4.009735.000086-.11498.005771-.229961.004221-.344855-.001981-.139477.054867-.212968.202414-.212019.373132.002415.746264.003709 1.119309-.001553.194318-.002674.237471.099541.235404.271537-.004134.344596.004135.689537.013868 1.034133.001895.065555.034539.130334.052972.195458.058829-.050115.137814-.088931.173215-.152157.192337-.343475.464778-.607507.75703-.867312.553496-.492182 1.205099-.543418 1.89038-.500204.138933.008712.205429.080478.205343.220559-.000086.416707.001119.8335.003798 1.250206.000853.131628-.067107.174757-.1889.166907-.12877-.00828-.257971-.009143-.386913-.01544-1.225943-.060466-2.089607.842471-2.351368 1.826747-.065203.245401-.087253.508571-.088717.763804-.008872 1.523296-.004996 3.046764-.007494 4.570146-.000603.350202-.004307.354515-.347464.359432-.358661.005175-.717581-.00276-1.076328.002465-.146772.00202-.209564-.060688-.206808-.203616.001981-.100489-.002325-.201065-.002325-.30164-.000173-1.350955-.000086-2.701909-.000086-4.052863zm-31.729786-3.960103c.5634875-.594741 1.290371-.694712 2.0604935-.631055.1261861.010351.2115447.065987.2099943.216677-.0043928.416535-.0031869.833155.000899 1.249689.0015128.163888-.0917702.170271-.2222629.176137-.3698587.01682-.7497089.004571-1.1060446.087809-.738856.172514-1.1971741.701786-1.4934745 1.367775-.1568497.352704-.2200719.733096-.2183492 1.130999.00646 1.508114-.0099915 3.016229-.0179159 4.524343-.0003445.071334.0004307.142755-.0017226.214089-.0036177.121191-.0636529.179673-.1883747.17907-.4016421-.001984-.8032841-.002761-1.2049262.001696-.1468582.001581-.2065489-.06613-.2061182-.206729.0004306-.172341-.0052542-.344682-.0052542-.516937-.0004307-2.629022-.0003445-5.257957-.0003445-7.886893 0-.057447-.0011198-.11498.0010336-.172341.012231-.328897.0124894-.333037.3435878-.339334.3011239-.005779.6026784-.008798.90363.001121.2685653.008885.3000042.037177.3102541.299743.0136091.344251.0066323.689364.0118865 1.034047.0010336.07073.0165377.141374.0260985.217539.2824328-.338127.5231769-.658484.7969102-.947445zm-10.4115819-3.797862c.5954432.007332.9520373.426626.9783081 1.059924.0217057.520646-.5126686.958831-1.0087133.934506-.5924285-.029068-.9772745-.410496-.971848-1.011447.0053403-.590255.4131839-.990228 1.0022532-.982983zm3.3209674.00176c.5869159-.004831 1.020772.43275 1.0137952 1.022488-.0065462.552475-.4242091.964697-.9806337.967802-.5931175.003364-.9962239-.390744-.9967417-.97453-.0005158-.600261.3891537-1.011016.9635802-1.01576z" fill="#3e484d" fill-rule="evenodd"/></svg>