<svg xmlns="http://www.w3.org/2000/svg" viewBox="0 0 24 24" width="100%" height="100%">
  <path fill="#000" fill-rule="evenodd" d="M6,13 C8.76142375,13 11,15.2385763 11,18 C11,20.7614237 8.76142375,23 6,23 C3.23857625,23 1,20.7614237 1,18 C1,15.2385763 3.23857625,13 6,13 Z M6,14.5 C4.06700338,14.5 2.5,16.0670034 2.5,18 C2.5,19.9329966 4.06700338,21.5 6,21.5 C7.93299662,21.5 9.5,19.9329966 9.5,18 C9.5,16.0670034 7.93299662,14.5 6,14.5 Z M22.0046024,17 C22.515078,17 22.935804,17.3827202 22.9933032,17.8826674 L23,18 C23,18.5522847 22.5443356,19 22.0046024,19 L13.9953976,19 C13.4456547,19 13,18.5561352 13,18 C13,17.4477153 13.4556644,17 13.9953976,17 L22.0046024,17 Z M6,1 C8.76142375,1 11,3.23857625 11,6 C11,8.76142375 8.76142375,11 6,11 C3.23857625,11 1,8.76142375 1,6 C1,3.23857625 3.23857625,1 6,1 Z M7.96966991,3.71966991 L4.95833333,6.73100649 L4.03033009,5.80300325 C3.73743687,5.51011003 3.26256313,5.51011003 2.96966991,5.80300325 C2.6767767,6.09589647 2.6767767,6.5707702 2.96966991,6.86366342 L4.95833333,8.85232684 L9.03033009,4.78033009 C9.3232233,4.48743687 9.3232233,4.01256313 9.03033009,3.71966991 C8.73743687,3.4267767 8.26256313,3.4267767 7.96966991,3.71966991 Z M22.0046024,5 C22.515078,5 22.935804,5.38272018 22.9933032,5.88266744 L23,6 C23,6.55228475 22.5443356,7 22.0046024,7 L13.9953976,7 C13.4456547,7 13,6.55613518 13,6 C13,5.44771525 13.4556644,5 13.9953976,5 L22.0046024,5 Z"/>
</svg>
