<svg height="200" viewBox="0 0 200 200" width="200" xmlns="http://www.w3.org/2000/svg"><g fill="#3e484d" transform="translate(36 36)"><path d="m128 0v128h-128v-128zm-4.788091 4.36416128h-118.41319318v118.83099772h118.41319318z"/><path d="m30.4320063 24.1699197c.6764253-.2806141.5064319-.490435-.0745118-.5828359-6.4065515-.7178832-13.4789032 3.2482439-13.6949359 7.6088514.0028317.4904351-.152141 1.2580726.502891 2.2531582.1629091.1990172.2266554.3980344.6622592.2132326.297486-.142155 2.0080229-.547297 2.3055089.845823.1804733 1.0981481-.0745118 1.9048781-.9526608 2.5303611-.6905889.5082035-1.6078358.9168998-2.5179983.7676365-.7685013-.1100263-2.153225-1.0981479-2.5569531-2.3455586-.3293592-1.1372408-.5453893-3.155843.4037281-5.1317988.8747485-1.7236305 4.1612505-7.477358 14.4244822-9.0908183 3.679605-.2949719 10.2278177-.547297 13.2947462 4.1793598 2.5534122 4.0691896.5489302 9.3822361-1.8982374 11.3226527-1.9726089 1.7271859-3.5804447 2.6085452-6.8315301 3.7457868-.4001898.15296-.6268452.199017.4851839.6858983.5170571.2524672 3.2971247 2.0825728 5.3228547 5.0642765 1.5334642 2.0150476 2.8119433 4.9469952 4.0939608 7.512896.871205 1.759168 2.2240557 4.9114572 5.4751411 7.8078694 1.8274068 1.5068442 2.7411102 1.9439693 5.4078515 2.2353869 2.301968.1384601 4.6464319.4442368 8.7049787-.6148199 3.899176-1.0732697 6.2613494-2.3562214 8.3472873-3.3441996 2.3657118-1.1585639 4.6074744-2.3704346 5.6840869-3.0207949-2.3586299-.5544039-5.99928-.2061235-7.4264995.0781849-1.6645002.3127424-3.4883661 1.1941044-4.9722502 1.6952013-1.1828572.4086938-1.4484675-.4584525-.6622592-.9097933.8287092-.4726656 1.4980502-.7143296 2.8827714-1.3362585 2.751738-1.1905485 5.1316184-1.2865024 7.2246355-1.4037811 1.5724217-.078185 4.2108307.1421542 5.6132589.2914176 1.1049448-.6361447 2.6100768-1.4570906 4.5543534-2.3917594 2.121352-1.0697165 7.1325571-3.3797376 10.5607178-4.6555802 2.0434395-.7320985 7.0581855-2.6227609 10.6032165-2.6938393 3.654816-.2558771 7.348587.9986406 8.64477 4.0478669 1.349308 3.0421196-1.204105 6.2299468-2.960683 7.4418201-1.498048 1.0626099-4.129375 2.8573159-8.655396 3.3015527-3.3998289.3660492-9.1299577-.1137255-12.200427-.845824-2.6313247-.4762189-8.7616407-1.8302464-9.9338726-2.0505882-.764963.4015898-7.3769194 4.5809485-10.0472016 5.9705139-2.3692552 1.2118733-6.5234214 3.0812135-9.1547486 3.9625754-2.7836085 1.0519475-9.2928638 2.3064653-14.1871991.2524672-6.279059-2.2353895-10.1888627-8.5364147-12.1260551-13.8174771-2.2594696-5.5369396-2.6490342-11.2018202-5.514096-11.9836724-.4249786-.0887065-.3860237-.0113664-.3647757.4726656v14.7379277c.0354165.6254823.0354165 1.9084339.945579 2.6760704.5524711.4762189.6233018.440681.9880749.6965607.800377.3660492.8428728 1.6845363-.8393319 1.499735-.9491199-.0321254-3.9062628-.1811046-5.9567841.405143-1.4590928.4797722-3.4671157 1.3220429-6.0984429 2.604992-1.5334642.8387149-3.824807 1.1407949-3.2404602-.1421542.4462264-.9559936 2.1744729-1.1123635 3.7929339-2.5339162 1.1332744-.9168998 2.188639-1.5388288 2.6667386-4.2895283.1807591-1.3931213.4356038-4.3250688.580806-5.4623104.0390977-.8102835.4001872-11.9125965.4780996-13.1955456.0708306-1.1017037.1416612-7.0722171 2.337382-10.2280601 1.8982374-2.4521754 2.8119408-3.329983 5.8788718-4.8368272m56.6036019 14.7059446c1.3918055-.8920243 7.3060888-4.6697948 7.8443963-5.0749368.8605798-.4939892 1.8734461-1.6241221.8499571-3.6889247-1.7849109-3.3868452-4.3524893-3.333537-7.0086053-2.6192077-4.2887431 1.2900575-6.484464 5.7146348-7.1715145 8.1348252-.9739088 3.713803.3435253 5.8319138 1.5440894 7.3174331 1.6892891 2.0576947 4.292284 3.4828007 6.5411285 2.6085453 2.989016-1.1834394 4.6110179-4.019433 4.7951749-4.2824218.1062446-.1455667.315193-.5863884.2620694-1.11947.0084951-.6752384-.5028909-.8102836-1.5865852.1100262-3.2227558 2.6156544-5.1174498.2949734-5.5990928-.1634765-.1204108-.1100288-.3470662-.3376179-.6091356-.7356544-.0920785-.1279385-.116727-.3482777.1379749-.4868813m17.700359-12.5558474c.198323-.2487716 1.639709-1.8800013 1.735328-1.9510786.169991-.1563707.247904-.4548964.888912.0355386.301027.2487714 1.721165 1.272288 1.862824 1.3646889.198323.0958127.764963.5010967 1.558255.4655581.584345-.0958126.796834-.3091874 1.228897-.6077131.301027-.2985257 1.158066-.668129.651634.5579587-.417897.8920233-1.342226 2.0648028-3.180258 3.3477524-.495806.3411723-1.600751.9382237-2.925267.1350475-.701217-.3731572-1.037658-.6183747-1.228896-.7463143-.297486-.1811056-.743713-.5330816-.743713.1350472l.005664 7.5448814c.019821.2772019-.09548 1.2509645.690588.863593.602054-.2806144 1.112027-.5153127 1.551172-.700114.322277-.1421542.920787-.0924006.485184 1.0448384-.417895.881362-.76142 2.1785268-3.215669 3.6427264-.690592.3944807-2.840276.7427584-4.20729-.7001139-.556012-.6681293-1.0836944-1.5743693-1.1049423-2.2958054 0-.6716826-.092081-9.9046564-.092081-9.9046564 0-.142155.0169901-.4833272-.4178943-.4833272-.4143533-.0284311-1.8486572.1848015-1.1084856-.5579589.6728819-.6965599 2.9571432-2.5978842 3.1873392-2.7151622.209089-.2558791 1.522839-.6041592 2.383421.2558792.694133.6006052.811.6503596 1.313891 1.1372406.279636.3020797.488727.3305106.679966.1316357m-27.2977855-1.4784131c0-1.0341783-.9916183-.8138378-1.1120291.1563707-1.225353 5.2028764-3.4210764 7.2356944-6.6473731 9.7731628-.871205.7925145.6091382.8316073 1.303268.7925145.7118393.0255872.517057.2985257.5524736.5544049 0 .2203405-.0354166 9.2614044-.0141584 9.8158083.0954791.7320985.5701781 1.7840486 1.4236786 2.5410227 1.154525.9879782 3.2829587.9168998 4.1329158.3909273 2.1957234-1.2083174 2.8508982-3.1700582 3.1519252-3.7671091.4143533-1.0128563-.3364435-.9915341-.61622-.8742553-.2337372.1421542-.9101625.4584499-1.4626336.6965606-.5206005.2382515-.6374678-.2379674-.6622592-.5544064v-9.8513467c-.0141585-.4193577-.0283322-.5401894.1204108-.5899438.6587157-.2629867 1.2324373-.4335729 1.8132406-.7711913.6870506-.3731571.6445522-1.652553.0920786-1.5637061-.556012.0818813-1.5299208.1811057-1.9230262.1634785-.1770753.0426466-.116727-.1600668-.1379775-.3127414v-5.8816668c0-.1597824 0-.2949719-.0141585-.7178834m-12.2358406 4.2433296v5.8781133c.0226535.1563704-.0424984.3553876.1382606.3198489.3931055.0199015 1.3670142-.085293 1.9230262-.1668902.5560146-.0887048.598513 1.1941028-.0991603 1.5637053-.5737215.3376179-1.1580658.5082061-1.8096997.7747456-.1453425.0497536-.1308932.1668915-.113329.5828352v9.8549018c.0198218.3127424.1379775.7925171.6551748.5544064.5560146-.241664 1.2288965-.5544064 1.4661771-.6965607.2796361-.1171353 1.0270324-.1384576.6162199.8742554-.3010269.5970509-.9562017 2.5552358-3.1519251 3.7742157-.8499572.5188659-2.9854752.5899443-4.1364592-.3980339-.8499571-.7569741-1.3280568-1.8089242-1.4307605-2.5410228-.0141585-.5544038.0255108-9.5954688.0255108-9.8122547-.0388147-.2595737.1558273-.5330816-.5595529-.5579571-.6905915.0426445-2.1709347 0-1.2961862-.7925171 3.2227533-2.5374672 5.4184767-4.5667313 6.6438322-9.7731615.1170102-.9702085 1.1120265-1.190549 1.1120265-.1563707.0169902.4158037.0169902.5579589.0169902.7178834m-19.1488266 12.3141845c-.704755.1705856-.4674769.8316083-.3187339.8778086.3399818.1029197.6410087.0852915 1.2572287.1882138.556012.0852915.5772624.1776921.556012.6468044 0 0-.0198219 8.980649 0 9.343145 0 .7036672.2796361 1.3753498.7543377 2.0825702 1.1934824 1.5210599 3.7327285 1.5388288 4.5862265 1.1123636 1.8344912-.9666535 2.8686053-2.7222682 3.3112909-3.6675994.5985129-1.1763354-.1878382-1.1976576-.5276798-1.1372416-.4533108.1100288-.8570414.5366349-1.5192981.7711898-.7649629.3660518-.5595554-.6610202-.6020538-1.0021914 0-.3909274-.0424983-10.8713114-.0198218-10.8713114 0-1.1230259-.6835071-.7498675-1.133277-.60416 0 0-5.850537 2.0257101-6.3428053 2.2602676m7.8160641-11.4292706c.3470662-.1458511 1.11557-.5366354 1.0943195.4726659-.0198218 1.0057472-.704755 5.7217423-4.696012 7.4809106-.4285195.1279411-1.522839.2985267-1.0482803-.6858983.4887248-.8991298 1.6220018-3.9234795.7472534-4.954104-.2586689-.405142-.4922658-.7711913.3010269-1.069717.5489302-.1705861 3.6016925-1.2438572 3.6016925-1.2438572m28.7037318 25.9433058s.6091381.1882112 1.11557.3091865c.5276823.1421543 2.0363552.3838183 4.0585442.7143296 2.2807202.4051405 6.3675966.8564839 8.8678878.9524378 2.9713065.0958131 5.6097157-.5259725 6.9377747-1.2118707 2.015105-1.1941044 3.112968-3.7209114 2.376337-5.1033677-.927869-1.6738765-2.493207-1.7911552-4.639347-1.9546343-2.4436272-.2169267-5.5565975.7392077-8.0993845 1.5246132-3.6335657 1.1692262-7.1998442 3.0776601-9.455773 4.1971302-.6126764.3091866-.8641232.4015872-1.1616092.5721754m-53.7562445-17.6167143c-.0056634.7143296-.1204107.9524403.5914286.7818547 2.043437-.4691123 3.2794177-1.3540275 4.0443781-1.8835558 1.5795035-1.1443484 3.0952607-3.5041229 3.5485715-5.3485852.3931054-1.6703224.1558248-2.5339146-.113329-4.0620818-.5701781-1.9119859-1.6680385-2.640531-2.1532225-2.9817032-.4143558-.28431-1.2678539-.8422689-2.468418.0639698-.835791.6041592-1.9442767 1.4357665-2.7729859 3.9661271-.5347641 1.9226478-.5099728 2.4130829-.6268426 4.3570537-.0708306 1.535275-.0317329 4.5454103-.0495802 5.1069207m57.0462874-3.3299819c.800377-3.9234806 3.0173483-5.4054475 3.2687951-5.6151263.3435227-.2237522 2.2913428-.9559931 2.245301 1.6454451-.0745118 1.7662771-.0028317 2.2780355-1.4413832 3.7280174-.9739113.7356526-3.7008553 2.4663913-3.7008553 2.4663913-.1595086.0958131-.262072-.0318438-.3576914-.3091865-.1167271-.5934987-.1416587-1.2651815-.0141585-1.915541m-59.2384776 43.4852434c-1.0907786-.9097933-2.4790407-1.5175066-3.9310517-1.5175066-1.0836943 0-2.5321643.6361446-2.5321643 1.9084339 0 1.3327027 1.597213 1.8480154 2.6207019 2.18208l1.5157573.4548967c3.1660912.9417753 5.6132589 2.544576 5.6132589 6.2370534 0 2.2780365-.5383076 4.6129331-2.3515482 6.1553152-1.7813701 1.5139533-4.1683324 2.1536512-6.4632161 2.1536512-2.8721462 0-5.6770052-.9773158-8.003762-2.604992l2.542787-4.7870746c1.4732589 1.2971674 3.2262967 2.3597748 5.2484857 2.3597748 1.3882622 0 2.8650644-.6965581 2.8650644-2.302912 0-1.6667674-2.3232159-2.242496-3.5875289-2.604992-3.715019-1.0590541-6.1621892-2.0328167-6.1621892-6.453842 0-4.6378086 3.2971273-7.6657126 7.8514807-7.6657126 2.2948838 0 5.0997428.724992 7.1254727 1.8764467zm6.4065515-5.8781133h9.0555858c4.8943352 0 8.2729158 2.2709273 8.2729158 7.5093427 0 5.3947853-2.8933966 7.7616691-8.0568856 7.7616691h-3.3502483v7.573312h-5.9213677zm5.9213677 10.4768307h.9951592c2.1390589 0 4.2568674 0 4.2568674-2.7826867 0-2.8786407-1.9619837-2.9106253-4.2568674-2.9106253h-.9951592zm38.3649403.5224192c0 7.392064-5.2838998 12.602048-12.5935321 12.602048-7.3096297 0-12.5864476-5.209984-12.5864476-12.602048 0-6.9087386 6.0346965-11.7633331 12.5864476-11.7633331 6.5552946 0 12.5935321 4.8545945 12.5935321 11.7633331m-19.0248724.0256c0 3.9376973 2.9004784 6.8163379 6.4313403 6.8163379 3.5379489 0 6.4384273-2.8786406 6.4384273-6.8163379 0-3.1487334-2.9004784-6.0273741-6.4384273-6.0273741-3.5308619 0-6.4313403 2.8786407-6.4313403 6.0273741m40.7519025 11.8201958h-7.3662967l-5.5849267-8.7922918h-.0603457v8.7922918h-5.924911v-22.8443212h8.8537217c4.4976889 0 7.9081426 2.1500953 7.9081426 7.029568 0 3.148736-1.7530378 5.87456-4.9864163 6.4502886zm-13.0114287-12.6056012h.5737215c1.9301106.0001408 4.1045861-.3623527 4.1045861-2.8465152 0-2.4912666-2.1744755-2.8466535-4.1045861-2.8466535h-.5737215v5.6933095zm23.7846328 12.6056012h-5.921367v-17.8155852h-4.8872536v-5.028736h15.6994176v5.028736h-4.890797z"/></g></svg>