<?xml version="1.0" encoding="UTF-8"?>
<svg width="24px" height="24px" viewBox="0 0 24 24" version="1.1" xmlns="http://www.w3.org/2000/svg" xmlns:xlink="http://www.w3.org/1999/xlink">
    <title>Icons/Secure</title>
    <g id="Icons/Secure" stroke="none" stroke-width="1" fill="none" fill-rule="evenodd">
        <path d="M11.7252789,1.03847605 C11.9048338,0.987174649 12.0951662,0.987174649 12.2747211,1.03847605 C17.1138295,2.42107845 20.6136156,4.3459608 22.7592566,6.84920863 C22.9146078,7.03045174 23,7.26128873 23,7.5 C23,15.2530442 19.4032393,20.4683472 12.3303504,22.9438584 C12.1164775,23.0187139 11.8835225,23.0187139 11.6696496,22.9438584 C4.59676069,20.4683472 1,15.2530442 1,7.5 C1,7.26128873 1.08539216,7.03045174 1.2407434,6.84920863 C3.38638439,4.3459608 6.88617049,2.42107845 11.7252789,1.03847605 Z M12,3.041 L11.7982755,3.1008521 C7.87020981,4.27648829 4.99987294,5.81598869 3.17671426,7.69366836 L3.17671426,7.69366836 L3.003,7.876 L3.01218394,8.24445543 C3.2234225,14.611918 6.18272296,18.7849739 12,20.937 C17.817277,18.7849739 20.7765775,14.611918 20.9878161,8.24445543 L20.9878161,8.24445543 L20.996,7.876 L20.8232857,7.69366836 C19.0001271,5.81598869 16.1297902,4.27648829 12.2017245,3.1008521 L12.2017245,3.1008521 L12,3.041 Z M17.3194652,7.80944317 L17.413669,7.89257539 C17.4138506,7.89275686 17.4140321,7.89293839 17.4142136,7.89311999 C17.8048346,8.28409459 17.804816,8.91762046 17.414172,9.30857213 L11.1365348,15.5911542 C10.7461643,15.9818322 10.1129994,15.9820815 9.72232139,15.591711 C9.71720919,15.5866028 9.71215251,15.5814394 9.70715225,15.5762216 L7.19220889,12.9518624 C6.80750237,12.5504188 6.81412051,11.9151333 7.20710678,11.5217913 C7.58495529,11.1436008 8.19784601,11.1433235 8.57603652,11.521172 C8.58356712,11.5286958 8.5909731,11.5363433 8.59825143,11.5441114 L10.0609283,13.1052121 C10.2497346,13.3067233 10.5661496,13.3170226 10.7676608,13.1282162 L10.7794624,13.1167889 L10.7794624,13.1167889 L15.9999049,7.89302498 C16.3601597,7.53254098 16.9272017,7.50463993 17.3194652,7.80944317 Z" id="Combined-Shape" fill="#000"></path>
    </g>
</svg>
