<svg width="2100" height="760" xmlns="http://www.w3.org/2000/svg" xmlns:xlink="http://www.w3.org/1999/xlink"><defs><path d="M64 0h716c35.346 0 64 28.654 64 64 0 35.346-28.654 64-64 64H64C28.654 128 0 99.346 0 64 0 28.654 28.654 0 64 0z" id="a"/><path d="M31.977 51.195a3.95 3.95 0 00-1.554 0l-2.576.62c-.43.104-1.086-.002-1.458-.23l-2.258-1.387a3.95 3.95 0 00-1.478-.48l-2.642-.206c-.44-.034-1.031-.337-1.315-.67l-1.72-2.016a3.95 3.95 0 00-1.256-.913L13.27 44.9c-.407-.168-.876-.64-1.043-1.043l-1.012-2.45a3.95 3.95 0 00-.913-1.256l-2.017-1.72c-.335-.286-.636-.88-.67-1.315l-.205-2.642a3.95 3.95 0 00-.48-1.477l-1.387-2.259c-.23-.376-.333-1.033-.23-1.457l.62-2.577a3.95 3.95 0 000-1.553l-.62-2.577c-.104-.429.002-1.085.23-1.457l1.386-2.259a3.95 3.95 0 00.48-1.477l.206-2.642c.035-.44.338-1.032.67-1.315l2.017-1.72a3.95 3.95 0 00.913-1.257l1.012-2.449c.169-.407.64-.876 1.044-1.043l2.449-1.012a3.95 3.95 0 001.257-.914l1.72-2.016c.286-.336.879-.636 1.314-.67l2.642-.206a3.95 3.95 0 001.478-.48L26.389.271c.376-.231 1.033-.334 1.458-.231l2.576.62a3.95 3.95 0 001.554 0l2.576-.62c.43-.104 1.086.002 1.458.23l2.258 1.387a3.95 3.95 0 001.478.48l2.642.206c.44.034 1.031.338 1.315.67l1.72 2.016a3.95 3.95 0 001.256.914l2.45 1.012c.407.168.876.64 1.043 1.043l1.012 2.45c.169.407.58.973.913 1.256l2.017 1.72c.335.286.636.88.67 1.315l.205 2.642a3.95 3.95 0 00.48 1.477l1.387 2.259c.23.376.333 1.033.23 1.457l-.62 2.577a3.95 3.95 0 000 1.553l.62 2.577c.104.429-.002 1.085-.23 1.457l-1.386 2.259a3.95 3.95 0 00-.48 1.477l-.206 2.642c-.035.44-.338 1.032-.67 1.315l-2.017 1.72a3.95 3.95 0 00-.913 1.257l-1.012 2.449c-.169.408-.64.877-1.044 1.043l-2.449 1.013a3.95 3.95 0 00-1.257.913l-1.72 2.016c-.286.336-.879.636-1.314.67l-2.642.206a3.95 3.95 0 00-1.478.48l-2.258 1.387c-.376.23-1.033.333-1.458.23l-2.576-.62z" id="f"/><path d="M12 31.528c0-2.21 1.8-4 4-4h30.4c2.209 0 4 1.795 4 4 0 2.209-1.8 4-4 4H16c-2.209 0-4-1.796-4-4z" id="h"/><path d="M45.487 15.442c-2.589-.576-4.687-3.198-4.687-5.837V0H21.6v9.605c0 2.648-2.09 5.26-4.687 5.837L0 19.2v11.2h62.4V19.2l-16.913-3.758z" id="j"/><path d="M.8 16.8L20 13.6S24.4 20 31.2 20c6.8 0 11.2-6.4 11.2-6.4l19.2 3.2v13.6H.8V16.8z" id="m"/><path d="M.104 18.06C-.964 8.086 6.312 0 16.34 0h3.658c10.036 0 17.305 8.087 16.236 18.06l-2.439 22.764c-.235 2.196-1.981 4.876-3.894 5.984l-7.578 4.387c-2.294 1.328-6.018 1.326-8.307 0l-7.579-4.387c-1.915-1.109-3.659-3.792-3.894-5.984L.104 18.06z" id="o"/><path d="M64 0h402c35.346 0 64 28.654 64 64 0 35.346-28.654 64-64 64H64C28.654 128 0 99.346 0 64 0 28.654 28.654 0 64 0z" id="r"/><path d="M9.6 30.4a4 4 0 014.006-4h35.188a4 4 0 110 8H13.606a4.006 4.006 0 01-4.006-4z" id="x"/><path d="M43.113 15.343c-2.603-.521-4.713-3.099-4.713-5.738V0H24v9.605c0 2.648-2.109 5.217-4.713 5.738L0 19.2v11.2h62.4V19.2l-19.287-3.857z" id="z"/><path id="C" d="M.8 18.4l20-4h20.8l20 4v12.8H.8z"/><path d="M11.2 21.6c0-11.046 8.952-20 20-20 11.046 0 20 8.963 20 20v7.2l-2.47 11.365c-.845 3.885-4.409 8.474-7.969 10.254l-5.273 2.637c-2.368 1.184-6.218 1.179-8.576 0L21.64 50.42c-3.556-1.778-7.122-6.361-7.968-10.254L11.2 28.8v-7.2z" id="E"/><path d="M31.2 0c6.368 0 12.986 2.838 17.516 7.796 1.182.625 2.728 1.244 4.884 1.804-.675.964-1.425 1.533-2.18 1.842 1.866 3.15 2.98 6.865 2.98 11.033 0 0 0 3.525-.8 5.525-3.2 3.051-18.4-3.152-20.4-7.076 0 1.987-10.4 5.232-14.8 0-1.492 4.231-6.8 11.22-10.4 9.476-1.2-4.4-.755-9.047-.4-11.655C9.2 6.975 19.987 0 31.2 0z" id="G"/><path d="M66.963 0l9.598 20.146 29.022-.333c10.334 19.333 17 39.333 20 60 4.5 31 0 83 0 87.5s-14 6.5-14 0c0-88.583-19.481-115.22-41.124-114.319-20.598.858-61.376 33.819-49.876 95.819 2.247 12.114-10.5 18.5-14 8s-12-53-.5-83.5c7.667-20.334 23.918-40.416 48.755-60.247L66.963 0z" id="M"/><path d="M29.656 27.561c-3.56-3.814-6.092-6.924-7.598-9.33-1.506-2.406-3.206-7.352-5.099-14.838-1.438-.079-2.315.733-2.63 2.436-.47 2.555 1.274 6.01-.057 6.01S2.675 9.214 3.988 17.675c.875 5.641 2.529 8.412 4.96 8.314 3.984.156 7.251.68 9.801 1.573 2.55.892 4.93 2.345 7.14 4.357l3.767-4.357z" id="R"/><path d="M74.147 6.994c-11.4 5.78-20.754 29.97-34.347 41.076-5.813 4.749-16.272 9.707-31.378 14.875a10.126 10.126 0 00-6.775 10.799 6.24 6.24 0 008.69 4.969c16.263-7.095 28.534-13.501 36.81-19.22 9.534-6.586 22.2-18.086 38-34.5 16.333-24 12.666-30-11-18z" id="U"/><path d="M20.428 23.476c0-21.459 15.186-28.075 45.56-19.849 35.26 13.24 48.577 34.019 51.039 45.555 2.462 11.536-6.54 24.265-32.883 37.252-3.822-.941-5.88-3.363-6.459-6.702 16.835-11.23 25.588-20.054 22.05-29.153-3.062-7.871-15.202-17.863-32.214-20.808-3.95 28.733-1.21 53.902 2.823 78.382C52.007 119.02 14.942 116.608 0 98.205c13.618-28.36 20.428-53.27 20.428-74.729z" id="Y"/><path d="M23.526 0C33.818 0 42.16 8.343 42.16 18.634c0 4.83-1.837 9.23-4.85 12.54l.494.287-7.466 9.357a775.419 775.419 0 00-3.475 7.144l-.558 1.17c-1.915 4.035-3.75 8.085-5.009 11.369-2.026 5.288-18.077 10.59-16.404 1.798.767-4.035 1.962-9.246 3.584-15.633-4.463-1.48-7.11-3.448-7.94-5.906-1.504-4.45.158-13.552 4.987-27.305l.222-.629.059.034C8.234 5.395 15.25 0 23.526 0z" id="ad"/><path d="M64 0h356c35.346 0 64 28.654 64 64 0 35.346-28.654 64-64 64H64C28.654 128 0 99.346 0 64 0 28.654 28.654 0 64 0z" id="ag"/><path d="M6.945 17.385C8.41 8.667 16.76 1.6 25.607 1.6h4.786c8.84 0 17.324 7.044 18.946 15.724l3.591 19.213c.812 4.343-1.182 10.274-4.455 13.25L28 68.4 8.241 49.876c-3.226-3.024-5.246-9.015-4.514-13.364l3.218-19.127z" id="am"/><path d="M5.6 32c0-2.21 1.784-4 3.995-4h36.81a4 4 0 013.995 4c0 2.21-1.784 4-3.995 4H9.595A4 4 0 015.6 32z" id="ao"/><path d="M35.83 60.076c-1.232-.484-2.23-1.958-2.23-3.27V44.8H22.4v12.006c0 1.322-.991 2.783-2.23 3.27L0 68v7.2h56V68l-20.17-7.924z" id="aq"/><path d="M.8 67.2l13.6-4.8S23.067 72 27.6 72c4.533 0 14-9.6 14-9.6l13.6 4.8V80H.8V67.2z" id="as"/><path d="M8 22.4c0-11.046 8.952-20 20-20 11.046 0 20 8.963 20 20v7.2l-.745 5.708c-.914 7.01-6.864 15.06-13.309 17.99l-3.753 1.705c-1.211.55-3.164.555-4.386 0l-3.753-1.706c-6.436-2.925-12.395-10.98-13.31-17.989L8 29.6v-7.2z" id="au"/><path d="M0 34.4c3.2-2.402 4-6.8 4-12.798C4 10.4 14.384 0 27.2 0c12.813 0 23.2 10.473 23.2 22.4 0 2.327.8 6.8 2.8 9.598C44.8 33.6 35.096 24.157 34.03 20c-1.23 1.602-1.23 3.6-.43 5.2-6.83-1.357-11.215-3.92-14.563-7.2C16.03 23.202 11.2 34.4 0 34.4z" id="aw"/><path d="M64 0h189c35.346 0 64 28.654 64 64 0 35.346-28.654 64-64 64H64C28.654 128 0 99.346 0 64 0 28.654 28.654 0 64 0z" id="ay"/><path d="M9.6 32a4 4 0 014.006-4h35.188a4 4 0 110 8H13.606A4.006 4.006 0 019.6 32z" id="aE"/><path d="M43.895 15.371c-2.593-.536-4.695-3.127-4.695-5.766V0h-16v9.605c0 2.648-2.1 5.23-4.695 5.766L0 19.2v11.2h62.4V19.2l-18.505-3.829z" id="aG"/><path d="M.8 17.6l17.61-3.828c.436-.095 1.087.026 1.452.27l10.008 6.671c.735.49 1.925.49 2.66 0l10.008-6.671c.365-.244 1.013-.366 1.453-.27L61.6 17.6v12.8H.8V17.6z" id="aJ"/><path d="M11.2 22.4c0-11.046 8.952-20 20-20 11.046 0 20 8.963 20 20v7.2l-5.181 16.191c-.673 2.104-2.833 4.568-4.846 5.516l-5.632 2.65c-2.398 1.128-6.29 1.126-8.682 0l-5.632-2.65c-2.003-.943-4.173-3.412-4.846-5.516L11.2 29.6v-7.2z" id="aL"/><path d="M9.278 31.2L8 22.77C8 10.194 18.678 0 31.857 0 41.644 0 49.333 5.986 53.2 14c2.667 5.526 1.2 8.77 6.4 12.4-12 3.6-13.347-1.524-16.637-7.849-.776.885-11.106 8.011-23.887 4.219-.852 8.43-9.798 8.43-9.798 8.43z" id="aN"/><path d="M64 0h366c35.346 0 64 28.654 64 64 0 35.346-28.654 64-64 64H64C28.654 128 0 99.346 0 64 0 28.654 28.654 0 64 0z" id="aP"/><filter x="-6%" y="-23.8%" width="112%" height="178.9%" filterUnits="objectBoundingBox" id="b"><feMorphology radius="1.5" in="SourceAlpha" result="shadowSpreadOuter1"/><feOffset dy="20" in="shadowSpreadOuter1" result="shadowOffsetOuter1"/><feGaussianBlur stdDeviation="15" in="shadowOffsetOuter1" result="shadowBlurOuter1"/><feComposite in="shadowBlurOuter1" in2="SourceAlpha" operator="out" result="shadowBlurOuter1"/><feColorMatrix values="0 0 0 0 1 0 0 0 0 0.831372549 0 0 0 0 0.149019608 0 0 0 0.324655813 0" in="shadowBlurOuter1"/></filter><filter x="-4.5%" y="-4.5%" width="109%" height="109%" filterUnits="objectBoundingBox" id="g"><feGaussianBlur stdDeviation="1.5" in="SourceAlpha" result="shadowBlurInner1"/><feOffset in="shadowBlurInner1" result="shadowOffsetInner1"/><feComposite in="shadowOffsetInner1" in2="SourceAlpha" operator="arithmetic" k2="-1" k3="1" result="shadowInnerInner1"/><feColorMatrix values="0 0 0 0 0.501960784 0 0 0 0 0 0 0 0 0 0 0 0 0 0.3 0" in="shadowInnerInner1"/></filter><filter x="-6.1%" y="-29.2%" width="112.2%" height="158.3%" filterUnits="objectBoundingBox" id="i"><feGaussianBlur stdDeviation="1.5" in="SourceAlpha" result="shadowBlurInner1"/><feOffset in="shadowBlurInner1" result="shadowOffsetInner1"/><feComposite in="shadowOffsetInner1" in2="SourceAlpha" operator="arithmetic" k2="-1" k3="1" result="shadowInnerInner1"/><feColorMatrix values="0 0 0 0 0.301960784 0 0 0 0 0 0 0 0 0 0 0 0 0 0.3 0" in="shadowInnerInner1"/></filter><filter x="-3.7%" y="-7.7%" width="107.5%" height="115.4%" filterUnits="objectBoundingBox" id="k"><feGaussianBlur stdDeviation="1.5" in="SourceAlpha" result="shadowBlurInner1"/><feOffset in="shadowBlurInner1" result="shadowOffsetInner1"/><feComposite in="shadowOffsetInner1" in2="SourceAlpha" operator="arithmetic" k2="-1" k3="1" result="shadowInnerInner1"/><feColorMatrix values="0 0 0 0 0.301960784 0 0 0 0 0 0 0 0 0 0 0 0 0 0.3 0" in="shadowInnerInner1"/></filter><filter x="-3.8%" y="-14.3%" width="107.7%" height="128.2%" filterUnits="objectBoundingBox" id="n"><feGaussianBlur stdDeviation="1.5" in="SourceAlpha" result="shadowBlurInner1"/><feOffset in="shadowBlurInner1" result="shadowOffsetInner1"/><feComposite in="shadowOffsetInner1" in2="SourceAlpha" operator="arithmetic" k2="-1" k3="1" result="shadowInnerInner1"/><feColorMatrix values="0 0 0 0 0.360784314 0 0 0 0 0.647058824 0 0 0 0 0.6 0 0 0 0.5 0" in="shadowInnerInner1"/></filter><filter x="-6.4%" y="-4.5%" width="112.8%" height="108.9%" filterUnits="objectBoundingBox" id="p"><feGaussianBlur stdDeviation="1.5" in="SourceAlpha" result="shadowBlurInner1"/><feOffset in="shadowBlurInner1" result="shadowOffsetInner1"/><feComposite in="shadowOffsetInner1" in2="SourceAlpha" operator="arithmetic" k2="-1" k3="1" result="shadowInnerInner1"/><feColorMatrix values="0 0 0 0 0.301960784 0 0 0 0 0 0 0 0 0 0 0 0 0 0.3 0" in="shadowInnerInner1"/></filter><filter x="-9.5%" y="-23.8%" width="119.1%" height="178.9%" filterUnits="objectBoundingBox" id="s"><feMorphology radius="1.5" in="SourceAlpha" result="shadowSpreadOuter1"/><feOffset dy="20" in="shadowSpreadOuter1" result="shadowOffsetOuter1"/><feGaussianBlur stdDeviation="15" in="shadowOffsetOuter1" result="shadowBlurOuter1"/><feComposite in="shadowBlurOuter1" in2="SourceAlpha" operator="out" result="shadowBlurOuter1"/><feColorMatrix values="0 0 0 0 0.587666667 0 0 0 0 0.86 0 0 0 0 0.043 0 0 0 0.5 0" in="shadowBlurOuter1"/></filter><filter x="-5.4%" y="-29.2%" width="110.8%" height="158.3%" filterUnits="objectBoundingBox" id="y"><feGaussianBlur stdDeviation="1.5" in="SourceAlpha" result="shadowBlurInner1"/><feOffset in="shadowBlurInner1" result="shadowOffsetInner1"/><feComposite in="shadowOffsetInner1" in2="SourceAlpha" operator="arithmetic" k2="-1" k3="1" result="shadowInnerInner1"/><feColorMatrix values="0 0 0 0 0.4 0 0 0 0 0 0 0 0 0 0 0 0 0 0.3 0" in="shadowInnerInner1"/></filter><filter x="-3.7%" y="-7.7%" width="107.5%" height="115.4%" filterUnits="objectBoundingBox" id="A"><feGaussianBlur stdDeviation="1.5" in="SourceAlpha" result="shadowBlurInner1"/><feOffset in="shadowBlurInner1" result="shadowOffsetInner1"/><feComposite in="shadowOffsetInner1" in2="SourceAlpha" operator="arithmetic" k2="-1" k3="1" result="shadowInnerInner1"/><feColorMatrix values="0 0 0 0 0.4 0 0 0 0 0 0 0 0 0 0 0 0 0 0.3 0" in="shadowInnerInner1"/></filter><filter x="-3.8%" y="-13.9%" width="107.7%" height="127.8%" filterUnits="objectBoundingBox" id="D"><feGaussianBlur stdDeviation="1.5" in="SourceAlpha" result="shadowBlurInner1"/><feOffset in="shadowBlurInner1" result="shadowOffsetInner1"/><feComposite in="shadowOffsetInner1" in2="SourceAlpha" operator="arithmetic" k2="-1" k3="1" result="shadowInnerInner1"/><feColorMatrix values="0 0 0 0 0.501960784 0 0 0 0 0 0 0 0 0 0 0 0 0 0.3 0" in="shadowInnerInner1"/></filter><filter x="-5.8%" y="-4.5%" width="111.7%" height="108.9%" filterUnits="objectBoundingBox" id="F"><feGaussianBlur stdDeviation="1.5" in="SourceAlpha" result="shadowBlurInner1"/><feOffset in="shadowBlurInner1" result="shadowOffsetInner1"/><feComposite in="shadowOffsetInner1" in2="SourceAlpha" operator="arithmetic" k2="-1" k3="1" result="shadowInnerInner1"/><feColorMatrix values="0 0 0 0 0.4 0 0 0 0 0 0 0 0 0 0 0 0 0 0.3 0" in="shadowInnerInner1"/></filter><filter x="-5%" y="-7.6%" width="109.9%" height="115.1%" filterUnits="objectBoundingBox" id="H"><feGaussianBlur stdDeviation="1.5" in="SourceAlpha" result="shadowBlurInner1"/><feOffset in="shadowBlurInner1" result="shadowOffsetInner1"/><feComposite in="shadowOffsetInner1" in2="SourceAlpha" operator="arithmetic" k2="-1" k3="1" result="shadowInnerInner1"/><feColorMatrix values="0 0 0 0 0.501960784 0 0 0 0 0 0 0 0 0 0 0 0 0 0.3 0" in="shadowInnerInner1"/></filter><filter x="-44.1%" y="-20.7%" width="188.2%" height="141.4%" filterUnits="objectBoundingBox" id="I"><feGaussianBlur stdDeviation="20" in="SourceGraphic"/></filter><filter x="-10.4%" y="-23.8%" width="120.9%" height="178.9%" filterUnits="objectBoundingBox" id="ah"><feMorphology radius="1.5" in="SourceAlpha" result="shadowSpreadOuter1"/><feOffset dy="20" in="shadowSpreadOuter1" result="shadowOffsetOuter1"/><feGaussianBlur stdDeviation="15" in="shadowOffsetOuter1" result="shadowBlurOuter1"/><feComposite in="shadowBlurOuter1" in2="SourceAlpha" operator="out" result="shadowBlurOuter1"/><feColorMatrix values="0 0 0 0 1 0 0 0 0 0.666666667 0 0 0 0 0 0 0 0 0.3 0" in="shadowBlurOuter1"/></filter><filter x="-4.7%" y="-3.5%" width="109.4%" height="107.4%" filterUnits="objectBoundingBox" id="an"><feGaussianBlur stdDeviation="1.5" in="SourceAlpha" result="shadowBlurInner1"/><feOffset in="shadowBlurInner1" result="shadowOffsetInner1"/><feComposite in="shadowOffsetInner1" in2="SourceAlpha" operator="arithmetic" k2="-1" k3="1" result="shadowInnerInner1"/><feColorMatrix values="0 0 0 0 0.501960784 0 0 0 0 0 0 0 0 0 0 0 0 0 0.3 0" in="shadowInnerInner1"/></filter><filter x="-5.2%" y="-29.2%" width="110.4%" height="158.3%" filterUnits="objectBoundingBox" id="ap"><feGaussianBlur stdDeviation="1.5" in="SourceAlpha" result="shadowBlurInner1"/><feOffset in="shadowBlurInner1" result="shadowOffsetInner1"/><feComposite in="shadowOffsetInner1" in2="SourceAlpha" operator="arithmetic" k2="-1" k3="1" result="shadowInnerInner1"/><feColorMatrix values="0 0 0 0 0.4 0 0 0 0 0 0 0 0 0 0 0 0 0 0.3 0" in="shadowInnerInner1"/></filter><filter x="-4.2%" y="-7.7%" width="108.3%" height="115.4%" filterUnits="objectBoundingBox" id="ar"><feGaussianBlur stdDeviation="1.5" in="SourceAlpha" result="shadowBlurInner1"/><feOffset in="shadowBlurInner1" result="shadowOffsetInner1"/><feComposite in="shadowOffsetInner1" in2="SourceAlpha" operator="arithmetic" k2="-1" k3="1" result="shadowInnerInner1"/><feColorMatrix values="0 0 0 0 0.4 0 0 0 0 0 0 0 0 0 0 0 0 0 0.3 0" in="shadowInnerInner1"/></filter><filter x="-4.3%" y="-14%" width="108.6%" height="127.3%" filterUnits="objectBoundingBox" id="at"><feGaussianBlur stdDeviation="1.5" in="SourceAlpha" result="shadowBlurInner1"/><feOffset in="shadowBlurInner1" result="shadowOffsetInner1"/><feComposite in="shadowOffsetInner1" in2="SourceAlpha" operator="arithmetic" k2="-1" k3="1" result="shadowInnerInner1"/><feColorMatrix values="0 0 0 0 0.501960784 0 0 0 0 0 0 0 0 0 0 0 0 0 0.3 0" in="shadowInnerInner1"/></filter><filter x="-5.8%" y="-4.4%" width="111.7%" height="108.8%" filterUnits="objectBoundingBox" id="av"><feGaussianBlur stdDeviation="1.5" in="SourceAlpha" result="shadowBlurInner1"/><feOffset in="shadowBlurInner1" result="shadowOffsetInner1"/><feComposite in="shadowOffsetInner1" in2="SourceAlpha" operator="arithmetic" k2="-1" k3="1" result="shadowInnerInner1"/><feColorMatrix values="0 0 0 0 0.4 0 0 0 0 0 0 0 0 0 0 0 0 0 0.3 0" in="shadowInnerInner1"/></filter><filter x="-4.4%" y="-6.8%" width="108.8%" height="113.6%" filterUnits="objectBoundingBox" id="ax"><feGaussianBlur stdDeviation="1.5" in="SourceAlpha" result="shadowBlurInner1"/><feOffset in="shadowBlurInner1" result="shadowOffsetInner1"/><feComposite in="shadowOffsetInner1" in2="SourceAlpha" operator="arithmetic" k2="-1" k3="1" result="shadowInnerInner1"/><feColorMatrix values="0 0 0 0 0.501960784 0 0 0 0 0 0 0 0 0 0 0 0 0 0.3 0" in="shadowInnerInner1"/></filter><filter x="-15.9%" y="-23.8%" width="131.9%" height="178.9%" filterUnits="objectBoundingBox" id="az"><feMorphology radius="1.5" in="SourceAlpha" result="shadowSpreadOuter1"/><feOffset dy="20" in="shadowSpreadOuter1" result="shadowOffsetOuter1"/><feGaussianBlur stdDeviation="15" in="shadowOffsetOuter1" result="shadowBlurOuter1"/><feComposite in="shadowBlurOuter1" in2="SourceAlpha" operator="out" result="shadowBlurOuter1"/><feColorMatrix values="0 0 0 0 0.168627451 0 0 0 0 0.850980392 0 0 0 0 0.850980392 0 0 0 0.3 0" in="shadowBlurOuter1"/></filter><filter x="-5.4%" y="-29.2%" width="110.8%" height="158.3%" filterUnits="objectBoundingBox" id="aF"><feGaussianBlur stdDeviation="1.5" in="SourceAlpha" result="shadowBlurInner1"/><feOffset in="shadowBlurInner1" result="shadowOffsetInner1"/><feComposite in="shadowOffsetInner1" in2="SourceAlpha" operator="arithmetic" k2="-1" k3="1" result="shadowInnerInner1"/><feColorMatrix values="0 0 0 0 0.4 0 0 0 0 0 0 0 0 0 0 0 0 0 0.3 0" in="shadowInnerInner1"/></filter><filter x="-3.7%" y="-7.7%" width="107.5%" height="115.4%" filterUnits="objectBoundingBox" id="aH"><feGaussianBlur stdDeviation="1.5" in="SourceAlpha" result="shadowBlurInner1"/><feOffset in="shadowBlurInner1" result="shadowOffsetInner1"/><feComposite in="shadowOffsetInner1" in2="SourceAlpha" operator="arithmetic" k2="-1" k3="1" result="shadowInnerInner1"/><feColorMatrix values="0 0 0 0 0.4 0 0 0 0 0 0 0 0 0 0 0 0 0 0.3 0" in="shadowInnerInner1"/></filter><filter x="-3.8%" y="-14%" width="107.7%" height="128%" filterUnits="objectBoundingBox" id="aK"><feGaussianBlur stdDeviation="1.5" in="SourceAlpha" result="shadowBlurInner1"/><feOffset in="shadowBlurInner1" result="shadowOffsetInner1"/><feComposite in="shadowOffsetInner1" in2="SourceAlpha" operator="arithmetic" k2="-1" k3="1" result="shadowInnerInner1"/><feColorMatrix values="0 0 0 0 0.501960784 0 0 0 0 0 0 0 0 0 0 0 0 0 0.3 0" in="shadowInnerInner1"/></filter><filter x="-5.8%" y="-4.5%" width="111.7%" height="108.9%" filterUnits="objectBoundingBox" id="aM"><feGaussianBlur stdDeviation="1.5" in="SourceAlpha" result="shadowBlurInner1"/><feOffset in="shadowBlurInner1" result="shadowOffsetInner1"/><feComposite in="shadowOffsetInner1" in2="SourceAlpha" operator="arithmetic" k2="-1" k3="1" result="shadowInnerInner1"/><feColorMatrix values="0 0 0 0 0.4 0 0 0 0 0 0 0 0 0 0 0 0 0 0.3 0" in="shadowInnerInner1"/></filter><filter x="-4.5%" y="-7.5%" width="111.1%" height="115%" filterUnits="objectBoundingBox" id="aO"><feGaussianBlur stdDeviation="1.5" in="SourceAlpha" result="shadowBlurInner1"/><feOffset in="shadowBlurInner1" result="shadowOffsetInner1"/><feComposite in="shadowOffsetInner1" in2="SourceAlpha" operator="arithmetic" k2="-1" k3="1" result="shadowInnerInner1"/><feColorMatrix values="0 0 0 0 0.501960784 0 0 0 0 0 0 0 0 0 0 0 0 0 0.3 0" in="shadowInnerInner1"/></filter><filter x="-10.2%" y="-23.8%" width="120.4%" height="178.9%" filterUnits="objectBoundingBox" id="aQ"><feMorphology radius="1.5" in="SourceAlpha" result="shadowSpreadOuter1"/><feOffset dy="20" in="shadowSpreadOuter1" result="shadowOffsetOuter1"/><feGaussianBlur stdDeviation="15" in="shadowOffsetOuter1" result="shadowBlurOuter1"/><feComposite in="shadowBlurOuter1" in2="SourceAlpha" operator="out" result="shadowBlurOuter1"/><feColorMatrix values="0 0 0 0 0 0 0 0 0 0 0 0 0 0 0 0 0 0 0.1 0" in="shadowBlurOuter1"/></filter><filter id="aS"><feColorMatrix in="SourceGraphic" values="0 0 0 0 0.540000 0 0 0 0 0.580000 0 0 0 0 0.600000 0 0 0 1.000000 0"/></filter><linearGradient x1="50%" y1="7.869%" x2="50%" y2="64.184%" id="J"><stop offset="0%"/><stop stop-opacity="0" offset="100%"/></linearGradient><linearGradient x1="50%" y1="0%" x2="83.377%" y2="42.456%" id="K"><stop stop-color="#665255" offset="0%"/><stop stop-color="#633C50" offset="100%"/></linearGradient><linearGradient x1="50%" y1="0%" x2="62.764%" y2="42.456%" id="L"><stop stop-color="#665255" offset="0%"/><stop stop-color="#633C50" offset="100%"/></linearGradient><linearGradient x1="50%" y1="0%" x2="72.486%" y2="42.456%" id="N"><stop stop-color="#505C88" offset="0%"/><stop stop-color="#394677" offset="100%"/></linearGradient><linearGradient x1="35.616%" y1="73.819%" x2="57.881%" y2="100%" id="O"><stop offset="0%"/><stop stop-opacity="0" offset="100%"/></linearGradient><linearGradient x1="32.589%" y1="73.819%" x2="59.539%" y2="100%" id="Q"><stop offset="0%"/><stop stop-opacity="0" offset="100%"/></linearGradient><linearGradient x1="53.708%" y1="62.147%" x2="66.128%" y2="82.01%" id="S"><stop offset="0%"/><stop stop-opacity="0" offset="100%"/></linearGradient><linearGradient x1="0%" y1="13.269%" x2="100%" y2="86.731%" id="V"><stop stop-color="#FFDE59" offset="0%"/><stop stop-color="#FFD426" offset="100%"/></linearGradient><linearGradient x1="69.487%" y1="41.072%" x2="0%" y2="102.993%" id="W"><stop offset="0%"/><stop stop-opacity="0" offset="100%"/></linearGradient><linearGradient x1="0%" y1="2.503%" x2="100%" y2="97.497%" id="Z"><stop stop-color="#FFDE59" offset="0%"/><stop stop-color="#FFD426" offset="100%"/></linearGradient><linearGradient x1="37.542%" y1="73.819%" x2="56.826%" y2="100%" id="ab"><stop offset="0%"/><stop stop-opacity="0" offset="100%"/></linearGradient><linearGradient x1="8.713%" y1="65.653%" x2="72.62%" y2="82.858%" id="ac"><stop offset="0%"/><stop stop-opacity="0" offset="100%"/></linearGradient><linearGradient x1="31.269%" y1="73.819%" x2="60.262%" y2="100%" id="ae"><stop offset="0%"/><stop stop-opacity="0" offset="100%"/></linearGradient><circle id="d" cx="40" cy="40" r="40"/><circle id="u" cx="40" cy="40" r="40"/><circle id="v" cx="40" cy="40" r="40"/><circle id="aj" cx="40" cy="40" r="40"/><circle id="ak" cx="40" cy="40" r="40"/><circle id="aB" cx="40" cy="40" r="40"/><circle id="aC" cx="40" cy="40" r="40"/></defs><g fill="none" fill-rule="evenodd"><g opacity=".4" stroke="#8A9499" stroke-width="4"><path opacity=".5" d="M222.5 188v480M553.5 188v480M884.5 188v480M1215.5 188v480M1546.5 188v480M1877.5 188v480"/></g><g transform="translate(367 253)"><mask id="c" fill="#fff"><use xlink:href="#a"/></mask><use fill="#000" filter="url(#b)" xlink:href="#a"/><path stroke-opacity=".1" stroke="#000" stroke-width="3" d="M780 1.5c17.259 0 32.884 6.996 44.194 18.306C835.504 31.116 842.5 46.74 842.5 64c0 17.259-6.996 32.884-18.306 44.194C812.884 119.504 797.26 126.5 780 126.5h0H64c-17.259 0-32.884-6.996-44.194-18.306C8.496 96.884 1.5 81.26 1.5 64c0-17.259 6.996-32.884 18.306-44.194C31.116 8.496 46.74 1.5 64 1.5h0z" stroke-linejoin="square" fill="#FFD426"/><path d="M153.22 77c1.707 0 3.447-.287 5.22-.86a15.182 15.182 0 004.84-2.6c1.453-1.16 2.64-2.627 3.56-4.4.92-1.773 1.38-3.873 1.38-6.3 0-2.4-.4-4.487-1.2-6.26-.8-1.773-1.867-3.247-3.2-4.42a13.12 13.12 0 00-4.6-2.62 17.083 17.083 0 00-5.4-.86h-11.16V77h10.56zm-1.76-4.56h-3.76v-19.2h4.6c1.547 0 2.967.18 4.26.54 1.293.36 2.413.92 3.36 1.68.947.76 1.687 1.753 2.22 2.98.533 1.227.8 2.693.8 4.4 0 1.733-.3 3.207-.9 4.42-.6 1.213-1.42 2.2-2.46 2.96-1.04.76-2.26 1.32-3.66 1.68-1.4.36-2.887.54-4.46.54zm30.6 5.04c1.52 0 2.973-.293 4.36-.88 1.387-.587 2.64-1.573 3.76-2.96l-3.44-2.6a8.372 8.372 0 01-2.14 1.86c-.813.493-1.82.74-3.02.74-1.36 0-2.52-.4-3.48-1.2-.96-.8-1.52-1.92-1.68-3.36h14.64v-1.32c0-1.68-.22-3.167-.66-4.46-.44-1.293-1.053-2.38-1.84-3.26a7.85 7.85 0 00-2.84-2.02c-1.107-.467-2.327-.7-3.66-.7-1.44 0-2.8.24-4.08.72-1.28.48-2.387 1.16-3.32 2.04a9.68 9.68 0 00-2.22 3.18c-.547 1.24-.82 2.62-.82 4.14 0 1.52.273 2.9.82 4.14a9.68 9.68 0 002.22 3.18c.933.88 2.04 1.56 3.32 2.04 1.28.48 2.64.72 4.08.72zm4.2-12h-9.84c.187-1.387.7-2.493 1.54-3.32.84-.827 1.98-1.24 3.42-1.24 1.52 0 2.707.407 3.56 1.22.853.813 1.293 1.927 1.32 3.34zm15.04 12c.987 0 1.973-.107 2.96-.32a8.521 8.521 0 002.66-1.04 5.812 5.812 0 001.92-1.9c.493-.787.74-1.753.74-2.9 0-1.253-.253-2.24-.76-2.96a5.47 5.47 0 00-1.92-1.7 9.833 9.833 0 00-2.5-.92c-.893-.2-1.727-.393-2.5-.58-.773-.187-1.413-.413-1.92-.68-.507-.267-.76-.693-.76-1.28 0-.72.307-1.24.92-1.56a4.02 4.02 0 011.88-.48c1.573 0 2.827.653 3.76 1.96l3.2-2.88a6.208 6.208 0 00-3.04-2.26 11.4 11.4 0 00-3.8-.66c-.96 0-1.907.12-2.84.36-.933.24-1.76.613-2.48 1.12a5.8 5.8 0 00-1.74 1.94c-.44.787-.66 1.713-.66 2.78 0 1.227.253 2.187.76 2.88a5.253 5.253 0 001.92 1.62 9.686 9.686 0 002.5.84c.893.173 1.727.36 2.5.56.773.2 1.413.46 1.92.78.507.32.76.813.76 1.48 0 .373-.1.7-.3.98-.2.28-.46.513-.78.7-.32.187-.667.32-1.04.4-.373.08-.733.12-1.08.12-1.013 0-1.873-.22-2.58-.66a9.014 9.014 0 01-1.98-1.7l-3.2 3c.987 1.12 2.107 1.893 3.36 2.32 1.253.427 2.627.64 4.12.64zm14.44-23.32c.88 0 1.62-.273 2.22-.82.6-.547.9-1.233.9-2.06s-.3-1.513-.9-2.06c-.6-.547-1.34-.82-2.22-.82-.88 0-1.607.287-2.18.86-.573.573-.86 1.247-.86 2.02 0 .773.287 1.447.86 2.02s1.3.86 2.18.86zM218.18 77V57.8h-4.8V77h4.8zm14.44 9.6c1.867 0 3.48-.267 4.84-.8 1.36-.533 2.487-1.287 3.38-2.26.893-.973 1.553-2.16 1.98-3.56.427-1.4.64-2.967.64-4.7V57.8h-4.56v2.88h-.08c-.693-1.173-1.627-2.027-2.8-2.56-1.173-.533-2.44-.8-3.8-.8-1.493 0-2.82.26-3.98.78a8.918 8.918 0 00-2.98 2.14 9.15 9.15 0 00-1.88 3.2c-.427 1.227-.64 2.547-.64 3.96 0 1.36.227 2.64.68 3.84.453 1.2 1.1 2.24 1.94 3.12.84.88 1.847 1.58 3.02 2.1s2.48.78 3.92.78a9.26 9.26 0 003.52-.7c1.147-.467 2.067-1.167 2.76-2.1h.08v1.4c0 .96-.1 1.833-.3 2.62-.2.787-.533 1.46-1 2.02-.467.56-1.093 1-1.88 1.32-.787.32-1.753.48-2.9.48-1.36 0-2.56-.24-3.6-.72s-2.04-1.16-3-2.04l-2.88 3.92c1.36 1.2 2.84 2.027 4.44 2.48 1.6.453 3.293.68 5.08.68zm.56-13.68a5.69 5.69 0 01-4.04-1.64 5.448 5.448 0 01-1.6-3.92c0-.853.14-1.633.42-2.34a5.236 5.236 0 011.16-1.8 5.278 5.278 0 011.78-1.16c.693-.28 1.467-.42 2.32-.42 1.76 0 3.147.52 4.16 1.56 1.013 1.04 1.52 2.4 1.52 4.08 0 .8-.133 1.547-.4 2.24a5.04 5.04 0 01-1.14 1.78 5.483 5.483 0 01-1.8 1.18c-.707.293-1.5.44-2.38.44zM253.7 77V66.52c0-.64.08-1.253.24-1.84.16-.587.42-1.107.78-1.56.36-.453.813-.813 1.36-1.08.547-.267 1.22-.4 2.02-.4.827 0 1.48.193 1.96.58.48.387.833.867 1.06 1.44a6.39 6.39 0 01.42 1.84c.053.653.08 1.247.08 1.78V77h4.8V64.88c0-.987-.12-1.933-.36-2.84a6.36 6.36 0 00-1.2-2.4c-.56-.693-1.287-1.253-2.18-1.68-.893-.427-1.98-.64-3.26-.64-1.6 0-2.867.353-3.8 1.06-.933.707-1.627 1.54-2.08 2.5h-.08V57.8h-4.56V77h4.8zm35.36 0V53.48h.08l8.6 23.52h3.52l8.6-23.52h.08V77h4.8V48.68h-7.6l-7.64 19.84-7.56-19.84h-7.68V77h4.8zm41.16.48c1.44 0 2.8-.24 4.08-.72 1.28-.48 2.387-1.16 3.32-2.04a9.68 9.68 0 002.22-3.18c.547-1.24.82-2.62.82-4.14 0-1.52-.273-2.9-.82-4.14a9.68 9.68 0 00-2.22-3.18c-.933-.88-2.04-1.56-3.32-2.04-1.28-.48-2.64-.72-4.08-.72s-2.8.24-4.08.72c-1.28.48-2.387 1.16-3.32 2.04a9.68 9.68 0 00-2.22 3.18c-.547 1.24-.82 2.62-.82 4.14 0 1.52.273 2.9.82 4.14a9.68 9.68 0 002.22 3.18c.933.88 2.04 1.56 3.32 2.04 1.28.48 2.64.72 4.08.72zm0-4.32c-.88 0-1.667-.16-2.36-.48a5.58 5.58 0 01-1.78-1.28 5.42 5.42 0 01-1.12-1.84 6.245 6.245 0 01-.38-2.16c0-.747.127-1.467.38-2.16a5.42 5.42 0 011.12-1.84 5.58 5.58 0 011.78-1.28c.693-.32 1.48-.48 2.36-.48.88 0 1.667.16 2.36.48a5.58 5.58 0 011.78 1.28 5.42 5.42 0 011.12 1.84c.253.693.38 1.413.38 2.16 0 .747-.127 1.467-.38 2.16a5.42 5.42 0 01-1.12 1.84 5.58 5.58 0 01-1.78 1.28c-.693.32-1.48.48-2.36.48zm24.4 4.32a9.87 9.87 0 001.52-.14 11.595 11.595 0 003.74-1.3 7.39 7.39 0 001.66-1.24l-3.2-3.44c-.453.587-1 1.033-1.64 1.34a4.75 4.75 0 01-2.08.46c-.88 0-1.667-.16-2.36-.48a5.58 5.58 0 01-1.78-1.28 5.42 5.42 0 01-1.12-1.84 6.245 6.245 0 01-.38-2.16c0-.747.127-1.467.38-2.16a5.42 5.42 0 011.12-1.84 5.58 5.58 0 011.78-1.28c.693-.32 1.48-.48 2.36-.48.64 0 1.267.173 1.88.52a7.66 7.66 0 011.76 1.4l3.32-3.32a8.42 8.42 0 00-3.26-2.22c-1.24-.467-2.473-.7-3.7-.7-1.44 0-2.8.24-4.08.72-1.28.48-2.387 1.16-3.32 2.04a9.68 9.68 0 00-2.22 3.18c-.547 1.24-.82 2.62-.82 4.14 0 1.52.273 2.9.82 4.14a9.68 9.68 0 002.22 3.18c.933.88 2.04 1.56 3.32 2.04 1.28.48 2.64.72 4.08.72zm14.6-.48v-9.8h.08l7.64 9.8h6.36l-8.76-10.48 8.24-8.72h-6.16l-7.4 7.96v-19h-4.8V77h4.8zm23.68.48c1.6 0 2.867-.353 3.8-1.06.933-.707 1.627-1.54 2.08-2.5h.08V77h4.56V57.8h-4.8v10.48c0 .64-.08 1.253-.24 1.84a4.295 4.295 0 01-.78 1.56c-.36.453-.813.813-1.36 1.08-.547.267-1.22.4-2.02.4-.853 0-1.513-.193-1.98-.58a3.518 3.518 0 01-1.04-1.44 6.39 6.39 0 01-.42-1.84 22.048 22.048 0 01-.08-1.78V57.8h-4.8v12.12c0 .987.12 1.933.36 2.84.24.907.64 1.713 1.2 2.42.56.707 1.287 1.267 2.18 1.68.893.413 1.98.62 3.26.62zm20.76 8.64V74.56h.12c.24.32.547.647.92.98a7.36 7.36 0 001.36.94 8.27 8.27 0 001.84.72c.693.187 1.493.28 2.4.28 1.36 0 2.613-.26 3.76-.78a8.758 8.758 0 002.94-2.14c.813-.907 1.447-1.973 1.9-3.2.453-1.227.68-2.547.68-3.96 0-1.413-.213-2.733-.64-3.96a9.15 9.15 0 00-1.88-3.2 8.866 8.866 0 00-3-2.14c-1.173-.52-2.493-.78-3.96-.78-1.36 0-2.627.267-3.8.8s-2.107 1.387-2.8 2.56h-.08V57.8h-4.56v28.32h4.8zm5.48-12.96c-.88 0-1.667-.16-2.36-.48A5.58 5.58 0 01415 71.4a5.42 5.42 0 01-1.12-1.84 6.245 6.245 0 01-.38-2.16c0-.747.127-1.467.38-2.16A5.42 5.42 0 01415 63.4a5.58 5.58 0 011.78-1.28c.693-.32 1.48-.48 2.36-.48.88 0 1.667.16 2.36.48a5.58 5.58 0 011.78 1.28 5.42 5.42 0 011.12 1.84c.253.693.38 1.413.38 2.16 0 .747-.127 1.467-.38 2.16a5.42 5.42 0 01-1.12 1.84 5.58 5.58 0 01-1.78 1.28c-.693.32-1.48.48-2.36.48zm20.68 4.32c.987 0 1.973-.107 2.96-.32a8.521 8.521 0 002.66-1.04 5.812 5.812 0 001.92-1.9c.493-.787.74-1.753.74-2.9 0-1.253-.253-2.24-.76-2.96a5.47 5.47 0 00-1.92-1.7 9.833 9.833 0 00-2.5-.92c-.893-.2-1.727-.393-2.5-.58-.773-.187-1.413-.413-1.92-.68-.507-.267-.76-.693-.76-1.28 0-.72.307-1.24.92-1.56a4.02 4.02 0 011.88-.48c1.573 0 2.827.653 3.76 1.96l3.2-2.88a6.208 6.208 0 00-3.04-2.26 11.4 11.4 0 00-3.8-.66c-.96 0-1.907.12-2.84.36-.933.24-1.76.613-2.48 1.12a5.8 5.8 0 00-1.74 1.94c-.44.787-.66 1.713-.66 2.78 0 1.227.253 2.187.76 2.88a5.253 5.253 0 001.92 1.62 9.686 9.686 0 002.5.84c.893.173 1.727.36 2.5.56.773.2 1.413.46 1.92.78.507.32.76.813.76 1.48 0 .373-.1.7-.3.98-.2.28-.46.513-.78.7-.32.187-.667.32-1.04.4-.373.08-.733.12-1.08.12-1.013 0-1.873-.22-2.58-.66a9.014 9.014 0 01-1.98-1.7l-3.2 3c.987 1.12 2.107 1.893 3.36 2.32 1.253.427 2.627.64 4.12.64z" fill="#FFF" fill-rule="nonzero" mask="url(#c)"/><g mask="url(#c)"><g transform="translate(27 23)"><circle stroke="#FFF" stroke-width="12" cx="41" cy="41" r="41"/><g transform="translate(1 1)"><mask id="e" fill="#fff"><use xlink:href="#d"/></mask><use fill="#FFDB6E" xlink:href="#d"/><g mask="url(#e)"><g transform="translate(8.8 3.672)"><use fill="#33261C" xlink:href="#f"/><use fill="#000" filter="url(#g)" xlink:href="#f"/><use stroke="#000" stroke-width="1.667" xlink:href="#f"/></g><path d="M17.6 33.2c0-2.872 2.33-5.2 5.205-5.2h34.39a5.206 5.206 0 015.205 5.2c0 2.872-2.33 5.2-5.205 5.2h-34.39a5.206 5.206 0 01-5.205-5.2z" fill="#33261C"/><path d="M16 26.4c0-4.86 3.948-8.8 8.804-8.8h30.392c4.862 0 8.804 3.95 8.804 8.8 0 4.86-3.948 8.8-8.804 8.8H24.804C19.942 35.2 16 31.25 16 26.4z" fill="#33261C"/><g transform="translate(8.8 3.672)"><use fill="#9E7557" xlink:href="#h"/><use fill="#000" filter="url(#i)" xlink:href="#h"/><use stroke="#593A24" stroke-width="1.667" xlink:href="#h"/></g><g transform="translate(8.8 50.4)"><mask id="l" fill="#fff"><use xlink:href="#j"/></mask><use fill="#9E7557" xlink:href="#j"/><use fill="#000" filter="url(#k)" xlink:href="#j"/><use stroke="#593A24" stroke-width="1.667" xlink:href="#j"/><path d="M13.135-22.74c-1.069-9.974 6.208-18.06 16.236-18.06h3.658c10.035 0 17.305 8.087 16.236 18.06L46.826.024c-.235 2.196-1.981 4.876-3.894 5.984l-7.579 4.387c-2.293 1.328-6.017 1.326-8.306 0l-7.579-4.387c-1.915-1.109-3.66-3.792-3.894-5.984L13.135-22.74z" fill="#802B00" opacity=".12" mask="url(#l)"/></g><g transform="translate(8.8 50.4)"><use fill="#94F7E7" xlink:href="#m"/><use fill="#000" filter="url(#n)" xlink:href="#m"/><use stroke="#499185" stroke-width="1.667" xlink:href="#m"/></g><path d="M40 70.4c6.8 0 11.2-6.4 11.2-6.4l19.2 3.2v13.6S33.2 70.4 40 70.4z" fill="#499185" opacity=".2"/><g transform="translate(21.83 6.4)"><mask id="q" fill="#fff"><use xlink:href="#o"/></mask><use fill="#9E7557" xlink:href="#o"/><use fill="#000" filter="url(#p)" xlink:href="#o"/><use stroke="#593A24" stroke-width="1.667" xlink:href="#o"/><path d="M15.77 34.4c.563.394 1.467.649 2.486.649 1.02 0 1.923-.255 2.487-.649" stroke="#71432C" stroke-width="1.667" opacity=".2" mask="url(#q)"/><path d="M35.468 10.75l.007.015A19.91 19.91 0 0138.169 20.8v4.366a9.195 9.195 0 01-2.8.434l.056-.002-1.63 15.226c-.235 2.196-1.981 4.876-3.894 5.984l-7.578 4.387c-2.294 1.328-6.018 1.326-8.307 0l-.085-.046c1.89.32 3.98-.003 5.46-.965l6.144-3.997c1.862-1.212 3.53-3.967 3.74-6.163l1.492-15.656a9.243 9.243 0 01-3.54-3.683 9.197 9.197 0 01-9.457-4.539 9.197 9.197 0 01-8 4.654 9.191 9.191 0 01-2.884-.46 9.201 9.201 0 01-8.717 5.251V20.8c0-8.246 4.99-15.326 12.115-18.386.08.005.161.01.242.017l.044-.137A19.945 19.945 0 0118.17.8c2.69 0 5.256.531 7.599 1.494l.034.106c.076 0 .152.002.228.004.26.111.519.228.774.35A14.306 14.306 0 0022.437.163c6.26.85 11.128 4.964 13.031 10.588z" fill="#802B00" opacity=".12" mask="url(#q)"/><path d="M9.37 41.6c.915-3.845 4.8-5.6 8.8-5.6 4 0 7.715 1.045 8.8 5.6 1.084 4.555-4.8 11.2-4.8 11.2h-8s-5.716-7.355-4.8-11.2z" fill="#533B2A" opacity=".4" mask="url(#q)"/></g><path d="M35.2 47.2c1.365 2.019 3.018 3.2 4.8 3.2s3.435-1.181 4.8-3.2h-9.6z" stroke="#33261C" stroke-width="1.667" fill="#FFF" stroke-linecap="round" stroke-linejoin="round"/><path d="M40 4.8c2.69 0 5.256.53 7.599 1.494l.034.106c.076 0 .15.001.226.004C54.998 9.455 60 16.54 60 24.8v4.366a9.195 9.195 0 01-2.8.434 9.199 9.199 0 01-8.143-4.915 9.197 9.197 0 01-9.457-4.54 9.195 9.195 0 01-8 4.655 9.191 9.191 0 01-2.884-.461A9.2 9.2 0 0120 29.591V24.8c0-8.246 4.989-15.326 12.114-18.386.082.005.163.01.244.017l.042-.137a19.925 19.925 0 017.255-1.491L40 4.8z" fill="#33261C"/><path d="M20.4 29.6c3.672 0 6.84-2.15 8.316-5.26.907.298 1.877.46 2.884.46a9.197 9.197 0 008-4.654 9.197 9.197 0 009.457 4.54A9.199 9.199 0 0057.2 29.6c.976 0 1.917-.152 2.8-.434" stroke="#000" stroke-width="1.667"/><g transform="translate(29.6 32.8)"><circle fill="#000" opacity=".89" cx="2.4" cy="2.4" r="2.4"/><path d="M1.6 2.4a.8.8 0 100-1.6.8.8 0 000 1.6z" fill="#FFF"/></g><g transform="translate(45.6 32.8)"><circle fill="#000" opacity=".89" cx="2.4" cy="2.4" r="2.4"/><path d="M1.6 2.4a.8.8 0 100-1.6.8.8 0 000 1.6z" fill="#FFF"/></g></g></g></g></g></g><g transform="translate(1222 253)"><mask id="t" fill="#fff"><use xlink:href="#r"/></mask><use fill="#000" filter="url(#s)" xlink:href="#r"/><path stroke-opacity=".1" stroke="#000" stroke-width="3" d="M466 1.5c17.259 0 32.884 6.996 44.194 18.306C521.504 31.116 528.5 46.74 528.5 64c0 17.259-6.996 32.884-18.306 44.194C498.884 119.504 483.26 126.5 466 126.5h0H64c-17.259 0-32.884-6.996-44.194-18.306C8.496 96.884 1.5 81.26 1.5 64c0-17.259 6.996-32.884 18.306-44.194C31.116 8.496 46.74 1.5 64 1.5h0z" stroke-linejoin="square" fill="#96DB0B"/><path d="M162.94 77.72c1.627 0 3.133-.26 4.52-.78 1.387-.52 2.587-1.26 3.6-2.22 1.013-.96 1.813-2.127 2.4-3.5.587-1.373.88-2.913.88-4.62V48.68h-5.04v17.76c0 .693-.107 1.42-.32 2.18a6.124 6.124 0 01-1.06 2.1c-.493.64-1.147 1.167-1.96 1.58-.813.413-1.82.62-3.02.62s-2.207-.207-3.02-.62c-.813-.413-1.467-.94-1.96-1.58a6.124 6.124 0 01-1.06-2.1 8.065 8.065 0 01-.32-2.18V48.68h-5.04V66.6c0 1.707.287 3.247.86 4.62.573 1.373 1.373 2.54 2.4 3.5s2.233 1.7 3.62 2.22c1.387.52 2.893.78 4.52.78zm22.92-.24c.987 0 1.973-.107 2.96-.32a8.521 8.521 0 002.66-1.04 5.812 5.812 0 001.92-1.9c.493-.787.74-1.753.74-2.9 0-1.253-.253-2.24-.76-2.96a5.47 5.47 0 00-1.92-1.7 9.833 9.833 0 00-2.5-.92c-.893-.2-1.727-.393-2.5-.58-.773-.187-1.413-.413-1.92-.68-.507-.267-.76-.693-.76-1.28 0-.72.307-1.24.92-1.56a4.02 4.02 0 011.88-.48c1.573 0 2.827.653 3.76 1.96l3.2-2.88a6.208 6.208 0 00-3.04-2.26 11.4 11.4 0 00-3.8-.66c-.96 0-1.907.12-2.84.36-.933.24-1.76.613-2.48 1.12a5.8 5.8 0 00-1.74 1.94c-.44.787-.66 1.713-.66 2.78 0 1.227.253 2.187.76 2.88a5.253 5.253 0 001.92 1.62 9.686 9.686 0 002.5.84c.893.173 1.727.36 2.5.56.773.2 1.413.46 1.92.78.507.32.76.813.76 1.48 0 .373-.1.7-.3.98-.2.28-.46.513-.78.7-.32.187-.667.32-1.04.4-.373.08-.733.12-1.08.12-1.013 0-1.873-.22-2.58-.66a9.014 9.014 0 01-1.98-1.7l-3.2 3c.987 1.12 2.107 1.893 3.36 2.32 1.253.427 2.627.64 4.12.64zm21.48 0c1.52 0 2.973-.293 4.36-.88 1.387-.587 2.64-1.573 3.76-2.96l-3.44-2.6a8.372 8.372 0 01-2.14 1.86c-.813.493-1.82.74-3.02.74-1.36 0-2.52-.4-3.48-1.2-.96-.8-1.52-1.92-1.68-3.36h14.64v-1.32c0-1.68-.22-3.167-.66-4.46-.44-1.293-1.053-2.38-1.84-3.26a7.85 7.85 0 00-2.84-2.02c-1.107-.467-2.327-.7-3.66-.7-1.44 0-2.8.24-4.08.72-1.28.48-2.387 1.16-3.32 2.04a9.68 9.68 0 00-2.22 3.18c-.547 1.24-.82 2.62-.82 4.14 0 1.52.273 2.9.82 4.14a9.68 9.68 0 002.22 3.18c.933.88 2.04 1.56 3.32 2.04 1.28.48 2.64.72 4.08.72zm4.2-12h-9.84c.187-1.387.7-2.493 1.54-3.32.84-.827 1.98-1.24 3.42-1.24 1.52 0 2.707.407 3.56 1.22.853.813 1.293 1.927 1.32 3.34zM225.62 77V66.72c0-.267.06-.667.18-1.2.12-.533.36-1.067.72-1.6.36-.533.88-1.007 1.56-1.42.68-.413 1.58-.62 2.7-.62.373 0 .753.033 1.14.1.387.067.78.153 1.18.26V57.6c-.293-.08-.58-.147-.86-.2a4.586 4.586 0 00-.86-.08c-1.28 0-2.413.307-3.4.92-.987.613-1.747 1.48-2.28 2.6h-.08V57.8h-4.8V77h4.8zm33.88 0V53.24h8.68v-4.56h-22.4v4.56h8.68V77h5.04zm16.72.48c1.52 0 2.973-.293 4.36-.88 1.387-.587 2.64-1.573 3.76-2.96l-3.44-2.6a8.372 8.372 0 01-2.14 1.86c-.813.493-1.82.74-3.02.74-1.36 0-2.52-.4-3.48-1.2-.96-.8-1.52-1.92-1.68-3.36h14.64v-1.32c0-1.68-.22-3.167-.66-4.46-.44-1.293-1.053-2.38-1.84-3.26a7.85 7.85 0 00-2.84-2.02c-1.107-.467-2.327-.7-3.66-.7-1.44 0-2.8.24-4.08.72-1.28.48-2.387 1.16-3.32 2.04a9.68 9.68 0 00-2.22 3.18c-.547 1.24-.82 2.62-.82 4.14 0 1.52.273 2.9.82 4.14a9.68 9.68 0 002.22 3.18c.933.88 2.04 1.56 3.32 2.04 1.28.48 2.64.72 4.08.72zm4.2-12h-9.84c.187-1.387.7-2.493 1.54-3.32.84-.827 1.98-1.24 3.42-1.24 1.52 0 2.707.407 3.56 1.22.853.813 1.293 1.927 1.32 3.34zm15.04 12c.987 0 1.973-.107 2.96-.32a8.521 8.521 0 002.66-1.04 5.812 5.812 0 001.92-1.9c.493-.787.74-1.753.74-2.9 0-1.253-.253-2.24-.76-2.96a5.47 5.47 0 00-1.92-1.7 9.833 9.833 0 00-2.5-.92c-.893-.2-1.727-.393-2.5-.58-.773-.187-1.413-.413-1.92-.68-.507-.267-.76-.693-.76-1.28 0-.72.307-1.24.92-1.56a4.02 4.02 0 011.88-.48c1.573 0 2.827.653 3.76 1.96l3.2-2.88a6.208 6.208 0 00-3.04-2.26 11.4 11.4 0 00-3.8-.66c-.96 0-1.907.12-2.84.36-.933.24-1.76.613-2.48 1.12a5.8 5.8 0 00-1.74 1.94c-.44.787-.66 1.713-.66 2.78 0 1.227.253 2.187.76 2.88a5.253 5.253 0 001.92 1.62 9.686 9.686 0 002.5.84c.893.173 1.727.36 2.5.56.773.2 1.413.46 1.92.78.507.32.76.813.76 1.48 0 .373-.1.7-.3.98-.2.28-.46.513-.78.7-.32.187-.667.32-1.04.4-.373.08-.733.12-1.08.12-1.013 0-1.873-.22-2.58-.66a9.014 9.014 0 01-1.98-1.7l-3.2 3c.987 1.12 2.107 1.893 3.36 2.32 1.253.427 2.627.64 4.12.64zm20 0c.56 0 1.207-.047 1.94-.14.733-.093 1.353-.26 1.86-.5V72.8c-.293.213-.693.367-1.2.46a7.77 7.77 0 01-1.4.14c-1.067 0-1.78-.28-2.14-.84-.36-.56-.54-1.32-.54-2.28v-8.4h5.28V57.8h-5.28v-5.56h-4.8v5.56h-3.96v4.08h3.96v8.8c0 1.12.087 2.107.26 2.96.173.853.493 1.567.96 2.14.467.573 1.107 1 1.92 1.28s1.86.42 3.14.42zm10.04-23.32c.88 0 1.62-.273 2.22-.82.6-.547.9-1.233.9-2.06s-.3-1.513-.9-2.06c-.6-.547-1.34-.82-2.22-.82-.88 0-1.607.287-2.18.86-.573.573-.86 1.247-.86 2.02 0 .773.287 1.447.86 2.02s1.3.86 2.18.86zM327.94 77V57.8h-4.8V77h4.8zm10.32 0V66.52c0-.64.08-1.253.24-1.84.16-.587.42-1.107.78-1.56.36-.453.813-.813 1.36-1.08.547-.267 1.22-.4 2.02-.4.827 0 1.48.193 1.96.58.48.387.833.867 1.06 1.44a6.39 6.39 0 01.42 1.84c.053.653.08 1.247.08 1.78V77h4.8V64.88c0-.987-.12-1.933-.36-2.84a6.36 6.36 0 00-1.2-2.4c-.56-.693-1.287-1.253-2.18-1.68-.893-.427-1.98-.64-3.26-.64-1.6 0-2.867.353-3.8 1.06-.933.707-1.627 1.54-2.08 2.5h-.08V57.8h-4.56V77h4.8zm27.08 9.6c1.867 0 3.48-.267 4.84-.8 1.36-.533 2.487-1.287 3.38-2.26.893-.973 1.553-2.16 1.98-3.56.427-1.4.64-2.967.64-4.7V57.8h-4.56v2.88h-.08c-.693-1.173-1.627-2.027-2.8-2.56-1.173-.533-2.44-.8-3.8-.8-1.493 0-2.82.26-3.98.78a8.918 8.918 0 00-2.98 2.14 9.15 9.15 0 00-1.88 3.2c-.427 1.227-.64 2.547-.64 3.96 0 1.36.227 2.64.68 3.84.453 1.2 1.1 2.24 1.94 3.12.84.88 1.847 1.58 3.02 2.1s2.48.78 3.92.78a9.26 9.26 0 003.52-.7c1.147-.467 2.067-1.167 2.76-2.1h.08v1.4c0 .96-.1 1.833-.3 2.62-.2.787-.533 1.46-1 2.02-.467.56-1.093 1-1.88 1.32-.787.32-1.753.48-2.9.48-1.36 0-2.56-.24-3.6-.72s-2.04-1.16-3-2.04l-2.88 3.92c1.36 1.2 2.84 2.027 4.44 2.48 1.6.453 3.293.68 5.08.68zm.56-13.68a5.69 5.69 0 01-4.04-1.64 5.448 5.448 0 01-1.6-3.92c0-.853.14-1.633.42-2.34a5.236 5.236 0 011.16-1.8 5.278 5.278 0 011.78-1.16c.693-.28 1.467-.42 2.32-.42 1.76 0 3.147.52 4.16 1.56 1.013 1.04 1.52 2.4 1.52 4.08 0 .8-.133 1.547-.4 2.24a5.04 5.04 0 01-1.14 1.78 5.483 5.483 0 01-1.8 1.18c-.707.293-1.5.44-2.38.44z" fill="#FFF" fill-rule="nonzero" mask="url(#t)"/><g mask="url(#t)"><g transform="translate(27 23)"><circle stroke="#FFF" stroke-width="12" cx="41" cy="41" r="41"/><g transform="translate(1 1)"><use fill="#B8E65C" xlink:href="#u"/><mask id="w" fill="#fff"><use xlink:href="#v"/></mask><use fill="#B8E65C" xlink:href="#v"/><g mask="url(#w)"><g transform="translate(8.8 4)"><ellipse stroke="#4D2A1F" stroke-width="1.667" fill="#805139" cx="31.2" cy="26.8" rx="22.4" ry="24.4"/><use fill="#F0C295" xlink:href="#x"/><use fill="#000" filter="url(#y)" xlink:href="#x"/><use stroke="#643" stroke-width="1.667" xlink:href="#x"/><g transform="translate(0 46.4)"><mask id="B" fill="#fff"><use xlink:href="#z"/></mask><use fill="#F0C295" xlink:href="#z"/><use fill="#000" filter="url(#A)" xlink:href="#z"/><use stroke="#643" stroke-width="1.667" xlink:href="#z"/><path d="M11.2-22.4c0-11.046 8.952-20 20-20 11.046 0 20 8.963 20 20v7.2L48.73-3.835C47.884.05 44.32 4.639 40.76 6.419l-5.273 2.637c-2.368 1.184-6.218 1.179-8.576 0L21.64 6.42C18.083 4.641 14.517.058 13.67-3.835L11.2-15.2v-7.2z" fill="#C40" opacity=".12" style="mix-blend-mode:multiply" mask="url(#B)"/><g><use fill="#50585C" xlink:href="#C"/><use fill="#000" filter="url(#D)" xlink:href="#C"/><use stroke="#323B40" stroke-width="1.667" xlink:href="#C"/></g><path fill="#323B40" opacity=".3" d="M20.8 14.4h20.8l20 4-5.2 12.8z"/><rect fill="#323B40" opacity=".2" x="20.8" y="12.8" width="20.8" height="4.8" rx="1.6"/><rect stroke="#323B40" stroke-width="1.667" fill="#50585C" x="20.8" y="11.2" width="20.8" height="4.8" rx="1.6"/><path d="M34.4 12.798c0-.882.717-1.598 1.598-1.598h4.004c.883 0 1.598.708 1.598 1.598v1.604c0 .882-.717 1.598-1.598 1.598h-4.004a1.593 1.593 0 01-1.598-1.598v-1.604z" fill="#323B40" opacity=".3"/></g><path d="M11.2 21.6c0-11.046 8.952-20 20-20h0c11.046 0 20 8.963 20 20v7.2l-2.47 11.365c-.845 3.885-4.409 8.474-7.969 10.254l-5.273 2.637c-2.368 1.184-6.218 1.179-8.576 0L21.64 50.42c-3.556-1.778-7.122-6.361-7.968-10.254L11.2 28.8v-7.2z" stroke="#643" stroke-width="1.667" fill="#F0C295"/><use fill="#F0C295" xlink:href="#E"/><use fill="#000" filter="url(#F)" xlink:href="#E"/><use stroke="#643" stroke-width="1.667" xlink:href="#E"/><path d="M29.6 37.6a1.598 1.598 0 002.573 0" stroke="#71432C" stroke-width="1.667" opacity=".2"/><path d="M11.295 19.638l2.376 10.927c.846 3.893 4.412 8.476 7.968 10.254l3.25 1.626A3.198 3.198 0 0127.997 40h6.406a3.203 3.203 0 013.108 2.445l3.25-1.626c3.56-1.78 7.124-6.369 7.968-10.254l2.376-10.924c.063.644.095 1.298.095 1.96V28.8l-2.47 11.365c-.845 3.885-4.409 8.474-7.969 10.254l-5.273 2.637c-2.368 1.184-6.218 1.179-8.576 0L21.64 50.42c-3.556-1.778-7.122-6.361-7.968-10.254L11.2 28.8v-7.2c0-.662.032-1.316.095-1.962z" fill="#643" opacity=".2"/><path d="M31.2 2.4c-11.213 0-22 6.975-23.6 18.745-.355 2.608.8 6.455 2 10.855 3.6 1.744 8-2.4 8.8-10.855 4.8 6.855 14.8 3.366 14.8 1.38C35.6 27.6 50.4 33.45 53.6 30.4c.8-2 .8-5.525.8-5.525C54.4 20.707 37.569 2.4 31.2 2.4z" fill="#C40" opacity=".12" style="mix-blend-mode:multiply"/><use fill="#805139" xlink:href="#G"/><use fill="#000" filter="url(#H)" xlink:href="#G"/><use stroke="#4D2A1F" stroke-width="1.667" xlink:href="#G"/><g transform="translate(20 28.8)"><circle fill="#573A2B" opacity=".89" cx="2.4" cy="2.4" r="2.4"/><circle fill="#573A2B" opacity=".89" cx="20" cy="2.4" r="2.4"/><path d="M1.6 2.4a.8.8 0 100-1.6.8.8 0 000 1.6zM19.2 2.4a.8.8 0 100-1.6.8.8 0 000 1.6z" fill="#FFF"/></g><path d="M26.914 43.775a7.538 7.538 0 004.286 1.329c1.59 0 3.067-.49 4.286-1.329" stroke="#99734D" stroke-width="1.667" stroke-linecap="round" stroke-linejoin="round"/><rect stroke="#939393" stroke-width="1.667" fill="#FFF" transform="rotate(-11 10.4 34.8)" x="9.6" y="32" width="1.6" height="5.6" rx=".8"/><circle stroke="#939393" stroke-width="1.667" fill="#FFF" cx="10.4" cy="32.8" r="1.6"/><rect stroke="#939393" stroke-width="1.667" fill="#FFF" transform="scale(-1 1) rotate(-11 0 574.84)" x="51.2" y="32" width="1.6" height="5.6" rx=".8"/><circle stroke="#939393" stroke-width="1.667" fill="#FFF" cx="52" cy="32.8" r="1.6"/><path d="M10.8 37.6C12.4 46.4 30.4 64 30.4 72v4.808M51.2 37.6C49.6 46.4 31.6 64 31.6 72v4.808" stroke="#979797" stroke-width="1.667"/></g></g></g></g></g></g><g transform="translate(1588 54)"><ellipse fill="#2D3864" opacity=".05" filter="url(#I)" cx="141" cy="166" rx="68" ry="145"/><path d="M47.5 291c0-1.304 27.792-80.232 55.5-78.5 21.333 1.333 39.833 32.667 55.5 94 .098-57.05-3.068-92.383-9.5-106-9.647-20.425-34-13.162-46-11.5-8 1.108-25 9.774-51 26-3 52.667-4.5 78-4.5 76z" fill="url(#J)" opacity=".2"/><path d="M146.526 329.107l11.662-10.52a3.872 3.872 0 016.407 2.203l3.12 17.69a2.904 2.904 0 01-3.89 3.22l-16.078-6.098a3.872 3.872 0 01-1.22-6.495z" fill="url(#K)" transform="rotate(100 155.21 328.707)"/><path d="M36.8 307.622l12.264-5.575a3.872 3.872 0 015.445 3.05l3.963 32.027a2.904 2.904 0 01-5.264 2.018l-17.982-25.78a3.872 3.872 0 011.574-5.74z" fill="url(#L)" transform="rotate(56 46.238 324.309)"/><g transform="translate(35.917 150.687)"><mask id="P" fill="#fff"><use xlink:href="#M"/></mask><use fill="url(#N)" xlink:href="#M"/><path d="M105.583 137.813c-2.615-20.949-4-86.5-39-89s-58 31.5-55 80.5 45.855 65.389 48.12 71.482c2.265 6.094 48.987 14.028 45.88 4.018-3.107-10.01 2.615-46.052 0-67z" fill="url(#O)" opacity=".34" style="mix-blend-mode:soft-light" mask="url(#P)"/><path d="M46.583 28.313c18.5 12 48.012 16.432 59 34 19.174 30.654 15.082 89.265 6.5 125.5-2.613 11.033 46.503 5.927 48.5-.5 1.998-6.428-29.686-164.809-41.59-162.872-11.905 1.937-64.566-10.323-67.91-8.628-3.344 1.695-9.547 9.226-4.5 12.5z" fill="url(#Q)" opacity=".34" style="mix-blend-mode:soft-light" mask="url(#P)"/></g><g transform="rotate(-62 120.827 71.91)"><mask id="T" fill="#fff"><use xlink:href="#R"/></mask><use fill="#CC8F52" transform="rotate(18 16.764 17.653)" xlink:href="#R"/><path d="M17.704 11.972c-.686 7.84-3.257 11.91-7.713 12.208-6.684.447 2.722 4.106 4.784 4.776 1.375.447 2.927-1.733 4.657-6.54-1.058-2.059-1.636-3.813-1.734-5.26-.13-1.928-.128-3.655.006-5.184z" fill="url(#S)" opacity=".3" style="mix-blend-mode:soft-light" mask="url(#T)" transform="rotate(-5 13.53 20.493)"/></g><path d="M134.15 66.87c16.518 0 31.614-15.445 31.614-31.962S156.32 5 139.804 5c-16.517 0-29.906 13.39-29.906 29.907s7.736 31.962 24.253 31.962z" fill="#402B26"/><g transform="translate(33.353 68.506)"><mask id="X" fill="#fff"><use xlink:href="#U"/></mask><use fill="url(#V)" xlink:href="#U"/><path d="M67.92 16.863c-4.273 29.63-51.257 57.13-65.273 57.13-14.017 0 8.12 19 10 19 1.88 0 61.05-24.491 64.14-33.56 3.092-9.069 25.86-54.94-8.868-42.57z" fill="url(#W)" opacity=".32" style="mix-blend-mode:soft-light" mask="url(#X)"/></g><g transform="translate(78.921 72.762)"><mask id="aa" fill="#fff"><use xlink:href="#Y"/></mask><use fill="url(#Z)" xlink:href="#Y"/><ellipse stroke="#FFCB00" stroke-width="1.936" fill="#D8E2FF" mask="url(#aa)" transform="rotate(-30 44.77 7.502)" cx="44.771" cy="7.502" rx="14.762" ry="9.922"/><path d="M59.05 28.465c-4.792 8.166 1.495 53.119-6.735 63.63-8.23 10.513 1.227 33.377 12.544 30.474 11.317-2.903 26.74-19.77 20.811-26.826-5.928-7.057-30.89-14.44-10.038-18.43 20.852-3.988 37.962-21.624 20.727-37.79-17.234-16.167-32.515-19.224-37.308-11.058z" fill="url(#ab)" opacity=".34" style="mix-blend-mode:soft-light" mask="url(#aa)"/><path d="M40.1 18.008c2.681 3.633 16.14-.25 20.69-4.653C65.343 8.95 69.175 3.597 73.377.798 77.577-2 68.449-13.087 58.397-6.824 48.347-.56 37.42 14.376 40.1 18.008z" fill="url(#ac)" opacity=".3" style="mix-blend-mode:soft-light" mask="url(#aa)"/></g><path d="M151.901 156.598h-3.337a2.42 2.42 0 00-.916.18l-5.978 2.445a1.033 1.033 0 00-.577 1.318 1.024 1.024 0 01-.58 1.31l-3.099 1.235a3.872 3.872 0 00-2.15 5.064l2.318 5.66a3.872 3.872 0 006.133 1.448l18.881-16.512c-2.47-.988-4.46-2.308-5.339-4.4l-4.331 2.024c-.321.15-.671.228-1.025.228z" fill="#CC8F52"/><g transform="translate(109.846 20.005)"><mask id="af" fill="#fff"><use xlink:href="#ad"/></mask><use fill="#CC8F52" xlink:href="#ad"/><path d="M7.796 46.431c10.907 1.087 15.347.072 9.075 8.867-6.272 8.795-10.817 16.14-9.075 17.061 1.741.922 20.617-9.246 22.99-13.876 2.373-4.63 11.992-32.656 12.706-35.856.714-3.2 10.044-14.754 0-13.068C33.448 11.244 5.605 7.38 4.892 7.38c-.713 0-2.104-.378 5.548 7.972s20.993 5.93 19.948 8.35c-1.046 2.419-6.238 8.164-4.32 9.089 1.917.925 4.266 2.45 1.917 5.418-2.35 2.967-6.689 8.221-20.19 8.221z" fill="url(#ae)" opacity=".34" style="mix-blend-mode:soft-light" mask="url(#af)"/></g><path d="M108.125 9.726c-3.991 8.4 9.9 25.061 22.215 28.328 12.316 3.268 24.246-5.087 18.173-.051-4.049 3.357-6.653 8.79-7.813 16.301l8.122-11.908c-4.993 12.735-7.175 19.2-6.547 19.392 3.64 1.115 11.641-.973 17.183-8.305 12.372-16.369 10.643-40.643-11.01-47.158-20.717-6.233-26.475 7.662-40.323 3.4z" fill="#402B26"/></g><g transform="translate(230 431)"><mask id="ai" fill="#fff"><use xlink:href="#ag"/></mask><use fill="#000" filter="url(#ah)" xlink:href="#ag"/><path stroke-opacity=".1" stroke="#000" stroke-width="3" d="M420 1.5c17.259 0 32.884 6.996 44.194 18.306C475.504 31.116 482.5 46.74 482.5 64c0 17.259-6.996 32.884-18.306 44.194C452.884 119.504 437.26 126.5 420 126.5h0H64c-17.259 0-32.884-6.996-44.194-18.306C8.496 96.884 1.5 81.26 1.5 64c0-17.259 6.996-32.884 18.306-44.194C31.116 8.496 46.74 1.5 64 1.5h0z" stroke-linejoin="square" fill="#FA0"/><path d="M142.14 78l2.56-6.48h12.28l2.64 6.48h5.76l-12.2-28.32h-4.36L136.5 78h5.64zm13.08-10.8h-8.8l4.44-11.52 4.36 11.52zM172.9 78V67.52c0-.64.08-1.253.24-1.84.16-.587.42-1.107.78-1.56.36-.453.813-.813 1.36-1.08.547-.267 1.22-.4 2.02-.4.827 0 1.48.193 1.96.58.48.387.833.867 1.06 1.44a6.39 6.39 0 01.42 1.84c.053.653.08 1.247.08 1.78V78h4.8V65.88c0-.987-.12-1.933-.36-2.84a6.36 6.36 0 00-1.2-2.4c-.56-.693-1.287-1.253-2.18-1.68-.893-.427-1.98-.64-3.26-.64-1.6 0-2.867.353-3.8 1.06-.933.707-1.627 1.54-2.08 2.5h-.08V58.8h-4.56V78h4.8zm23.88.48c1.28 0 2.453-.247 3.52-.74 1.067-.493 1.947-1.287 2.64-2.38h.12V78h4.32V66.96c0-.453-.013-.98-.04-1.58-.027-.6-.113-1.22-.26-1.86a7.707 7.707 0 00-.72-1.9 5.217 5.217 0 00-1.42-1.66c-.613-.48-1.387-.873-2.32-1.18-.933-.307-2.08-.46-3.44-.46-1.52 0-2.993.24-4.42.72a9.304 9.304 0 00-3.74 2.36l2.52 2.52a7.19 7.19 0 012.28-1.46c.88-.36 1.827-.54 2.84-.54 1.28 0 2.333.3 3.16.9.827.6 1.24 1.5 1.24 2.7v.52h-1.2c-.8 0-1.653.02-2.56.06-.907.04-1.807.133-2.7.28-.893.147-1.753.367-2.58.66a7.602 7.602 0 00-2.18 1.18 5.463 5.463 0 00-1.5 1.84c-.373.733-.56 1.62-.56 2.66 0 .96.2 1.8.6 2.52.4.72.927 1.32 1.58 1.8s1.4.84 2.24 1.08c.84.24 1.7.36 2.58.36zm1.16-3.6c-.4 0-.8-.047-1.2-.14-.4-.093-.76-.247-1.08-.46a2.717 2.717 0 01-.78-.78c-.2-.307-.3-.687-.3-1.14 0-.693.253-1.233.76-1.62s1.127-.68 1.86-.88c.733-.2 1.513-.327 2.34-.38.827-.053 1.573-.08 2.24-.08h1v1.08c0 1.36-.393 2.433-1.18 3.22-.787.787-2.007 1.18-3.66 1.18zM217.42 78V47.76h-4.8V78h4.8zm7.04 9.6c1.067 0 1.98-.113 2.74-.34a5.513 5.513 0 001.98-1.04 6.834 6.834 0 001.46-1.72c.413-.68.793-1.473 1.14-2.38l9.08-23.32h-5l-4.8 13.32h-.08l-5.36-13.32h-5.28l8.2 19.36-.92 2.28c-.213.507-.413.94-.6 1.3-.187.36-.42.653-.7.88-.28.227-.62.393-1.02.5-.4.107-.893.16-1.48.16-.427 0-.847-.047-1.26-.14a10.16 10.16 0 01-1.18-.34l-.6 4.32c1.2.32 2.427.48 3.68.48zm25-9.12c.987 0 1.973-.107 2.96-.32a8.521 8.521 0 002.66-1.04 5.812 5.812 0 001.92-1.9c.493-.787.74-1.753.74-2.9 0-1.253-.253-2.24-.76-2.96a5.47 5.47 0 00-1.92-1.7 9.833 9.833 0 00-2.5-.92c-.893-.2-1.727-.393-2.5-.58-.773-.187-1.413-.413-1.92-.68-.507-.267-.76-.693-.76-1.28 0-.72.307-1.24.92-1.56a4.02 4.02 0 011.88-.48c1.573 0 2.827.653 3.76 1.96l3.2-2.88a6.208 6.208 0 00-3.04-2.26 11.4 11.4 0 00-3.8-.66c-.96 0-1.907.12-2.84.36-.933.24-1.76.613-2.48 1.12a5.8 5.8 0 00-1.74 1.94c-.44.787-.66 1.713-.66 2.78 0 1.227.253 2.187.76 2.88a5.253 5.253 0 001.92 1.62 9.686 9.686 0 002.5.84c.893.173 1.727.36 2.5.56.773.2 1.413.46 1.92.78.507.32.76.813.76 1.48 0 .373-.1.7-.3.98-.2.28-.46.513-.78.7-.32.187-.667.32-1.04.4-.373.08-.733.12-1.08.12-1.013 0-1.873-.22-2.58-.66a9.014 9.014 0 01-1.98-1.7l-3.2 3c.987 1.12 2.107 1.893 3.36 2.32 1.253.427 2.627.64 4.12.64zm14.44-23.32c.88 0 1.62-.273 2.22-.82.6-.547.9-1.233.9-2.06s-.3-1.513-.9-2.06c-.6-.547-1.34-.82-2.22-.82-.88 0-1.607.287-2.18.86-.573.573-.86 1.247-.86 2.02 0 .773.287 1.447.86 2.02s1.3.86 2.18.86zM266.34 78V58.8h-4.8V78h4.8zm11.28.48c.987 0 1.973-.107 2.96-.32a8.521 8.521 0 002.66-1.04 5.812 5.812 0 001.92-1.9c.493-.787.74-1.753.74-2.9 0-1.253-.253-2.24-.76-2.96a5.47 5.47 0 00-1.92-1.7 9.833 9.833 0 00-2.5-.92c-.893-.2-1.727-.393-2.5-.58-.773-.187-1.413-.413-1.92-.68-.507-.267-.76-.693-.76-1.28 0-.72.307-1.24.92-1.56a4.02 4.02 0 011.88-.48c1.573 0 2.827.653 3.76 1.96l3.2-2.88a6.208 6.208 0 00-3.04-2.26 11.4 11.4 0 00-3.8-.66c-.96 0-1.907.12-2.84.36-.933.24-1.76.613-2.48 1.12a5.8 5.8 0 00-1.74 1.94c-.44.787-.66 1.713-.66 2.78 0 1.227.253 2.187.76 2.88a5.253 5.253 0 001.92 1.62 9.686 9.686 0 002.5.84c.893.173 1.727.36 2.5.56.773.2 1.413.46 1.92.78.507.32.76.813.76 1.48 0 .373-.1.7-.3.98-.2.28-.46.513-.78.7-.32.187-.667.32-1.04.4-.373.08-.733.12-1.08.12-1.013 0-1.873-.22-2.58-.66a9.014 9.014 0 01-1.98-1.7l-3.2 3c.987 1.12 2.107 1.893 3.36 2.32 1.253.427 2.627.64 4.12.64z" fill="#FFF" fill-rule="nonzero" mask="url(#ai)"/><g mask="url(#ai)"><g transform="translate(27 23)"><circle stroke="#FFF" stroke-width="12" cx="41" cy="41" r="41"/><g transform="translate(1 1)"><use fill="#94F794" xlink:href="#aj"/><mask id="al" fill="#fff"><use xlink:href="#ak"/></mask><use fill="#94F794" xlink:href="#ak"/><g mask="url(#al)"><g transform="translate(12 3.2)"><use fill="#805540" xlink:href="#am"/><use fill="#000" filter="url(#an)" xlink:href="#am"/><use stroke="#643" stroke-width="1.667" xlink:href="#am"/></g><g transform="translate(12 3.2)"><use fill="#F0C295" xlink:href="#ao"/><use fill="#000" filter="url(#ap)" xlink:href="#ao"/><use stroke="#643" stroke-width="1.667" xlink:href="#ao"/></g><g transform="translate(12 3.2)"><use fill="#F0C295" xlink:href="#aq"/><use fill="#000" filter="url(#ar)" xlink:href="#aq"/><use stroke="#643" stroke-width="1.667" xlink:href="#aq"/></g><g transform="translate(12 3.2)"><use fill="#A17EE6" xlink:href="#as"/><use fill="#000" filter="url(#at)" xlink:href="#as"/><use stroke="#6B5499" stroke-width="1.667" xlink:href="#as"/></g><path d="M39.6 75.2c4.533 0 14-9.6 14-9.6l13.6 4.8v12.8s-32.133-8-27.6-8z" fill="#6B5499" opacity=".3"/><path d="M20 28c0-11.046 8.952-20 20-20 11.046 0 20 8.963 20 20v7.2l-.745 5.708c-.914 7.01-6.781 15.255-13.1 18.414l-4.014 2.008c-1.183.59-3.1.59-4.282 0l-4.015-2.008c-6.32-3.16-12.185-11.405-13.1-18.414L20 35.2V28z" fill="#C40" opacity=".12" style="mix-blend-mode:multiply"/><g transform="translate(12 3.2)"><use fill="#F0C295" xlink:href="#au"/><use fill="#000" filter="url(#av)" xlink:href="#au"/><use stroke="#643" stroke-width="1.667" xlink:href="#au"/></g><path d="M38.713 43.351a1.598 1.598 0 002.574 0" stroke="#71432C" stroke-width="1.667" opacity=".2"/><path d="M40 5.6c11.046 0 20 8.963 20 20v7.2l-.745 5.708c-.914 7.01-6.864 15.06-13.309 17.99l-3.753 1.705c-.79.359-1.894.486-2.906.377l1.06-.483c6.444-2.93 12.394-10.98 13.308-17.989L54.4 34.4v-7.2c0-11.037-8.954-20-20-20l-.345.003c-.778.013-1.546.07-2.3.17a19.91 19.91 0 017.9-1.77L40 5.6z" fill="#C40" opacity=".12"/><path d="M34.4 48c1.592 2.019 3.521 3.2 5.6 3.2 2.079 0 4.008-1.181 5.6-3.2H34.4z" stroke="#D47F8D" stroke-width="1.667" fill="#FFF" stroke-linecap="round" stroke-linejoin="round"/><g transform="translate(27.2 34.4)"><circle fill="#573A2B" opacity=".89" cx="3.2" cy="2.4" r="2.4"/><path fill="#694B3C" d="M2.4 1.6L0 .8l2.4 2.4z"/><path d="M2.4 2.4a.8.8 0 100-1.6.8.8 0 000 1.6z" fill="#FFF"/><circle fill="#FFF" opacity=".2" cx="4" cy="3.2" r="1"/></g><g transform="translate(47.2 34.4)"><circle fill="#573A2B" opacity=".89" cx="2.4" cy="2.4" r="2.4"/><path fill="#694B3C" d="M3.2 1.6L5.6.8 3.2 3.2z"/><path d="M1.6 2.4a.8.8 0 100-1.6.8.8 0 000 1.6z" fill="#FFF"/><circle fill="#FFF" opacity=".2" cx="3.2" cy="3.2" r="1"/></g><path d="M41.958 33.456l-.651-.203c-.75-.234-1.861-.235-2.614 0l-.65.203c-.396.123-.556.422-.359.668.198.247.679.347 1.074.223l.65-.202c.302-.094.883-.094 1.183 0l.651.202c.395.124.876.024 1.074-.223.197-.246.037-.545-.358-.668zM23.2 33.6h-4a.8.8 0 100 1.6h4a.8.8 0 100-1.6zM60 33.6h-3.2a.8.8 0 100 1.6H60a.8.8 0 100-1.6z" fill="#453734" fill-rule="nonzero"/><path d="M23.6 33.788c.19-1.48 4.268-1.255 7.524-1.255 3.256 0 6.735.846 6.37 3.69-.366 2.843-1.062 5.365-6.37 5.7-5.308.336-7.714-6.654-7.524-8.135z" fill="#EFE8FD" opacity=".3"/><path d="M31.22 30.827c-3.864 0-8.594.702-8.82 1.832-.226 1.13 2.52 10.541 8.82 10.114 6.075-.411 7.06-3.41 7.512-6.867l.048-.386c.433-3.618-3.696-4.693-7.56-4.693zm-.096 1.706c3.256 0 6.735.846 6.37 3.69-.366 2.843-1.062 5.365-6.37 5.7-5.308.336-6.914-5.902-6.724-7.382.19-1.48 3.468-2.008 6.724-2.008z" fill="#453734"/><g><path d="M56.4 33.788c-.19-1.48-4.268-1.255-7.524-1.255-3.256 0-6.735.846-6.37 3.69.366 2.843 1.062 5.365 6.37 5.7 5.308.336 7.714-6.654 7.524-8.135z" fill="#EFE8FD" opacity=".3"/><path d="M48.78 30.827c3.864 0 8.594.702 8.82 1.832.226 1.13-2.52 10.541-8.82 10.114-6.075-.411-7.06-3.41-7.512-6.867l-.048-.386c-.433-3.618 3.696-4.693 7.56-4.693zm.096 1.706c-3.256 0-6.735.846-6.37 3.69.366 2.843 1.062 5.365 6.37 5.7 5.308.336 6.914-5.902 6.724-7.382-.19-1.48-3.468-2.008-6.724-2.008z" fill="#453734"/></g><g><path d="M15.2 39.2c.8-4.002 1.6-6 1.6-11.998C16.8 16 27.184 5.6 40 5.6c12.813 0 23.2 10.473 23.2 22.4 0 2.327-.8 6.8 1.2 9.598C56 39.2 47.896 28.157 46.83 24c-1.23 1.602-1.23 6-.43 7.6-6.83-1.357-11.215-6.32-14.563-9.6C28.83 27.202 26.4 39.2 15.2 39.2z" fill="#C40" opacity=".12" style="mix-blend-mode:multiply"/><g stroke-linecap="round" stroke-linejoin="round" transform="translate(12.8 3.2)"><use fill="#99664D" xlink:href="#aw"/><use fill="#000" filter="url(#ax)" xlink:href="#aw"/><use stroke="#643" stroke-width="1.667" xlink:href="#aw"/></g></g></g></g></g></g></g><g transform="translate(1553 431)"><mask id="aA" fill="#fff"><use xlink:href="#ay"/></mask><use fill="#000" filter="url(#az)" xlink:href="#ay"/><path stroke-opacity=".1" stroke="#000" stroke-width="3" d="M253 1.5c17.259 0 32.884 6.996 44.194 18.306C308.504 31.116 315.5 46.74 315.5 64c0 17.259-6.996 32.884-18.306 44.194C285.884 119.504 270.26 126.5 253 126.5h0H64c-17.259 0-32.884-6.996-44.194-18.306C8.496 96.884 1.5 81.26 1.5 64c0-17.259 6.996-32.884 18.306-44.194C31.116 8.496 46.74 1.5 64 1.5h0z" stroke-linejoin="square" fill="#2BD9D9"/><path d="M180.06 78v-4.08h-8.12v-.08c.667-.4 1.353-.893 2.06-1.48.707-.587 1.353-1.313 1.94-2.18.587-.867 1.06-1.867 1.42-3 .36-1.133.54-2.447.54-3.94 0-2.08-.393-3.993-1.18-5.74a13.91 13.91 0 00-3.22-4.52 14.833 14.833 0 00-4.74-2.96c-1.8-.707-3.713-1.06-5.74-1.06s-3.94.353-5.74 1.06c-1.8.707-3.38 1.693-4.74 2.96a13.91 13.91 0 00-3.22 4.52c-.787 1.747-1.18 3.66-1.18 5.74 0 2.293.393 4.353 1.18 6.18.787 1.827 1.867 3.373 3.24 4.64 1.373 1.267 3 2.24 4.88 2.92 1.88.68 3.927 1.02 6.14 1.02h16.48zm-17.08-4.56c-1.387 0-2.66-.253-3.82-.76a9.249 9.249 0 01-3.02-2.1c-.853-.893-1.52-1.96-2-3.2-.48-1.24-.72-2.58-.72-4.02 0-1.413.24-2.72.72-3.92a9.66 9.66 0 011.98-3.12 8.924 8.924 0 013-2.06c1.16-.493 2.42-.74 3.78-.74 1.44 0 2.753.247 3.94.74a9.042 9.042 0 013.06 2.06 9.49 9.49 0 012 3.12c.48 1.2.72 2.507.72 3.92 0 1.44-.24 2.78-.72 4.02-.48 1.24-1.147 2.307-2 3.2a9.142 9.142 0 01-3.06 2.1c-1.187.507-2.473.76-3.86.76zM186.22 78l2.56-6.48h12.28L203.7 78h5.76l-12.2-28.32h-4.36L180.58 78h5.64zm13.08-10.8h-8.8l4.44-11.52 4.36 11.52z" fill="#FFF" fill-rule="nonzero" mask="url(#aA)"/><g mask="url(#aA)"><g transform="translate(27 23)"><circle stroke="#FFF" stroke-width="12" cx="41" cy="41" r="41"/><g transform="translate(1 1)"><use fill="#FFDB6E" xlink:href="#aB"/><mask id="aD" fill="#fff"><use xlink:href="#aC"/></mask><use fill="#FFDB6E" xlink:href="#aC"/><g mask="url(#aD)"><g transform="translate(8.8 3.2)"><use fill="#BF8F60" xlink:href="#aE"/><use fill="#000" filter="url(#aF)" xlink:href="#aE"/><use stroke="#806040" stroke-width="1.667" xlink:href="#aE"/></g><g transform="translate(8.8 50.4)"><mask id="aI" fill="#fff"><use xlink:href="#aG"/></mask><use fill="#BF8F60" xlink:href="#aG"/><use fill="#000" filter="url(#aH)" xlink:href="#aG"/><use stroke="#806040" stroke-width="1.667" xlink:href="#aG"/><path d="M11.2-22.4c0-11.046 8.952-20 20-20 11.046 0 20 8.963 20 20v7.2L46.019.991c-.673 2.104-2.833 4.568-4.846 5.516l-5.632 2.65c-2.398 1.128-6.29 1.126-8.682 0l-5.632-2.65C19.224 5.564 17.054 3.095 16.38.99L11.2-15.2v-7.2z" fill="#C40" opacity=".12" style="mix-blend-mode:multiply" mask="url(#aI)"/></g><g transform="translate(8.8 50.4)"><use fill="#B8E65C" xlink:href="#aJ"/><use fill="#000" filter="url(#aK)" xlink:href="#aJ"/><use stroke="#538026" stroke-width="1.667" xlink:href="#aJ"/></g><path fill="#538026" opacity=".2" d="M40 72l12-8 18.4 4v12.8z"/><g transform="translate(8.8 3.2)"><use fill="#BF8F60" xlink:href="#aL"/><use fill="#000" filter="url(#aM)" xlink:href="#aL"/><use stroke="#806040" stroke-width="1.667" xlink:href="#aL"/></g><path d="M38.4 43.2a1.598 1.598 0 002.573 0" stroke="#71432C" stroke-width="1.667" opacity=".2"/><path d="M40 5.6a19.9 19.9 0 0110.003 2.679c4.523 2.095 7.772 5.866 10.211 10.921 2.667 5.526 0 14.698 0 14.698a2.292 2.292 0 01-.716.473l-4.68 14.62c-.672 2.104-2.832 4.568-4.845 5.516l-5.632 2.65c-1.74.82-4.268 1.042-6.438.673 1.28-.083 2.52-.394 3.503-.932l3.98-2.178c1.933-1.057 3.985-3.646 4.571-5.776L54.4 32.8v-2.099c-1.263-2.143-2.312-4.97-2.8-7.901-.776.884-10.02 10.162-22.8 6.37-.852 8.43-10.4 6.03-10.4 6.03l-1.6-6.03C16.8 16.594 27.478 6.4 40.657 6.4c.667 0 1.316.022 1.947.066a17.135 17.135 0 00-4.057-.814c.367-.026.737-.043 1.108-.05L40 5.6z" fill="#C40" opacity=".12" style="mix-blend-mode:multiply"/><path d="M36 48c1.137 2.019 2.515 3.2 4 3.2 1.485 0 2.863-1.181 4-3.2h-8z" stroke="#99734D" stroke-width="1.667" fill="#FFF" stroke-linecap="round" stroke-linejoin="round"/><path stroke="#4D3326" stroke-width="1.667" fill="#643" d="M20 31.2h3.2l.8 9.6-2.4-1.477zM61.6 27.116l-4-1.516L56 40l2.4-1.516z"/><g transform="translate(8.8 3.2)"><use fill="#643" xlink:href="#aN"/><use fill="#000" filter="url(#aO)" xlink:href="#aN"/><use stroke="#4D3326" stroke-width="1.667" xlink:href="#aN"/></g><g transform="translate(28.8 33.6)"><circle fill="#4D3326" opacity=".89" cx="2.4" cy="2.4" r="2.4"/><circle fill="#4D3326" opacity=".89" cx="20" cy="2.4" r="2.4"/><path d="M1.6 2.4a.8.8 0 100-1.6.8.8 0 000 1.6zM19.2 2.4a.8.8 0 100-1.6.8.8 0 000 1.6z" fill="#FFF"/></g></g></g></g></g></g><g transform="translate(898 431)"><mask id="aR" fill="#fff"><use xlink:href="#aP"/></mask><use fill="#000" filter="url(#aQ)" xlink:href="#aP"/><path stroke-opacity=".1" stroke="#000" stroke-width="3" d="M430 1.5c17.259 0 32.884 6.996 44.194 18.306C485.504 31.116 492.5 46.74 492.5 64c0 17.259-6.996 32.884-18.306 44.194C462.884 119.504 447.26 126.5 430 126.5h0H64c-17.259 0-32.884-6.996-44.194-18.306C8.496 96.884 1.5 81.26 1.5 64c0-17.259 6.996-32.884 18.306-44.194C31.116 8.496 46.74 1.5 64 1.5h0z" stroke-linejoin="square" fill="#FFF"/><path d="M149.7 78V66.28h3.6c1.493 0 2.927-.107 4.3-.32 1.373-.213 2.58-.62 3.62-1.22s1.867-1.447 2.48-2.54.92-2.533.92-4.32c0-1.573-.287-2.887-.86-3.94s-1.34-1.893-2.3-2.52c-.96-.627-2.073-1.073-3.34-1.34-1.267-.267-2.58-.4-3.94-.4h-9.52V78h5.04zm3.04-16.04h-3.04V54h3.6c.667 0 1.36.04 2.08.12.72.08 1.373.26 1.96.54a3.71 3.71 0 011.44 1.2c.373.52.56 1.22.56 2.1 0 .96-.207 1.707-.62 2.24a3.798 3.798 0 01-1.6 1.2 6.88 6.88 0 01-2.14.48c-.773.053-1.52.08-2.24.08zM173.46 78V67.72c0-.267.06-.667.18-1.2.12-.533.36-1.067.72-1.6.36-.533.88-1.007 1.56-1.42.68-.413 1.58-.62 2.7-.62.373 0 .753.033 1.14.1.387.067.78.153 1.18.26V58.6c-.293-.08-.58-.147-.86-.2a4.586 4.586 0 00-.86-.08c-1.28 0-2.413.307-3.4.92-.987.613-1.747 1.48-2.28 2.6h-.08V58.8h-4.8V78h4.8zm19.52.48c1.44 0 2.8-.24 4.08-.72 1.28-.48 2.387-1.16 3.32-2.04a9.68 9.68 0 002.22-3.18c.547-1.24.82-2.62.82-4.14 0-1.52-.273-2.9-.82-4.14a9.68 9.68 0 00-2.22-3.18c-.933-.88-2.04-1.56-3.32-2.04-1.28-.48-2.64-.72-4.08-.72s-2.8.24-4.08.72c-1.28.48-2.387 1.16-3.32 2.04a9.68 9.68 0 00-2.22 3.18c-.547 1.24-.82 2.62-.82 4.14 0 1.52.273 2.9.82 4.14a9.68 9.68 0 002.22 3.18c.933.88 2.04 1.56 3.32 2.04 1.28.48 2.64.72 4.08.72zm0-4.32c-.88 0-1.667-.16-2.36-.48a5.58 5.58 0 01-1.78-1.28 5.42 5.42 0 01-1.12-1.84 6.245 6.245 0 01-.38-2.16c0-.747.127-1.467.38-2.16a5.42 5.42 0 011.12-1.84 5.58 5.58 0 011.78-1.28c.693-.32 1.48-.48 2.36-.48.88 0 1.667.16 2.36.48a5.58 5.58 0 011.78 1.28 5.42 5.42 0 011.12 1.84c.253.693.38 1.413.38 2.16 0 .747-.127 1.467-.38 2.16a5.42 5.42 0 01-1.12 1.84 5.58 5.58 0 01-1.78 1.28c-.693.32-1.48.48-2.36.48zm22.92 4.32c.56 0 1.207-.047 1.94-.14.733-.093 1.353-.26 1.86-.5V73.8c-.293.213-.693.367-1.2.46a7.77 7.77 0 01-1.4.14c-1.067 0-1.78-.28-2.14-.84-.36-.56-.54-1.32-.54-2.28v-8.4h5.28V58.8h-5.28v-5.56h-4.8v5.56h-3.96v4.08h3.96v8.8c0 1.12.087 2.107.26 2.96.173.853.493 1.567.96 2.14.467.573 1.107 1 1.92 1.28s1.86.42 3.14.42zm17.04 0c1.44 0 2.8-.24 4.08-.72 1.28-.48 2.387-1.16 3.32-2.04a9.68 9.68 0 002.22-3.18c.547-1.24.82-2.62.82-4.14 0-1.52-.273-2.9-.82-4.14a9.68 9.68 0 00-2.22-3.18c-.933-.88-2.04-1.56-3.32-2.04-1.28-.48-2.64-.72-4.08-.72s-2.8.24-4.08.72c-1.28.48-2.387 1.16-3.32 2.04a9.68 9.68 0 00-2.22 3.18c-.547 1.24-.82 2.62-.82 4.14 0 1.52.273 2.9.82 4.14a9.68 9.68 0 002.22 3.18c.933.88 2.04 1.56 3.32 2.04 1.28.48 2.64.72 4.08.72zm0-4.32c-.88 0-1.667-.16-2.36-.48a5.58 5.58 0 01-1.78-1.28 5.42 5.42 0 01-1.12-1.84 6.245 6.245 0 01-.38-2.16c0-.747.127-1.467.38-2.16a5.42 5.42 0 011.12-1.84 5.58 5.58 0 011.78-1.28c.693-.32 1.48-.48 2.36-.48.88 0 1.667.16 2.36.48a5.58 5.58 0 011.78 1.28 5.42 5.42 0 011.12 1.84c.253.693.38 1.413.38 2.16 0 .747-.127 1.467-.38 2.16a5.42 5.42 0 01-1.12 1.84 5.58 5.58 0 01-1.78 1.28c-.693.32-1.48.48-2.36.48zm22.92 4.32c.56 0 1.207-.047 1.94-.14.733-.093 1.353-.26 1.86-.5V73.8c-.293.213-.693.367-1.2.46a7.77 7.77 0 01-1.4.14c-1.067 0-1.78-.28-2.14-.84-.36-.56-.54-1.32-.54-2.28v-8.4h5.28V58.8h-5.28v-5.56h-4.8v5.56h-3.96v4.08h3.96v8.8c0 1.12.087 2.107.26 2.96.173.853.493 1.567.96 2.14.467.573 1.107 1 1.92 1.28s1.86.42 3.14.42zm9.08 9.12c1.067 0 1.98-.113 2.74-.34a5.513 5.513 0 001.98-1.04 6.834 6.834 0 001.46-1.72c.413-.68.793-1.473 1.14-2.38l9.08-23.32h-5l-4.8 13.32h-.08L266.1 58.8h-5.28l8.2 19.36-.92 2.28c-.213.507-.413.94-.6 1.3-.187.36-.42.653-.7.88-.28.227-.62.393-1.02.5-.4.107-.893.16-1.48.16-.427 0-.847-.047-1.26-.14a10.16 10.16 0 01-1.18-.34l-.6 4.32c1.2.32 2.427.48 3.68.48z" fill="#3D474D" fill-rule="nonzero" mask="url(#aR)"/><rect fill="#0AF" mask="url(#aR)" x="286" y="27" width="8" height="75" rx="4"/><g mask="url(#aR)"><g transform="translate(27 23)"><circle stroke="#FFF" stroke-width="12" cx="41" cy="41" r="41"/><g filter="url(#aS)" transform="translate(1 1)"><path d="M40 73.333A3.333 3.333 0 1140 80a3.333 3.333 0 010-6.667zm12.783-2.548a3.333 3.333 0 112.497 6.181 3.333 3.333 0 01-2.497-6.181zM22.9 72.573a3.333 3.333 0 116.137 2.605 3.333 3.333 0 01-6.137-2.605zm40.67-9.003a3.333 3.333 0 114.714 4.714 3.333 3.333 0 01-4.714-4.714zm-51.854 0a3.333 3.333 0 114.714 4.714 3.333 3.333 0 01-4.714-4.714zM39.53 55.2c2.505 0 4.484 1.918 4.484 4.36 0 2.444-1.979 4.392-4.484 4.392s-4.515-1.948-4.515-4.391 2.01-4.36 4.515-4.36zm31.276-2.47a3.333 3.333 0 116.137 2.604 3.333 3.333 0 01-6.137-2.605zM4.822 50.962A3.333 3.333 0 117.427 57.1a3.333 3.333 0 01-2.605-6.137zm35.823-32.625c8.38 0 14.132 4.763 14.132 11.752 0 4.731-2.35 7.978-6.556 10.483-4.051 2.35-5.04 3.835-5.288 6.649-.31 2.04-1.36 3.309-3.464 3.309-2.35 0-3.649-1.67-3.649-3.928v-.587c0-3.835 1.918-6.37 5.783-8.66 3.835-2.319 5.134-4.02 5.134-6.988 0-3.37-2.629-5.721-6.433-5.721-3.432 0-5.72 1.7-6.71 4.824-.68 1.917-1.825 2.69-3.526 2.69-2.133 0-3.401-1.298-3.401-3.37 0-1.33.278-2.474.866-3.65 1.917-4.205 6.741-6.803 13.112-6.803zm36.022 18.329a3.333 3.333 0 110 6.666 3.333 3.333 0 010-6.666zm-73.334 0a3.333 3.333 0 110 6.666 3.333 3.333 0 010-6.666zm69.294-13.79a3.333 3.333 0 112.497 6.182 3.333 3.333 0 01-2.497-6.181zm-69.57 1.789a3.333 3.333 0 116.136 2.605 3.333 3.333 0 01-6.137-2.605zm60.513-12.95a3.333 3.333 0 114.714 4.714 3.333 3.333 0 01-4.714-4.714zm-51.854 0a3.333 3.333 0 114.714 4.714 3.333 3.333 0 01-4.714-4.714zm39.247-6.894A3.333 3.333 0 1157.1 7.427a3.333 3.333 0 01-6.137-2.605zM24.72 3.034a3.333 3.333 0 112.497 6.181 3.333 3.333 0 01-2.497-6.181zM40 0a3.333 3.333 0 110 6.667A3.333 3.333 0 0140 0z" fill="#3D474D"/></g></g></g></g><path d="M1330 420c20.71 0 39.46 8.395 53.033 21.967C1396.605 455.539 1405 474.289 1405 495c0 20.71-8.395 39.46-21.967 53.033C1369.461 561.605 1350.711 570 1330 570h0-370c-20.71 0-39.46-8.395-53.033-21.967C893.395 534.461 885 515.711 885 495c0-20.71 8.395-39.46 21.967-53.033C920.539 428.395 939.289 420 960 420h0z" stroke="#0AF" stroke-width="10"/></g></svg>