<svg xmlns="http://www.w3.org/2000/svg" width="100%" height="100%" viewBox="0 0 24 24">
  <path fill="#000" fill-rule="evenodd" d="M14.009222,0 C14.5173285,0 14.9361019,0.382720178 14.9933343,0.882667443 L15,1 C15,1.55228475 14.5490248,2 14.009222,2 L13,2 L13.0006804,3.04706426 C18.3302872,3.55094165 22.5,8.03852652 22.5,13.5 C22.5,19.2989899 17.7989899,24 12,24 C6.20101013,24 1.5,19.2989899 1.5,13.5 C1.5,8.03818456 5.67023499,3.55037969 11.0003207,3.04696966 L11,2 L9.99077797,2 C9.44358641,2 9,1.55613518 9,1 C9,0.44771525 9.45097518,0 9.99077797,0 L14.009222,0 Z M12,5 C7.30557963,5 3.5,8.80557963 3.5,13.5 C3.5,18.1944204 7.30557963,22 12,22 C16.6944204,22 20.5,18.1944204 20.5,13.5 C20.5,8.80557963 16.6944204,5 12,5 Z M12,12 C12.8284271,12 13.5,12.6715729 13.5,13.5 C13.5,14.3284271 12.8284271,15 12,15 C11.1715729,15 10.5,14.3284271 10.5,13.5 C10.5,12.6715729 11.1715729,12 12,12 Z M12,6 C12.5522847,6 13,6.43788135 13,7.00292933 L13,11.2080218 C12.6937688,11.0742238 12.3555524,11 12,11 C11.6444476,11 11.3062312,11.0742238 11,11.2080218 L11,7.00292933 C11,6.44902676 11.4438648,6 12,6 Z"/>
</svg>
