<svg height="24" viewBox="0 0 24 24" width="24" xmlns="http://www.w3.org/2000/svg"><path d="m12.2388968 3.00064679c1.2940833.00543302 7.465239.05650346 9.137767.53656555 1.0326213.29569962 1.8457587 1.16713508 2.1217434 2.27330989.4442679 1.77634464.4950414 5.26152077.5008441 6.03493117l.000737.1443431.0000117.0100977s0 .0034155-.0000117.0100982l-.000737.1443498c-.0058027.773446-.0565762 4.2587667-.5008441 6.0349239-.2759847 1.1061748-1.0891221 1.9778219-2.1217434 2.2733099-1.672528.4802512-7.8436837.5313418-9.137767.536777l-.2289296.0006418-.010066.0000052s-.0033974 0-.0100657-.0000052l-.2289236-.0006418c-1.2940497-.0054352-7.46504769-.0565258-9.13757569-.536777-1.03262131-.295488-1.84575873-1.1671351-2.12174342-2.2733099-.4442679-1.7761572-.49504137-5.2614779-.50084406-6.0349239v-.3088888c.00580269-.7734104.05657616-4.25858653.50084406-6.03493117.27598469-1.10617481 1.08912211-1.97761027 2.12174342-2.27330989 1.672528-.48006209 7.84352599-.53113253 9.13757569-.53656555zm-3.2388968 4.49935321v9l8-4.5z" fill="#000" fill-rule="evenodd"/></svg>