<svg width="321" height="320" viewBox="0 0 321 320" fill="none" xmlns="http://www.w3.org/2000/svg">
<path d="M39.1867 117.556C42.2458 116.556 43.9197 113.254 42.9254 110.179C41.9311 107.104 38.6452 105.421 35.5861 106.421C32.527 107.42 30.8531 110.723 31.8474 113.798C32.8416 116.873 36.1276 118.555 39.1867 117.556Z" fill="#EAEEF9"/>
<path d="M55.2938 69.2497C56.8845 68.73 57.755 67.0126 57.2379 65.4136C56.7209 63.8147 55.0121 62.9398 53.4213 63.4595C51.8306 63.9792 50.9602 65.6967 51.4772 67.2956C51.9942 68.8945 53.703 69.7694 55.2938 69.2497Z" fill="#EAEEF9"/>
<path d="M34.1117 204.727C34.8838 204.727 35.5096 204.098 35.5096 203.322C35.5096 202.546 34.8838 201.917 34.1117 201.917C33.3397 201.917 32.7139 202.546 32.7139 203.322C32.7139 204.098 33.3397 204.727 34.1117 204.727Z" fill="url(#paint0_linear_1334_224140)"/>
<path d="M289.222 189.038C290.252 189.038 291.086 188.199 291.086 187.164C291.086 186.13 290.252 185.291 289.222 185.291C288.193 185.291 287.358 186.13 287.358 187.164C287.358 188.199 288.193 189.038 289.222 189.038Z" fill="url(#paint1_linear_1334_224140)"/>
<path d="M297.326 135.174C300.935 131.859 301.187 126.23 297.889 122.602C294.59 118.974 288.99 118.721 285.381 122.036C281.772 125.351 281.52 130.98 284.818 134.608C288.116 138.236 293.716 138.489 297.326 135.174Z" fill="#EAEEF9"/>
<path d="M297.995 95.2794C299.515 93.8834 299.621 91.5134 298.232 89.9859C296.843 88.4583 294.485 88.3516 292.966 89.7476C291.446 91.1435 291.34 93.5135 292.729 95.0411C294.117 96.5686 296.475 96.6753 297.995 95.2794Z" fill="#EAEEF9"/>
<path d="M158.055 291.84C222.004 291.84 273.845 239.733 273.845 175.456C273.845 111.178 222.004 59.0713 158.055 59.0713C94.1065 59.0713 42.2656 111.178 42.2656 175.456C42.2656 239.733 94.1065 291.84 158.055 291.84Z" fill="#EAEEF9"/>
<path d="M279.669 254.841V261.164C279.669 267.018 274.777 271.701 268.719 271.701H45.9929C39.9355 271.701 35.043 267.018 35.043 261.164V254.841H279.669Z" fill="#102030"/>
<path d="M267.088 254.841H47.3906V115.039C47.3906 110.59 50.8853 107.077 55.3119 107.077H258.934C263.361 107.077 266.855 110.59 266.855 115.039L267.088 254.841Z" fill="#172D45"/>
<path d="M256.604 121.596V200.513C256.604 202.152 255.206 203.557 253.576 203.557H145.474C143.843 203.557 142.445 202.152 142.445 200.513V121.596C142.445 119.957 143.843 118.552 145.474 118.552H253.343C255.206 118.552 256.604 119.957 256.604 121.596Z" fill="#172D45"/>
<path d="M151.065 124.406V203.791H145.474C143.843 203.791 142.445 202.386 142.445 200.747V124.406H151.065Z" fill="#102030"/>
<path d="M145.94 123.235C146.454 123.235 146.872 122.815 146.872 122.298C146.872 121.781 146.454 121.361 145.94 121.361C145.425 121.361 145.008 121.781 145.008 122.298C145.008 122.815 145.425 123.235 145.94 123.235Z" fill="white"/>
<path d="M148.736 123.235C149.25 123.235 149.668 122.815 149.668 122.298C149.668 121.781 149.25 121.361 148.736 121.361C148.221 121.361 147.804 121.781 147.804 122.298C147.804 122.815 148.221 123.235 148.736 123.235Z" fill="white"/>
<path d="M151.532 123.235C152.046 123.235 152.463 122.815 152.463 122.298C152.463 121.781 152.046 121.361 151.532 121.361C151.017 121.361 150.6 121.781 150.6 122.298C150.6 122.815 151.017 123.235 151.532 123.235Z" fill="white"/>
<path d="M175.994 132.602H154.793C154.327 132.602 153.861 132.134 153.861 131.665C153.861 131.197 154.327 130.729 154.793 130.729H175.994C176.46 130.729 176.926 131.197 176.926 131.665C176.926 132.134 176.46 132.602 175.994 132.602Z" fill="#2D5887"/>
<path d="M146.872 132.602H146.173C145.707 132.602 145.241 132.134 145.241 131.665C145.241 131.197 145.707 130.729 146.173 130.729H146.872C147.338 130.729 147.804 131.197 147.804 131.665C147.804 132.134 147.338 132.602 146.872 132.602Z" fill="#2D5887"/>
<path d="M146.872 137.051H146.173C145.707 137.051 145.241 136.583 145.241 136.114C145.241 135.646 145.707 135.178 146.173 135.178H146.872C147.338 135.178 147.804 135.646 147.804 136.114C147.804 136.583 147.338 137.051 146.872 137.051Z" fill="#2D5887"/>
<path d="M146.872 141.5H146.173C145.707 141.5 145.241 141.032 145.241 140.564C145.241 140.095 145.707 139.627 146.173 139.627H146.872C147.338 139.627 147.804 140.095 147.804 140.564C147.804 141.032 147.338 141.5 146.872 141.5Z" fill="#2D5887"/>
<path d="M146.872 145.715H146.173C145.707 145.715 145.241 145.247 145.241 144.778C145.241 144.31 145.707 143.842 146.173 143.842H146.872C147.338 143.842 147.804 144.31 147.804 144.778C147.804 145.247 147.338 145.715 146.872 145.715Z" fill="#2D5887"/>
<path d="M146.872 150.164H146.173C145.707 150.164 145.241 149.696 145.241 149.228C145.241 148.759 145.707 148.291 146.173 148.291H146.872C147.338 148.291 147.804 148.759 147.804 149.228C147.804 149.696 147.338 150.164 146.872 150.164Z" fill="#2D5887"/>
<path d="M146.872 154.615H146.173C145.707 154.615 145.241 154.146 145.241 153.678C145.241 153.21 145.707 152.741 146.173 152.741H146.872C147.338 152.741 147.804 153.21 147.804 153.678C147.804 154.146 147.338 154.615 146.872 154.615Z" fill="#2D5887"/>
<path d="M146.872 159.064H146.173C145.707 159.064 145.241 158.595 145.241 158.127C145.241 157.659 145.707 157.19 146.173 157.19H146.872C147.338 157.19 147.804 157.659 147.804 158.127C147.804 158.595 147.338 159.064 146.872 159.064Z" fill="#2D5887"/>
<path d="M146.872 163.513H146.173C145.707 163.513 145.241 163.045 145.241 162.576C145.241 162.108 145.707 161.64 146.173 161.64H146.872C147.338 161.64 147.804 162.108 147.804 162.576C147.804 163.045 147.338 163.513 146.872 163.513Z" fill="#2D5887"/>
<path d="M146.872 167.962H146.173C145.707 167.962 145.241 167.494 145.241 167.026C145.241 166.557 145.707 166.089 146.173 166.089H146.872C147.338 166.089 147.804 166.557 147.804 167.026C147.804 167.494 147.338 167.962 146.872 167.962Z" fill="#2D5887"/>
<path d="M146.872 172.177H146.173C145.707 172.177 145.241 171.709 145.241 171.24C145.241 170.772 145.707 170.304 146.173 170.304H146.872C147.338 170.304 147.804 170.772 147.804 171.24C147.804 171.943 147.338 172.177 146.872 172.177Z" fill="#2D5887"/>
<path d="M146.872 176.626H146.173C145.707 176.626 145.241 176.158 145.241 175.69C145.241 175.221 145.707 174.753 146.173 174.753H146.872C147.338 174.753 147.804 175.221 147.804 175.69C147.804 176.392 147.338 176.626 146.872 176.626Z" fill="#2D5887"/>
<path d="M146.872 181.076H146.173C145.707 181.076 145.241 180.607 145.241 180.139C145.241 179.67 145.707 179.202 146.173 179.202H146.872C147.338 179.202 147.804 179.67 147.804 180.139C147.804 180.607 147.338 181.076 146.872 181.076Z" fill="#2D5887"/>
<path d="M146.872 185.526H146.173C145.707 185.526 145.241 185.057 145.241 184.589C145.241 184.121 145.707 183.652 146.173 183.652H146.872C147.338 183.652 147.804 184.121 147.804 184.589C147.804 185.057 147.338 185.526 146.872 185.526Z" fill="#2D5887"/>
<path d="M146.872 189.975H146.173C145.707 189.975 145.241 189.507 145.241 189.038C145.241 188.57 145.707 188.102 146.173 188.102H146.872C147.338 188.102 147.804 188.57 147.804 189.038C147.804 189.507 147.338 189.975 146.872 189.975Z" fill="#2D5887"/>
<path d="M146.872 194.424H146.173C145.707 194.424 145.241 193.956 145.241 193.487C145.241 193.019 145.707 192.551 146.173 192.551H146.872C147.338 192.551 147.804 193.019 147.804 193.487C147.804 193.956 147.338 194.424 146.872 194.424Z" fill="#2D5887"/>
<path d="M146.872 198.639H146.173C145.707 198.639 145.241 198.171 145.241 197.702C145.241 197.234 145.707 196.766 146.173 196.766H146.872C147.338 196.766 147.804 197.234 147.804 197.702C147.804 198.171 147.338 198.639 146.872 198.639Z" fill="#2D5887"/>
<path d="M171.568 137.051H154.793C154.327 137.051 153.861 136.583 153.861 136.114C153.861 135.646 154.327 135.178 154.793 135.178H171.568C172.034 135.178 172.5 135.646 172.5 136.114C172.5 136.583 172.034 137.051 171.568 137.051Z" fill="#2D5887"/>
<path d="M216.766 137.051H175.063C174.597 137.051 174.131 136.583 174.131 136.114C174.131 135.646 174.597 135.178 175.063 135.178H216.766C217.232 135.178 217.698 135.646 217.698 136.114C217.698 136.583 217.232 137.051 216.766 137.051Z" fill="#2D5887"/>
<path d="M234.705 137.051H222.59C222.124 137.051 221.658 136.583 221.658 136.114C221.658 135.646 222.124 135.178 222.59 135.178H234.705C235.171 135.178 235.637 135.646 235.637 136.114C235.637 136.583 235.171 137.051 234.705 137.051Z" fill="#2D5887"/>
<path d="M244.723 137.051H240.762C240.296 137.051 239.83 136.583 239.83 136.114C239.83 135.646 240.296 135.178 240.762 135.178H244.723C245.189 135.178 245.655 135.646 245.655 136.114C245.655 136.583 245.189 137.051 244.723 137.051Z" fill="#2D5887"/>
<path d="M182.284 141.266H161.083C160.617 141.266 160.151 140.798 160.151 140.329C160.151 139.861 160.617 139.393 161.083 139.393H182.284C182.75 139.393 183.216 139.861 183.216 140.329C183.216 140.798 182.75 141.266 182.284 141.266Z" fill="#2D5887"/>
<path d="M182.284 158.829H161.083C160.617 158.829 160.151 158.361 160.151 157.893C160.151 157.424 160.617 156.956 161.083 156.956H182.284C182.75 156.956 183.216 157.424 183.216 157.893C183.216 158.595 182.75 158.829 182.284 158.829Z" fill="#2D5887"/>
<path d="M176.693 163.279H161.083C160.617 163.279 160.151 162.81 160.151 162.342C160.151 161.874 160.617 161.405 161.083 161.405H176.693C177.159 161.405 177.625 161.874 177.625 162.342C177.625 162.81 177.159 163.279 176.693 163.279Z" fill="#2D5887"/>
<path d="M217.93 163.279H181.119C180.653 163.279 180.188 162.81 180.188 162.342C180.188 161.874 180.653 161.405 181.119 161.405H217.93C218.396 161.405 218.862 161.874 218.862 162.342C218.862 162.81 218.396 163.279 217.93 163.279Z" fill="#2D5887"/>
<path d="M188.342 145.715H168.539C168.073 145.715 167.607 145.247 167.607 144.778C167.607 144.31 168.073 143.842 168.539 143.842H188.342C188.808 143.842 189.274 144.31 189.274 144.778C189.274 145.247 188.808 145.715 188.342 145.715Z" fill="#2D5887"/>
<path d="M199.526 145.715H191.371C190.905 145.715 190.439 145.247 190.439 144.778C190.439 144.31 190.905 143.842 191.371 143.842H199.526C199.992 143.842 200.457 144.31 200.457 144.778C200.457 145.247 199.992 145.715 199.526 145.715Z" fill="#2D5887"/>
<path d="M223.289 150.164H168.539C168.073 150.164 167.607 149.696 167.607 149.228C167.607 148.759 168.073 148.291 168.539 148.291H223.056C223.522 148.291 223.988 148.759 223.988 149.228C223.988 149.696 223.755 150.164 223.289 150.164Z" fill="#2D5887"/>
<path d="M232.841 150.164H227.715C227.249 150.164 226.783 149.696 226.783 149.228C226.783 148.759 227.249 148.291 227.715 148.291H232.841C233.307 148.291 233.773 148.759 233.773 149.228C233.773 149.696 233.307 150.164 232.841 150.164Z" fill="#2D5887"/>
<path d="M252.411 150.164H236.569C236.103 150.164 235.637 149.696 235.637 149.228C235.637 148.759 236.103 148.291 236.569 148.291H252.411C252.877 148.291 253.343 148.759 253.343 149.228C253.343 149.696 252.877 150.164 252.411 150.164Z" fill="#2D5887"/>
<path d="M206.049 154.615H168.539C168.073 154.615 167.607 154.146 167.607 153.678C167.607 153.21 168.073 152.741 168.539 152.741H206.049C206.515 152.741 206.981 153.21 206.981 153.678C206.981 154.146 206.515 154.615 206.049 154.615Z" fill="#2D5887"/>
<path d="M189.74 172.177H175.063C174.597 172.177 174.131 171.709 174.131 171.24C174.131 170.772 174.597 170.304 175.063 170.304H189.74C190.206 170.304 190.672 170.772 190.672 171.24C190.672 171.709 190.206 172.177 189.74 172.177Z" fill="#2D5887"/>
<path d="M208.611 172.177H193.001C192.535 172.177 192.069 171.709 192.069 171.24C192.069 170.772 192.535 170.304 193.001 170.304H208.611C209.077 170.304 209.543 170.772 209.543 171.24C209.31 171.709 209.077 172.177 208.611 172.177Z" fill="#2D5887"/>
<path d="M222.59 172.177H211.64C211.174 172.177 210.708 171.709 210.708 171.24C210.708 170.772 211.174 170.304 211.64 170.304H222.59C223.056 170.304 223.522 170.772 223.522 171.24C223.522 171.709 223.056 172.177 222.59 172.177Z" fill="#2D5887"/>
<path d="M232.375 172.177H226.783C226.318 172.177 225.852 171.709 225.852 171.24C225.852 170.772 226.318 170.304 226.783 170.304H232.375C232.841 170.304 233.307 170.772 233.307 171.24C233.307 171.709 232.841 172.177 232.375 172.177Z" fill="#2D5887"/>
<path d="M189.74 185.291H175.063C174.597 185.291 174.131 184.823 174.131 184.355C174.131 183.886 174.597 183.418 175.063 183.418H189.74C190.206 183.418 190.672 183.886 190.672 184.355C190.672 184.823 190.206 185.291 189.74 185.291Z" fill="#2D5887"/>
<path d="M222.59 198.405H175.063C174.597 198.405 174.131 197.936 174.131 197.468C174.131 197 174.597 196.531 175.063 196.531H222.59C223.056 196.531 223.522 197 223.522 197.468C223.522 197.936 223.056 198.405 222.59 198.405Z" fill="#2D5887"/>
<path d="M196.263 176.392H181.585C181.119 176.392 180.653 175.924 180.653 175.455C180.653 174.987 181.119 174.519 181.585 174.519H196.263C196.729 174.519 197.195 174.987 197.195 175.455C197.195 175.924 196.729 176.392 196.263 176.392Z" fill="#2D5887"/>
<path d="M220.027 176.392H199.292C198.826 176.392 198.36 175.924 198.36 175.455C198.36 174.987 198.826 174.519 199.292 174.519H220.027C220.493 174.519 220.959 174.987 220.959 175.455C220.959 175.924 220.493 176.392 220.027 176.392Z" fill="#2D5887"/>
<path d="M233.773 176.392H223.056C222.59 176.392 222.124 175.924 222.124 175.455C222.124 174.987 222.59 174.519 223.056 174.519H233.773C234.239 174.519 234.705 174.987 234.705 175.455C234.705 175.924 234.239 176.392 233.773 176.392Z" fill="#2D5887"/>
<path d="M240.296 176.392H236.801C236.335 176.392 235.869 175.924 235.869 175.455C235.869 174.987 236.335 174.519 236.801 174.519H240.296C240.762 174.519 241.228 174.987 241.228 175.455C241.228 175.924 240.762 176.392 240.296 176.392Z" fill="#2D5887"/>
<path d="M199.524 180.842H181.585C181.119 180.842 180.653 180.374 180.653 179.905C180.653 179.437 181.119 178.969 181.585 178.969H199.524C199.99 178.969 200.456 179.437 200.456 179.905C200.456 180.374 199.99 180.842 199.524 180.842Z" fill="#2D5887"/>
<path d="M207.912 180.842H203.02C202.554 180.842 202.088 180.374 202.088 179.905C202.088 179.437 202.554 178.969 203.02 178.969H207.912C208.378 178.969 208.844 179.437 208.844 179.905C208.844 180.374 208.378 180.842 207.912 180.842Z" fill="#2D5887"/>
<path d="M248.45 180.842H211.407C210.941 180.842 210.475 180.374 210.475 179.905C210.475 179.437 210.941 178.969 211.407 178.969H248.45C248.916 178.969 249.382 179.437 249.382 179.905C249.382 180.374 248.916 180.842 248.45 180.842Z" fill="#2D5887"/>
<path d="M189.74 167.728H168.539C168.073 167.728 167.607 167.26 167.607 166.791C167.607 166.323 168.073 165.854 168.539 165.854H189.74C190.206 165.854 190.672 166.323 190.672 166.791C190.672 167.26 190.206 167.728 189.74 167.728Z" fill="#2D5887"/>
<path d="M198.593 167.728H193.001C192.535 167.728 192.069 167.26 192.069 166.791C192.069 166.323 192.535 165.854 193.001 165.854H198.593C199.059 165.854 199.525 166.323 199.525 166.791C199.525 167.26 199.059 167.728 198.593 167.728Z" fill="#2D5887"/>
<path d="M189.74 189.741H168.539C168.073 189.741 167.607 189.272 167.607 188.804C167.607 188.336 168.073 187.867 168.539 187.867H189.74C190.206 187.867 190.672 188.336 190.672 188.804C190.672 189.272 190.206 189.741 189.74 189.741Z" fill="#2D5887"/>
<path d="M206.282 193.955H168.539C168.073 193.955 167.607 193.487 167.607 193.019C167.607 192.55 168.073 192.082 168.539 192.082H206.282C206.748 192.082 207.214 192.55 207.214 193.019C207.214 193.487 206.748 193.955 206.282 193.955Z" fill="#2D5887"/>
<path d="M222.59 193.955H209.31C208.844 193.955 208.378 193.487 208.378 193.019C208.378 192.55 208.844 192.082 209.31 192.082H222.59C223.055 192.082 223.521 192.55 223.521 193.019C223.521 193.487 223.288 193.955 222.59 193.955Z" fill="#2D5887"/>
<path d="M231.443 193.955H226.084C225.618 193.955 225.152 193.487 225.152 193.019C225.152 192.55 225.618 192.082 226.084 192.082H231.443C231.909 192.082 232.375 192.55 232.375 193.019C232.375 193.487 231.909 193.955 231.443 193.955Z" fill="#2D5887"/>
<path d="M164.579 121.596V200.513C164.579 202.152 163.181 203.557 161.783 203.557H61.1366C59.5057 203.557 58.3408 202.152 58.3408 200.513V121.596C58.3408 119.957 59.7387 118.552 61.1366 118.552H161.783C163.414 118.552 164.579 119.957 164.579 121.596Z" fill="#172D45"/>
<path d="M66.961 124.406V203.791H61.3695C59.7387 203.791 58.3408 202.386 58.3408 200.747V124.406H66.961Z" fill="#102030"/>
<path d="M253.343 118.552H169.238H145.474H61.3695C59.7387 118.552 58.3408 119.957 58.3408 121.596V125.577H142.446H172.267H256.372V121.596C256.605 119.957 255.207 118.552 253.343 118.552Z" fill="url(#paint2_linear_1334_224140)"/>
<path d="M61.8352 123.235C62.3499 123.235 62.7671 122.815 62.7671 122.298C62.7671 121.781 62.3499 121.361 61.8352 121.361C61.3205 121.361 60.9033 121.781 60.9033 122.298C60.9033 122.815 61.3205 123.235 61.8352 123.235Z" fill="white"/>
<path d="M64.3977 123.235C64.9124 123.235 65.3296 122.815 65.3296 122.298C65.3296 121.781 64.9124 121.361 64.3977 121.361C63.883 121.361 63.4658 121.781 63.4658 122.298C63.4658 122.815 63.883 123.235 64.3977 123.235Z" fill="white"/>
<path d="M67.1936 123.235C67.7083 123.235 68.1255 122.815 68.1255 122.298C68.1255 121.781 67.7083 121.361 67.1936 121.361C66.6789 121.361 66.2617 121.781 66.2617 122.298C66.2617 122.815 66.6789 123.235 67.1936 123.235Z" fill="white"/>
<path d="M91.8897 132.602H70.6887C70.2228 132.602 69.7568 132.134 69.7568 131.665C69.7568 131.197 70.2228 130.729 70.6887 130.729H91.8897C92.3557 130.729 92.8216 131.197 92.8216 131.665C92.8216 132.134 92.3557 132.602 91.8897 132.602Z" fill="#2D5887"/>
<path d="M62.7676 132.602H62.0686C61.6027 132.602 61.1367 132.134 61.1367 131.665C61.1367 131.197 61.6027 130.729 62.0686 130.729H62.7676C63.2335 130.729 63.6995 131.197 63.6995 131.665C63.6995 132.134 63.2335 132.602 62.7676 132.602Z" fill="#2D5887"/>
<path d="M62.7676 137.051H62.0686C61.6027 137.051 61.1367 136.583 61.1367 136.114C61.1367 135.646 61.6027 135.178 62.0686 135.178H62.7676C63.2335 135.178 63.6995 135.646 63.6995 136.114C63.6995 136.583 63.2335 137.051 62.7676 137.051Z" fill="#2D5887"/>
<path d="M62.7676 141.5H62.0686C61.6027 141.5 61.1367 141.032 61.1367 140.564C61.1367 140.095 61.6027 139.627 62.0686 139.627H62.7676C63.2335 139.627 63.6995 140.095 63.6995 140.564C63.6995 141.032 63.2335 141.5 62.7676 141.5Z" fill="#2D5887"/>
<path d="M62.7676 145.715H62.0686C61.6027 145.715 61.1367 145.247 61.1367 144.778C61.1367 144.31 61.6027 143.842 62.0686 143.842H62.7676C63.2335 143.842 63.6995 144.31 63.6995 144.778C63.6995 145.247 63.2335 145.715 62.7676 145.715Z" fill="#2D5887"/>
<path d="M62.7676 150.164H62.0686C61.6027 150.164 61.1367 149.696 61.1367 149.228C61.1367 148.759 61.6027 148.291 62.0686 148.291H62.7676C63.2335 148.291 63.6995 148.759 63.6995 149.228C63.6995 149.696 63.2335 150.164 62.7676 150.164Z" fill="#2D5887"/>
<path d="M62.7676 154.615H62.0686C61.6027 154.615 61.1367 154.146 61.1367 153.678C61.1367 153.21 61.6027 152.741 62.0686 152.741H62.7676C63.2335 152.741 63.6995 153.21 63.6995 153.678C63.6995 154.146 63.2335 154.615 62.7676 154.615Z" fill="#2D5887"/>
<path d="M62.7676 159.064H62.0686C61.6027 159.064 61.1367 158.595 61.1367 158.127C61.1367 157.659 61.6027 157.19 62.0686 157.19H62.7676C63.2335 157.19 63.6995 157.659 63.6995 158.127C63.6995 158.595 63.2335 159.064 62.7676 159.064Z" fill="#2D5887"/>
<path d="M62.7676 163.513H62.0686C61.6027 163.513 61.1367 163.045 61.1367 162.576C61.1367 162.108 61.6027 161.64 62.0686 161.64H62.7676C63.2335 161.64 63.6995 162.108 63.6995 162.576C63.6995 163.045 63.2335 163.513 62.7676 163.513Z" fill="#2D5887"/>
<path d="M62.7676 167.962H62.0686C61.6027 167.962 61.1367 167.494 61.1367 167.026C61.1367 166.557 61.6027 166.089 62.0686 166.089H62.7676C63.2335 166.089 63.6995 166.557 63.6995 167.026C63.6995 167.494 63.2335 167.962 62.7676 167.962Z" fill="#2D5887"/>
<path d="M62.7676 172.177H62.0686C61.6027 172.177 61.1367 171.709 61.1367 171.24C61.1367 170.772 61.6027 170.304 62.0686 170.304H62.7676C63.2335 170.304 63.6995 170.772 63.6995 171.24C63.6995 171.943 63.2335 172.177 62.7676 172.177Z" fill="#2D5887"/>
<path d="M62.7676 176.626H62.0686C61.6027 176.626 61.1367 176.158 61.1367 175.69C61.1367 175.221 61.6027 174.753 62.0686 174.753H62.7676C63.2335 174.753 63.6995 175.221 63.6995 175.69C63.6995 176.392 63.2335 176.626 62.7676 176.626Z" fill="#2D5887"/>
<path d="M62.7676 181.076H62.0686C61.6027 181.076 61.1367 180.607 61.1367 180.139C61.1367 179.67 61.6027 179.202 62.0686 179.202H62.7676C63.2335 179.202 63.6995 179.67 63.6995 180.139C63.6995 180.607 63.2335 181.076 62.7676 181.076Z" fill="#2D5887"/>
<path d="M62.7676 185.526H62.0686C61.6027 185.526 61.1367 185.057 61.1367 184.589C61.1367 184.121 61.6027 183.652 62.0686 183.652H62.7676C63.2335 183.652 63.6995 184.121 63.6995 184.589C63.6995 185.057 63.2335 185.526 62.7676 185.526Z" fill="#2D5887"/>
<path d="M62.7676 189.975H62.0686C61.6027 189.975 61.1367 189.507 61.1367 189.038C61.1367 188.57 61.6027 188.102 62.0686 188.102H62.7676C63.2335 188.102 63.6995 188.57 63.6995 189.038C63.6995 189.507 63.2335 189.975 62.7676 189.975Z" fill="#2D5887"/>
<path d="M62.7676 194.424H62.0686C61.6027 194.424 61.1367 193.956 61.1367 193.487C61.1367 193.019 61.6027 192.551 62.0686 192.551H62.7676C63.2335 192.551 63.6995 193.019 63.6995 193.487C63.6995 193.956 63.2335 194.424 62.7676 194.424Z" fill="#2D5887"/>
<path d="M62.7676 198.639H62.0686C61.6027 198.639 61.1367 198.171 61.1367 197.702C61.1367 197.234 61.6027 196.766 62.0686 196.766H62.7676C63.2335 196.766 63.6995 197.234 63.6995 197.702C63.6995 198.171 63.2335 198.639 62.7676 198.639Z" fill="#2D5887"/>
<path d="M87.4631 137.051H70.6887C70.2228 137.051 69.7568 136.583 69.7568 136.114C69.7568 135.646 70.2228 135.178 70.6887 135.178H87.4631C87.9291 135.178 88.395 135.646 88.395 136.114C88.395 136.583 87.9291 137.051 87.4631 137.051Z" fill="#2D5887"/>
<path d="M132.428 137.051H90.7249C90.2589 137.051 89.793 136.583 89.793 136.114C89.793 135.646 90.2589 135.178 90.7249 135.178H132.428C132.894 135.178 133.36 135.646 133.36 136.114C133.36 136.583 133.127 137.051 132.428 137.051Z" fill="#2D5887"/>
<path d="M150.6 137.051H138.486C138.02 137.051 137.554 136.583 137.554 136.114C137.554 135.646 138.02 135.178 138.486 135.178H150.6C151.066 135.178 151.532 135.646 151.532 136.114C151.532 136.583 151.066 137.051 150.6 137.051Z" fill="#2D5887"/>
<path d="M160.618 137.051H156.657C156.192 137.051 155.726 136.583 155.726 136.114C155.726 135.646 156.192 135.178 156.657 135.178H160.618C161.084 135.178 161.55 135.646 161.55 136.114C161.55 136.583 161.084 137.051 160.618 137.051Z" fill="#2D5887"/>
<path d="M98.1797 141.266H76.9788C76.5128 141.266 76.0469 140.798 76.0469 140.329C76.0469 139.861 76.5128 139.393 76.9788 139.393H98.1797C98.6457 139.393 99.1116 139.861 99.1116 140.329C99.1116 140.798 98.6457 141.266 98.1797 141.266Z" fill="#2D5887"/>
<path d="M98.1797 158.829H76.9788C76.5128 158.829 76.0469 158.361 76.0469 157.893C76.0469 157.424 76.5128 156.956 76.9788 156.956H98.1797C98.6457 156.956 99.1116 157.424 99.1116 157.893C99.1116 158.595 98.6457 158.829 98.1797 158.829Z" fill="#2D5887"/>
<path d="M92.5883 163.279H76.9788C76.5128 163.279 76.0469 162.81 76.0469 162.342C76.0469 161.874 76.5128 161.405 76.9788 161.405H92.5883C93.0542 161.405 93.5202 161.874 93.5202 162.342C93.5202 162.81 93.0542 163.279 92.5883 163.279Z" fill="#2D5887"/>
<path d="M133.593 163.279H96.7825C96.3165 163.279 95.8506 162.81 95.8506 162.342C95.8506 161.874 96.3165 161.405 96.7825 161.405H133.593C134.059 161.405 134.525 161.874 134.525 162.342C134.525 162.81 134.059 163.279 133.593 163.279Z" fill="#2D5887"/>
<path d="M104.238 145.715H84.4348C83.9689 145.715 83.5029 145.247 83.5029 144.778C83.5029 144.31 83.9689 143.842 84.4348 143.842H104.238C104.704 143.842 105.17 144.31 105.17 144.778C105.17 145.247 104.704 145.715 104.238 145.715Z" fill="#2D5887"/>
<path d="M115.187 145.715H107.266C106.8 145.715 106.334 145.247 106.334 144.778C106.334 144.31 106.8 143.842 107.266 143.842H115.42C115.886 143.842 116.352 144.31 116.352 144.778C116.352 145.247 115.886 145.715 115.187 145.715Z" fill="#2D5887"/>
<path d="M138.952 150.164H84.4348C83.9689 150.164 83.5029 149.696 83.5029 149.228C83.5029 148.759 83.9689 148.291 84.4348 148.291H138.952C139.418 148.291 139.883 148.759 139.883 149.228C139.883 149.696 139.418 150.164 138.952 150.164Z" fill="#2D5887"/>
<path d="M148.736 150.164H143.611C143.145 150.164 142.679 149.696 142.679 149.228C142.679 148.759 143.145 148.291 143.611 148.291H148.736C149.202 148.291 149.668 148.759 149.668 149.228C149.668 149.696 149.202 150.164 148.736 150.164Z" fill="#2D5887"/>
<path d="M168.307 150.164H152.464C151.998 150.164 151.532 149.696 151.532 149.228C151.532 148.759 151.998 148.291 152.464 148.291H168.307C168.773 148.291 169.239 148.759 169.239 149.228C169.239 149.696 168.773 150.164 168.307 150.164Z" fill="#2D5887"/>
<path d="M121.944 154.615H84.4348C83.9689 154.615 83.5029 154.146 83.5029 153.678C83.5029 153.21 83.9689 152.741 84.4348 152.741H121.944C122.41 152.741 122.876 153.21 122.876 153.678C122.876 154.146 122.41 154.615 121.944 154.615Z" fill="#2D5887"/>
<path d="M105.403 172.177H90.9583C90.4923 172.177 90.0264 171.709 90.0264 171.24C90.0264 170.772 90.4923 170.304 90.9583 170.304H105.636C106.102 170.304 106.568 170.772 106.568 171.24C106.335 171.709 106.102 172.177 105.403 172.177Z" fill="#2D5887"/>
<path d="M124.274 172.177H108.664C108.198 172.177 107.732 171.709 107.732 171.24C107.732 170.772 108.198 170.304 108.664 170.304H124.274C124.74 170.304 125.206 170.772 125.206 171.24C125.206 171.709 124.74 172.177 124.274 172.177Z" fill="#2D5887"/>
<path d="M138.485 172.177H127.535C127.069 172.177 126.604 171.709 126.604 171.24C126.604 170.772 127.069 170.304 127.535 170.304H138.485C138.951 170.304 139.417 170.772 139.417 171.24C139.417 171.709 138.951 172.177 138.485 172.177Z" fill="#2D5887"/>
<path d="M148.27 172.177H142.679C142.213 172.177 141.747 171.709 141.747 171.24C141.747 170.772 142.213 170.304 142.679 170.304H148.27C148.736 170.304 149.202 170.772 149.202 171.24C149.202 171.709 148.736 172.177 148.27 172.177Z" fill="#2D5887"/>
<path d="M105.403 185.291H90.9583C90.4923 185.291 90.0264 184.823 90.0264 184.355C90.0264 183.886 90.4923 183.418 90.9583 183.418H105.636C106.102 183.418 106.568 183.886 106.568 184.355C106.568 184.823 106.102 185.291 105.403 185.291Z" fill="#2D5887"/>
<path d="M138.253 198.405H90.9583C90.4923 198.405 90.0264 197.937 90.0264 197.468C90.0264 197 90.4923 196.766 90.9583 196.766H138.486C138.952 196.766 139.418 197.234 139.418 197.702C139.418 198.171 138.952 198.405 138.253 198.405Z" fill="#2D5887"/>
<path d="M111.926 176.392H97.2483C96.7824 176.392 96.3164 175.924 96.3164 175.455C96.3164 174.987 96.7824 174.519 97.2483 174.519H111.926C112.392 174.519 112.858 174.987 112.858 175.455C112.858 175.924 112.392 176.392 111.926 176.392Z" fill="#2D5887"/>
<path d="M135.923 176.392H115.188C114.722 176.392 114.256 175.924 114.256 175.455C114.256 174.987 114.722 174.519 115.188 174.519H135.923C136.389 174.519 136.855 174.987 136.855 175.455C136.855 175.924 136.389 176.392 135.923 176.392Z" fill="#2D5887"/>
<path d="M149.435 176.392H138.718C138.252 176.392 137.786 175.924 137.786 175.455C137.786 174.987 138.252 174.519 138.718 174.519H149.435C149.901 174.519 150.367 174.987 150.367 175.455C150.367 175.924 149.901 176.392 149.435 176.392Z" fill="#2D5887"/>
<path d="M156.191 176.392H152.697C152.231 176.392 151.765 175.924 151.765 175.455C151.765 174.987 152.231 174.519 152.697 174.519H156.191C156.657 174.519 157.123 174.987 157.123 175.455C157.123 175.924 156.657 176.392 156.191 176.392Z" fill="#2D5887"/>
<path d="M115.42 180.842H97.4807C97.0148 180.842 96.5488 180.374 96.5488 179.905C96.5488 179.437 97.0148 178.969 97.4807 178.969H115.42C115.886 178.969 116.352 179.437 116.352 179.905C116.352 180.374 115.886 180.842 115.42 180.842Z" fill="#2D5887"/>
<path d="M123.808 180.842H118.915C118.449 180.842 117.983 180.374 117.983 179.905C117.983 179.437 118.449 178.969 118.915 178.969H123.808C124.274 178.969 124.74 179.437 124.74 179.905C124.507 180.374 124.274 180.842 123.808 180.842Z" fill="#2D5887"/>
<path d="M164.113 180.842H127.07C126.604 180.842 126.138 180.374 126.138 179.905C126.138 179.437 126.604 178.969 127.07 178.969H164.113C164.579 178.969 165.045 179.437 165.045 179.905C165.045 180.374 164.812 180.842 164.113 180.842Z" fill="#2D5887"/>
<path d="M105.402 167.728H84.2014C83.7355 167.728 83.2695 167.26 83.2695 166.791C83.2695 166.323 83.7355 165.854 84.2014 165.854H105.402C105.868 165.854 106.334 166.323 106.334 166.791C106.334 167.26 106.101 167.728 105.402 167.728Z" fill="#2D5887"/>
<path d="M114.488 167.728H108.897C108.431 167.728 107.965 167.26 107.965 166.791C107.965 166.323 108.431 165.854 108.897 165.854H114.488C114.954 165.854 115.42 166.323 115.42 166.791C115.42 167.26 114.954 167.728 114.488 167.728Z" fill="#2D5887"/>
<path d="M105.402 189.741H84.2014C83.7355 189.741 83.2695 189.272 83.2695 188.804C83.2695 188.336 83.7355 187.867 84.2014 187.867H105.402C105.868 187.867 106.334 188.336 106.334 188.804C106.334 189.272 106.101 189.741 105.402 189.741Z" fill="#2D5887"/>
<path d="M122.177 193.955H84.4348C83.9689 193.955 83.5029 193.487 83.5029 193.019C83.5029 192.55 83.9689 192.082 84.4348 192.082H122.177C122.643 192.082 123.109 192.55 123.109 193.019C123.109 193.487 122.643 193.955 122.177 193.955Z" fill="#2D5887"/>
<path d="M138.485 193.955H125.205C124.739 193.955 124.273 193.487 124.273 193.019C124.273 192.55 124.739 192.082 125.205 192.082H138.485C138.951 192.082 139.417 192.55 139.417 193.019C139.417 193.487 138.951 193.955 138.485 193.955Z" fill="#2D5887"/>
<path d="M147.106 193.955H141.747C141.281 193.955 140.815 193.487 140.815 193.019C140.815 192.55 141.281 192.082 141.747 192.082H147.106C147.572 192.082 148.038 192.55 148.038 193.019C148.038 193.487 147.805 193.955 147.106 193.955Z" fill="#2D5887"/>
<path opacity="0.6" d="M174.364 116.21C175.296 137.286 177.858 161.874 183.683 185.994C189.74 187.867 194.866 191.848 198.127 197.234C208.611 197.703 217.465 204.962 220.493 214.563C222.357 204.494 230.278 196.297 240.529 194.658C244.257 189.506 249.848 185.994 256.139 184.823V233.531H57.875V189.741C61.6026 187.399 66.0292 185.994 70.9217 185.994C80.4738 185.994 88.861 191.614 93.0546 199.576C97.7142 193.722 104.703 190.209 112.392 190.209C117.284 190.209 121.944 191.614 125.904 194.19C127.535 184.355 134.758 176.393 144.077 174.051C148.037 153.912 150.134 134.007 150.833 116.444H174.364V116.21Z" fill="#102030"/>
<path d="M279.669 254.841C279.669 260.695 274.777 265.379 268.719 265.379H45.9929C39.9355 265.379 35.043 260.695 35.043 254.841H135.689C136.621 257.183 138.951 258.822 141.514 258.822H172.966C175.761 258.822 178.091 257.183 178.79 254.841H279.669Z" fill="#172D45"/>
<path d="M162.016 223.227C160.851 222.525 159.453 222.525 158.288 223.227C142.213 233.999 116.119 248.518 130.564 218.075C144.775 188.335 149.435 151.804 150.6 123.703C150.6 121.83 152.231 120.425 153.861 120.425H166.209C168.073 120.425 169.471 121.83 169.471 123.703C170.636 151.804 175.295 188.569 189.507 218.075C204.185 248.518 178.324 233.999 162.016 223.227Z" fill="#EAEEF9"/>
<path d="M182.052 223.93C178.091 222.057 172.5 218.778 165.277 213.86L160.152 210.348L155.026 213.86C147.804 218.778 142.213 222.057 138.252 223.93C138.485 223.462 138.718 222.759 138.951 222.291C153.163 192.551 158.055 157.19 159.686 129.792H160.618C162.016 156.956 167.141 192.551 181.353 222.291C181.586 222.993 181.819 223.462 182.052 223.93Z" fill="#D7E0ED"/>
<path d="M173.898 197.234C173.898 208.709 164.579 218.076 153.163 218.076C147.338 218.076 142.213 215.734 138.485 211.987C134.758 208.24 132.428 203.088 132.428 197.234C132.428 185.76 141.747 176.393 153.163 176.393C156.424 176.393 159.22 177.095 162.016 178.5C169.005 181.779 173.898 189.038 173.898 197.234Z" fill="#D7E0ED"/>
<path d="M168.073 193.252C168.073 204.727 158.754 214.094 147.338 214.094C144.077 214.094 141.281 213.391 138.485 212.22C134.758 208.474 132.428 203.322 132.428 197.467C132.428 185.993 141.747 176.626 153.163 176.626C156.424 176.626 159.22 177.329 162.016 178.734C165.744 182.246 168.073 187.398 168.073 193.252Z" fill="#EAEEF9"/>
<path d="M147.572 218.544C147.572 230.018 138.252 239.385 126.837 239.385C121.012 239.385 115.887 237.043 112.159 233.297C108.431 229.55 106.102 224.398 106.102 218.544C106.102 207.069 115.421 197.702 126.837 197.702C130.098 197.702 132.894 198.405 135.69 199.81C142.912 203.088 147.572 210.113 147.572 218.544Z" fill="#D7E0ED"/>
<path d="M141.747 214.329C141.747 225.803 132.428 235.17 121.012 235.17C117.75 235.17 114.955 234.467 112.159 233.297C108.431 229.55 106.102 224.398 106.102 218.544C106.102 207.069 115.421 197.702 126.837 197.702C130.098 197.702 132.894 198.405 135.69 199.81C139.417 203.557 141.747 208.708 141.747 214.329Z" fill="#EAEEF9"/>
<path d="M200.224 216.904C200.224 228.379 190.905 237.745 179.489 237.745C173.664 237.745 168.539 235.404 164.811 231.657C161.084 227.91 158.754 222.758 158.754 216.904C158.754 205.429 168.073 196.062 179.489 196.062C182.751 196.062 185.546 196.765 188.342 198.17C195.331 201.214 200.224 208.474 200.224 216.904Z" fill="#D7E0ED"/>
<path d="M194.399 212.689C194.399 224.163 185.08 233.53 173.664 233.53C170.403 233.53 167.607 232.828 164.811 231.657C161.084 227.91 158.754 222.758 158.754 216.904C158.754 205.429 168.073 196.062 179.489 196.062C182.751 196.062 185.546 196.765 188.342 198.17C192.07 201.683 194.399 206.835 194.399 212.689Z" fill="#EAEEF9"/>
<path d="M102.14 231.424C102.14 242.898 92.8208 252.265 81.4049 252.265C75.5805 252.265 70.455 249.923 66.7273 246.176C62.9997 242.43 60.6699 237.278 60.6699 231.424C60.6699 219.949 69.989 210.582 81.4049 210.582C84.6666 210.582 87.4623 211.285 90.2581 212.69C97.2474 215.968 102.14 223.227 102.14 231.424Z" fill="#D7E0ED"/>
<path d="M96.0831 227.208C96.0831 238.683 86.764 248.05 75.3481 248.05C72.0864 248.05 69.2906 247.347 66.4949 246.176C62.7673 242.43 60.4375 237.278 60.4375 231.424C60.4375 219.949 69.7566 210.582 81.1725 210.582C84.4342 210.582 87.2299 211.285 90.0256 212.69C93.9863 216.436 96.0831 221.588 96.0831 227.208Z" fill="#D7E0ED"/>
<path d="M216.998 231.658C216.998 243.132 207.679 252.499 196.263 252.499C190.439 252.499 185.313 250.158 181.586 246.411C177.858 242.664 175.528 237.512 175.528 231.658C175.528 220.183 184.847 210.816 196.263 210.816C199.525 210.816 202.321 211.519 205.116 212.924C212.106 216.202 216.998 223.462 216.998 231.658Z" fill="#D7E0ED"/>
<path d="M211.174 227.676C211.174 239.151 201.855 248.518 190.439 248.518C187.177 248.518 184.381 247.815 181.586 246.644C177.858 242.897 175.528 237.746 175.528 231.891C175.528 220.417 184.847 211.05 196.263 211.05C199.525 211.05 202.321 211.752 205.116 213.157C208.844 216.67 211.174 221.822 211.174 227.676Z" fill="#D7E0ED"/>
<path d="M172.966 222.525C172.966 234 163.647 243.367 152.231 243.367C146.407 243.367 141.281 241.025 137.554 237.278C133.826 233.531 131.496 228.379 131.496 222.525C131.496 211.051 140.815 201.684 152.231 201.684C155.493 201.684 158.289 202.386 161.084 203.791C168.307 207.07 172.966 214.329 172.966 222.525Z" fill="#D7E0ED"/>
<path d="M167.142 218.31C167.142 229.784 157.823 239.151 146.407 239.151C143.145 239.151 140.349 238.449 137.554 237.278C133.826 233.531 131.496 228.379 131.496 222.525C131.496 211.051 140.815 201.684 152.231 201.684C155.493 201.684 158.288 202.386 161.084 203.791C164.812 207.538 167.142 212.69 167.142 218.31Z" fill="#EAEEF9"/>
<path d="M218.163 222.056C218.163 229.784 211.873 235.873 204.418 235.873C200.69 235.873 197.195 234.233 194.632 231.657C192.07 229.082 190.672 225.569 190.672 221.822C190.672 214.094 196.962 208.006 204.418 208.006C206.514 208.006 208.611 208.474 210.242 209.411C214.902 211.753 218.163 216.436 218.163 222.056Z" fill="#D7E0ED"/>
<path d="M214.203 219.246C214.203 226.974 207.912 233.062 200.457 233.062C198.36 233.062 196.263 232.594 194.632 231.657C192.07 229.082 190.672 225.569 190.672 221.822C190.672 214.094 196.962 208.006 204.418 208.006C206.514 208.006 208.611 208.474 210.242 209.411C212.572 211.987 214.203 215.499 214.203 219.246Z" fill="#EAEEF9"/>
<path d="M248.217 243.835C248.217 251.562 241.927 257.651 234.471 257.651C230.744 257.651 227.249 256.012 224.686 253.436C222.123 250.86 220.726 247.347 220.726 243.6C220.726 235.873 227.016 229.784 234.471 229.784C236.568 229.784 238.665 230.253 240.296 231.189C244.955 233.531 248.217 238.214 248.217 243.835Z" fill="#D7E0ED"/>
<path d="M244.256 241.025C244.256 248.752 237.966 254.841 230.511 254.841C228.414 254.841 226.317 254.372 224.686 253.436C222.123 250.86 220.726 247.347 220.726 243.6C220.726 235.873 227.016 229.784 234.471 229.784C236.568 229.784 238.665 230.253 240.296 231.189C242.858 233.765 244.256 237.278 244.256 241.025Z" fill="#D7E0ED"/>
<path d="M72.5529 240.088C72.5529 247.815 66.2625 253.904 58.8072 253.904C55.0796 253.904 51.5849 252.265 49.0221 249.689C46.4594 247.113 45.0615 243.6 45.0615 239.853C45.0615 232.126 51.3519 226.037 58.8072 226.037C60.904 226.037 63.0008 226.505 64.6316 227.442C69.2912 229.784 72.5529 234.702 72.5529 240.088Z" fill="#D7E0ED"/>
<path d="M68.5922 237.511C68.5922 245.239 62.3018 251.327 54.8466 251.327C52.7498 251.327 50.653 250.859 49.0221 249.922C46.4594 247.346 45.0615 243.834 45.0615 240.087C45.0615 232.359 51.3519 226.271 58.8072 226.271C60.904 226.271 63.0008 226.739 64.6316 227.676C66.9614 230.017 68.5922 233.53 68.5922 237.511Z" fill="#EAEEF9"/>
<path d="M73.7179 219.949C73.7179 227.677 67.4275 233.765 59.9722 233.765C56.2446 233.765 52.7499 232.126 50.1872 229.55C47.6244 226.974 46.2266 223.461 46.2266 219.715C46.2266 211.987 52.517 205.898 59.9722 205.898C62.069 205.898 64.1658 206.367 65.7967 207.303C70.4562 209.645 73.7179 214.329 73.7179 219.949Z" fill="#D7E0ED"/>
<path d="M69.7573 217.139C69.7573 224.867 63.4669 230.955 56.0116 230.955C53.9148 230.955 51.818 230.487 50.1872 229.55C47.6244 226.974 46.2266 223.461 46.2266 219.715C46.2266 211.987 52.517 205.898 59.9722 205.898C62.069 205.898 64.1658 206.367 65.7967 207.303C68.1264 209.879 69.7573 213.392 69.7573 217.139Z" fill="#EAEEF9"/>
<path d="M259.633 215.265C259.633 222.993 253.343 229.082 245.887 229.082C242.16 229.082 238.665 227.442 236.102 224.866C233.539 222.291 232.142 218.778 232.142 215.031C232.142 207.303 238.432 201.215 245.887 201.215C247.984 201.215 250.081 201.683 251.712 202.62C256.604 204.962 259.633 209.645 259.633 215.265Z" fill="#D7E0ED"/>
<path d="M255.906 212.455C255.906 220.183 249.615 226.271 242.16 226.271C240.063 226.271 237.966 225.803 236.336 224.866C233.773 222.29 232.375 218.778 232.375 215.031C232.375 207.303 238.665 201.215 246.121 201.215C248.217 201.215 250.314 201.683 251.945 202.62C254.275 205.196 255.906 208.708 255.906 212.455Z" fill="#D7E0ED"/>
<path d="M235.404 235.404C235.404 243.6 228.648 250.391 220.494 250.391C216.3 250.391 212.572 248.752 210.01 245.942C207.447 243.132 205.583 239.619 205.583 235.404C205.583 227.208 212.339 220.417 220.494 220.417C222.823 220.417 224.92 220.885 226.784 221.822C232.142 224.164 235.404 229.316 235.404 235.404Z" fill="#D7E0ED"/>
<path d="M231.211 232.36C231.211 240.556 224.454 247.347 216.3 247.347C213.97 247.347 211.873 246.879 210.01 245.942C207.447 243.132 205.583 239.619 205.583 235.404C205.583 227.208 212.339 220.417 220.494 220.417C222.823 220.417 224.92 220.885 226.784 221.822C229.58 224.632 231.211 228.379 231.211 232.36Z" fill="#D7E0ED"/>
<path d="M279.903 230.955C279.903 239.151 273.147 245.942 264.993 245.942C260.799 245.942 257.071 244.303 254.509 241.493C251.946 238.683 250.082 235.17 250.082 230.955C250.082 222.759 256.838 215.968 264.993 215.968C267.322 215.968 269.419 216.436 271.283 217.373C276.408 219.715 279.903 224.866 279.903 230.955Z" fill="#D7E0ED"/>
<path d="M275.71 227.911C275.71 236.107 268.953 242.898 260.799 242.898C258.469 242.898 256.372 242.429 254.509 241.493C251.946 238.683 250.082 235.17 250.082 230.955C250.082 222.759 256.838 215.968 264.993 215.968C267.322 215.968 269.419 216.436 271.283 217.373C274.079 220.183 275.71 223.696 275.71 227.911Z" fill="#EAEEF9"/>
<path d="M125.904 231.657C125.904 241.024 118.216 248.752 108.897 248.752C104.237 248.752 99.8109 246.879 96.7822 243.6C93.7535 240.556 91.8896 236.341 91.8896 231.657C91.8896 222.29 99.5779 214.562 108.897 214.562C111.46 214.562 114.023 215.265 116.119 216.202C121.944 219.012 125.904 224.866 125.904 231.657Z" fill="#D7E0ED"/>
<path d="M121.012 228.378C121.012 237.745 113.324 245.473 104.004 245.473C101.442 245.473 98.879 244.77 96.7822 243.833C93.7535 240.789 91.8896 236.574 91.8896 231.891C91.8896 222.524 99.5779 214.796 108.897 214.796C111.46 214.796 114.022 215.498 116.119 216.435C119.148 219.479 121.012 223.695 121.012 228.378Z" fill="#EAEEF9"/>
<path d="M104.004 240.79C104.004 248.986 97.4806 255.543 89.3264 255.543C85.3658 255.543 81.6382 253.904 79.0754 251.328C76.5127 248.752 74.8818 245.005 74.8818 241.024C74.8818 232.828 81.4052 226.271 89.5594 226.271C91.8892 226.271 93.986 226.74 95.8498 227.677C100.509 229.784 104.004 234.936 104.004 240.79Z" fill="#D7E0ED"/>
<path d="M99.811 237.98C99.811 246.176 93.2876 252.733 85.1334 252.733C82.8036 252.733 80.7068 252.265 78.843 251.328C76.2803 248.752 74.6494 245.005 74.6494 241.024C74.6494 232.828 81.1728 226.271 89.327 226.271C91.6568 226.271 93.7536 226.74 95.6174 227.677C98.1801 230.252 99.811 233.765 99.811 237.98Z" fill="#D7E0ED"/>
<path d="M82.338 243.132C82.338 251.328 75.8146 257.885 67.6604 257.885C63.6998 257.885 59.9722 256.246 57.4094 253.67C54.8467 251.094 53.2158 247.347 53.2158 243.366C53.2158 235.17 59.7392 228.613 67.8934 228.613C70.2232 228.613 72.32 229.082 74.1838 230.018C79.0763 232.126 82.338 237.278 82.338 243.132Z" fill="#D7E0ED"/>
<path d="M78.3774 240.322C78.3774 248.518 71.854 255.075 63.6998 255.075C61.37 255.075 59.2732 254.607 57.4094 253.67C54.8467 251.094 53.2158 247.347 53.2158 243.366C53.2158 235.17 59.7392 228.613 67.8934 228.613C70.2232 228.613 72.32 229.082 74.1838 230.018C76.7465 232.594 78.3774 236.107 78.3774 240.322Z" fill="#EAEEF9"/>
<path d="M145.009 69.3749C142.912 78.976 140.815 90.2163 127.302 102.628C125.672 104.033 124.973 106.14 124.973 108.014V114.102H151.998L151.066 63.5205L145.009 69.3749Z" fill="#C6CFDE"/>
<path d="M176.228 69.3749C178.324 78.976 180.421 90.2163 193.934 102.628C195.565 104.033 196.264 106.14 196.264 108.014V114.102H169.238L170.17 63.5205L176.228 69.3749Z" fill="#C6CFDE"/>
<path d="M176.46 64.223C176.46 80.3811 176.46 114.336 176.46 114.336H144.775C144.775 114.336 144.775 80.3811 144.775 64.223C144.775 48.065 151.765 40.3373 160.618 31.6729C164.345 35.4196 167.607 38.9322 170.403 42.9132C174.131 48.2992 176.46 54.6219 176.46 64.223Z" fill="#EAEEF9"/>
<path d="M160.619 31.4386C164.346 35.1854 167.608 38.698 170.404 42.679C174.131 48.2991 176.461 54.856 176.461 64.223C176.461 80.381 176.461 114.336 176.461 114.336H144.776C144.776 114.336 144.776 80.381 144.776 64.223C144.776 47.8308 151.765 40.3372 160.619 31.4386ZM160.619 28.1602L158.988 29.7994C150.833 37.9955 142.446 46.4257 142.446 64.223V114.336V116.678H144.776H176.461H178.791V114.336V64.223C178.791 55.3244 176.694 48.065 172.267 41.5081C169.472 37.2929 165.977 33.5462 162.249 30.0335L160.619 28.1602Z" fill="#C6CFDE"/>
<path d="M176.461 64.2235C176.461 80.3815 176.461 114.337 176.461 114.337H165.511C165.278 113.166 165.278 111.761 165.278 110.356C165.278 107.077 165.278 103.565 165.278 100.052C165.278 97.9446 165.278 95.6028 166.676 93.9636C167.375 93.0269 168.54 92.5586 169.472 91.6219C171.103 89.7485 171.103 86.9384 171.103 84.5966C170.87 76.6347 170.637 68.6728 170.404 60.7109C170.404 57.9008 170.171 54.8565 170.171 52.0464C170.171 50.6414 170.171 49.0022 169.938 47.5971C169.938 46.4263 169.472 44.5529 169.938 43.1478C170.171 42.6795 170.404 42.4453 170.637 42.4453C174.131 48.2997 176.461 54.6224 176.461 64.2235Z" fill="#DFE4ED"/>
<path d="M160.618 64.457C163.448 64.457 165.743 62.1504 165.743 59.3052C165.743 56.4599 163.448 54.1533 160.618 54.1533C157.787 54.1533 155.492 56.4599 155.492 59.3052C155.492 62.1504 157.787 64.457 160.618 64.457Z" fill="white" stroke="#7D9AFF" stroke-width="2" stroke-miterlimit="10"/>
<path d="M149.203 120.19H140.349C139.651 120.19 139.185 119.722 139.185 119.02V100.754C139.185 97.7097 141.747 95.1338 144.776 95.1338C147.805 95.1338 150.367 97.7097 150.367 100.754V119.02C150.6 119.488 149.902 120.19 149.203 120.19Z" fill="#EAEEF9"/>
<path d="M180.655 120.19H171.802C171.103 120.19 170.637 119.722 170.637 119.02V100.754C170.637 97.7097 173.199 95.1338 176.228 95.1338C179.257 95.1338 181.82 97.7097 181.82 100.754V119.02C181.82 119.488 181.354 120.19 180.655 120.19Z" fill="#EAEEF9"/>
<path d="M181.82 100.52V118.786C181.82 119.488 181.354 119.957 180.655 119.957H179.024V104.033C179.257 101.925 178.791 99.8178 177.393 97.9445C176.694 96.7736 175.063 96.0711 174.364 94.9002C174.83 94.666 175.529 94.666 175.995 94.666C177.626 94.666 179.024 95.3685 179.956 96.3052C180.888 97.2419 181.82 98.8812 181.82 100.52Z" fill="#DFE4ED"/>
<path d="M150.601 100.52V118.786C150.601 119.488 150.135 119.957 149.436 119.957H147.805V104.033C148.038 101.925 147.572 99.8178 146.174 97.9445C145.475 96.7736 143.844 96.0711 143.146 94.9002C143.611 94.666 144.31 94.666 144.776 94.666C146.407 94.666 147.805 95.3685 148.737 96.3052C149.669 97.2419 150.601 98.8812 150.601 100.52Z" fill="#DFE4ED"/>
<path d="M166.676 128.387C166.676 131.9 160.385 140.33 160.385 140.33C160.385 140.33 154.095 131.9 154.095 128.387C154.095 124.875 156.89 122.064 160.385 122.064C163.88 122.064 166.676 124.875 166.676 128.387Z" fill="url(#paint3_linear_1334_224140)"/>
<path d="M180.189 125.577C180.189 127.684 176.461 132.368 176.461 132.368C176.461 132.368 172.733 127.45 172.733 125.577C172.733 123.703 174.364 121.83 176.461 121.83C178.558 122.064 180.189 123.703 180.189 125.577Z" fill="url(#paint4_linear_1334_224140)"/>
<path d="M148.271 125.577C148.271 127.684 144.543 132.368 144.543 132.368C144.543 132.368 140.815 127.45 140.815 125.577C140.815 123.703 142.446 121.83 144.543 121.83C146.64 122.064 148.271 123.703 148.271 125.577Z" fill="url(#paint5_linear_1334_224140)"/>
<path d="M161.783 68.4387C161.783 67.9703 161.317 67.502 160.851 67.502C160.385 67.502 159.919 67.9703 159.919 68.4387V114.571H161.783V68.4387Z" fill="#C6CFDE"/>
<path d="M144.542 237.511C144.542 248.986 135.223 258.353 123.807 258.353C117.983 258.353 112.857 256.011 109.13 252.264C105.402 248.518 103.072 243.366 103.072 237.511C103.072 226.037 112.391 216.67 123.807 216.67C127.069 216.67 129.865 217.372 132.66 218.777C139.65 222.056 144.542 229.081 144.542 237.511Z" fill="#D7E0ED"/>
<path d="M138.718 233.296C138.718 244.771 129.399 254.138 117.983 254.138C114.721 254.138 111.925 253.435 109.13 252.264C105.402 248.518 103.072 243.366 103.072 237.511C103.072 226.037 112.391 216.67 123.807 216.67C127.069 216.67 129.865 217.372 132.66 218.777C136.388 222.29 138.718 227.676 138.718 233.296Z" fill="#EAEEF9"/>
<path d="M89.7923 221.588C89.7923 233.062 80.4732 242.429 69.0573 242.429C63.2328 242.429 58.1073 240.087 54.3797 236.341C50.652 232.594 48.3223 227.442 48.3223 221.588C48.3223 210.113 57.6414 200.746 69.0573 200.746C72.3189 200.746 75.1147 201.449 77.9104 202.854C84.8997 206.132 89.7923 213.391 89.7923 221.588Z" fill="#D7E0ED"/>
<path d="M83.9678 217.606C83.9678 229.08 74.6487 238.447 63.2328 238.447C59.9711 238.447 57.1754 237.745 54.3797 236.574C50.652 232.827 48.3223 227.675 48.3223 221.821C48.3223 210.346 57.6414 200.979 69.0573 200.979C72.3189 200.979 75.1147 201.682 77.9104 203.087C81.638 206.6 83.9678 211.751 83.9678 217.606Z" fill="#EAEEF9"/>
<path d="M171.102 236.809C171.102 248.284 161.783 257.651 150.367 257.651C144.542 257.651 139.417 255.309 135.689 251.562C131.962 247.815 129.632 242.664 129.632 236.809C129.632 225.335 138.951 215.968 150.367 215.968C153.629 215.968 156.424 216.67 159.22 218.075C166.209 221.354 171.102 228.613 171.102 236.809Z" fill="#D7E0ED"/>
<path d="M165.277 232.828C165.277 244.302 155.958 253.669 144.542 253.669C141.281 253.669 138.485 252.966 135.689 251.796C131.962 248.049 129.632 242.897 129.632 237.043C129.632 225.568 138.951 216.201 150.367 216.201C153.629 216.201 156.424 216.904 159.22 218.309C162.948 221.821 165.277 226.973 165.277 232.828Z" fill="#EAEEF9"/>
<path d="M189.507 242.43C189.507 250.392 182.984 256.949 175.063 256.949C171.102 256.949 167.374 255.31 164.812 252.734C162.249 250.158 160.618 246.411 160.618 242.43C160.618 234.468 167.142 227.911 175.063 227.911C177.16 227.911 179.256 228.379 181.12 229.316C186.246 231.658 189.507 236.576 189.507 242.43Z" fill="#D7E0ED"/>
<path d="M185.546 239.62C185.546 247.582 179.023 254.139 171.102 254.139C169.005 254.139 166.908 253.67 165.044 252.734C162.481 250.158 160.851 246.411 160.851 242.43C160.851 234.468 167.374 227.911 175.295 227.911C177.392 227.911 179.489 228.379 181.353 229.316C183.915 231.892 185.546 235.639 185.546 239.62Z" fill="#EAEEF9"/>
<path d="M62.7671 243.365C62.7671 251.327 56.2438 257.884 48.3225 257.884C44.3619 257.884 40.6343 256.245 38.0715 253.669C35.5088 251.093 33.8779 247.346 33.8779 243.365C33.8779 235.404 40.4013 228.847 48.3225 228.847C50.4193 228.847 52.5161 229.315 54.3799 230.252C59.5054 232.593 62.7671 237.511 62.7671 243.365Z" fill="#D7E0ED"/>
<path d="M58.8069 240.322C58.8069 248.284 52.2836 254.841 44.3623 254.841C42.2655 254.841 40.1687 254.372 38.3049 253.436C35.7422 250.86 34.1113 247.113 34.1113 243.132C34.1113 235.17 40.6347 228.613 48.5559 228.613C50.6527 228.613 52.7495 229.082 54.6133 230.018C57.1761 232.828 58.8069 236.341 58.8069 240.322Z" fill="#EAEEF9"/>
<path d="M220.26 241.959C220.26 249.921 213.737 256.478 205.816 256.478C201.855 256.478 198.127 254.839 195.565 252.263C193.002 249.687 191.371 245.94 191.371 241.959C191.371 233.997 197.894 227.44 205.816 227.44C207.913 227.44 210.009 227.909 211.873 228.845C216.766 231.187 220.26 236.105 220.26 241.959Z" fill="#D7E0ED"/>
<path d="M216.067 238.917C216.067 246.879 209.543 253.436 201.622 253.436C199.525 253.436 197.429 252.967 195.565 252.03C193.002 249.455 191.371 245.708 191.371 241.727C191.371 233.765 197.894 227.208 205.816 227.208C207.913 227.208 210.009 227.676 211.873 228.613C214.669 231.423 216.067 234.936 216.067 238.917Z" fill="#EAEEF9"/>
<path d="M278.97 240.322C278.97 248.283 272.447 254.84 264.526 254.84C260.565 254.84 256.837 253.201 254.275 250.625C251.712 248.049 250.081 244.302 250.081 240.322C250.081 232.36 256.604 225.803 264.526 225.803C266.622 225.803 268.719 226.271 270.583 227.208C275.476 229.315 278.97 234.467 278.97 240.322Z" fill="#D7E0ED"/>
<path d="M274.777 237.278C274.777 245.24 268.253 251.797 260.332 251.797C258.235 251.797 256.138 251.328 254.275 250.392C251.712 247.816 250.081 244.069 250.081 240.088C250.081 232.126 256.604 225.569 264.526 225.569C266.622 225.569 268.719 226.038 270.583 226.974C273.146 229.784 274.777 233.297 274.777 237.278Z" fill="#D7E0ED"/>
<path d="M252.877 223.461C252.877 231.423 246.354 237.98 238.433 237.98C234.472 237.98 230.745 236.341 228.182 233.765C225.619 231.189 223.988 227.442 223.988 223.461C223.988 215.499 230.512 208.942 238.433 208.942C240.53 208.942 242.626 209.411 244.49 210.347C249.616 212.689 252.877 217.607 252.877 223.461Z" fill="#D7E0ED"/>
<path d="M248.916 220.651C248.916 228.613 242.393 235.17 234.472 235.17C232.375 235.17 230.278 234.702 228.414 233.765C225.852 231.189 224.221 227.442 224.221 223.461C224.221 215.499 230.744 208.942 238.665 208.942C240.762 208.942 242.859 209.411 244.723 210.347C247.285 212.923 248.916 216.67 248.916 220.651Z" fill="#EAEEF9"/>
<path d="M271.749 208.24C271.749 216.201 265.225 222.758 257.304 222.758C253.343 222.758 249.616 221.119 247.053 218.543C244.49 215.967 242.859 212.22 242.859 208.24C242.859 200.278 249.383 193.721 257.304 193.721C259.401 193.721 261.498 194.189 263.361 195.126C268.487 197.468 271.749 202.385 271.749 208.24Z" fill="#D7E0ED"/>
<path d="M267.788 205.196C267.788 213.158 261.265 219.715 253.344 219.715C251.247 219.715 249.15 219.246 247.286 218.31C244.724 215.734 243.093 211.987 243.093 208.006C243.093 200.044 249.616 193.487 257.537 193.487C259.634 193.487 261.731 193.956 263.595 194.892C266.158 197.702 267.788 201.215 267.788 205.196Z" fill="#EAEEF9"/>
<path d="M180.421 236.81C180.421 242.43 175.995 246.879 170.403 246.879C167.607 246.879 165.045 245.708 163.414 243.835C161.55 241.962 160.618 239.62 160.618 236.81C160.618 231.19 165.045 226.74 170.636 226.74C172.267 226.74 173.665 226.974 174.83 227.677C178.091 229.316 180.421 232.829 180.421 236.81Z" fill="#D7E0ED"/>
<path d="M177.626 234.702C177.626 240.322 173.199 244.772 167.607 244.772C165.977 244.772 164.579 244.537 163.414 243.835C161.55 241.962 160.618 239.62 160.618 236.81C160.618 231.19 165.045 226.74 170.636 226.74C172.267 226.74 173.665 226.974 174.83 227.677C176.461 229.55 177.626 232.126 177.626 234.702Z" fill="#EAEEF9"/>
<path d="M286.193 222.993C286.193 228.613 281.766 233.063 276.175 233.063C273.379 233.063 270.816 231.892 269.185 230.019C267.322 228.145 266.39 225.803 266.39 222.993C266.39 217.373 270.816 212.924 276.408 212.924C278.039 212.924 279.436 213.158 280.601 213.861C283.863 215.5 286.193 219.012 286.193 222.993Z" fill="#D7E0ED"/>
<path d="M283.397 221.119C283.397 226.739 278.97 231.189 273.379 231.189C271.748 231.189 270.35 230.954 269.185 230.252C267.322 228.379 266.39 226.037 266.39 223.227C266.39 217.607 270.816 213.157 276.408 213.157C278.038 213.157 279.436 213.391 280.601 214.094C282.232 215.733 283.397 218.309 283.397 221.119Z" fill="#EAEEF9"/>
<path d="M112.392 231.189C112.392 236.809 107.965 241.258 102.374 241.258C99.5782 241.258 97.0154 240.087 95.3846 238.214C93.5208 236.34 92.5889 233.999 92.5889 231.189C92.5889 225.568 97.0154 221.119 102.607 221.119C104.238 221.119 105.636 221.353 106.8 222.056C110.062 223.695 112.392 226.973 112.392 231.189Z" fill="#D7E0ED"/>
<path d="M109.596 229.081C109.596 234.701 105.17 239.151 99.5782 239.151C97.9473 239.151 96.5495 238.916 95.3846 238.214C93.5208 236.34 92.5889 233.999 92.5889 231.189C92.5889 225.568 97.0154 221.119 102.607 221.119C104.238 221.119 105.636 221.353 106.8 222.056C108.431 223.929 109.596 226.271 109.596 229.081Z" fill="#EAEEF9"/>
<path d="M44.1293 244.303C44.1293 249.923 39.7027 254.372 34.1112 254.372C31.3155 254.372 28.7527 253.202 27.1219 251.328C25.2581 249.455 24.3262 247.113 24.3262 244.303C24.0932 238.917 28.5198 234.233 34.1112 234.233C35.7421 234.233 37.1399 234.468 38.3048 235.17C41.7995 236.809 44.1293 240.322 44.1293 244.303Z" fill="#D7E0ED"/>
<path d="M41.3335 242.429C41.3335 248.05 36.907 252.499 31.3155 252.499C29.6847 252.499 28.2868 252.265 27.1219 251.562C25.2581 249.689 24.3262 247.347 24.3262 244.537C24.0932 238.917 28.5198 234.233 34.1112 234.233C35.7421 234.233 37.1399 234.468 38.3048 235.17C40.1686 237.043 41.3335 239.619 41.3335 242.429Z" fill="#EAEEF9"/>
<path d="M50.1869 229.081C50.1869 234.701 45.7603 239.151 40.1688 239.151C37.3731 239.151 34.8104 237.98 33.1795 236.106C31.3157 234.233 30.3838 231.891 30.3838 229.081C30.3838 223.461 34.8104 219.012 40.4018 219.012C42.0327 219.012 43.4305 219.246 44.5954 219.948C47.8571 221.588 50.1869 225.1 50.1869 229.081Z" fill="#D7E0ED"/>
<path d="M47.3911 227.207C47.3911 232.827 42.9646 237.277 37.3731 237.277C35.7423 237.277 34.3444 237.042 33.1795 236.34C31.3157 234.466 30.3838 232.125 30.3838 229.315C30.3838 223.694 34.8104 219.245 40.4018 219.245C42.0327 219.245 43.4305 219.479 44.5954 220.182C46.2263 221.821 47.3911 224.397 47.3911 227.207Z" fill="#EAEEF9"/>
<path d="M86.2982 225.335C86.2982 230.955 81.8716 235.405 76.2802 235.405C73.4844 235.405 70.9217 234.234 69.2908 232.36C67.427 230.487 66.4951 228.145 66.4951 225.335C66.4951 219.715 70.9217 215.266 76.5131 215.266C78.144 215.266 79.5419 215.5 80.7067 216.202C83.9684 217.842 86.2982 221.354 86.2982 225.335Z" fill="#D7E0ED"/>
<path d="M83.5025 223.461C83.5025 229.081 79.0759 233.53 73.4844 233.53C71.8536 233.53 70.4557 233.296 69.2908 232.594C67.427 230.72 66.4951 228.379 66.4951 225.569C66.4951 219.948 70.9217 215.499 76.5131 215.499C78.144 215.499 79.5419 215.733 80.7067 216.436C82.3376 218.075 83.5025 220.651 83.5025 223.461Z" fill="#EAEEF9"/>
<path d="M230.045 207.303C230.045 209.645 228.182 211.518 225.852 211.518C224.687 211.518 223.522 211.05 222.823 210.347C222.124 209.645 221.658 208.474 221.658 207.303C221.658 204.961 223.522 203.088 225.852 203.088C226.551 203.088 227.017 203.322 227.716 203.556C229.113 204.259 230.045 205.664 230.045 207.303Z" fill="#D7E0ED"/>
<path d="M228.881 206.601C228.881 208.942 227.017 210.816 224.687 210.816C223.988 210.816 223.522 210.581 222.823 210.347C222.124 209.645 221.658 208.474 221.658 207.303C221.658 204.961 223.522 203.088 225.852 203.088C226.551 203.088 227.017 203.322 227.716 203.556C228.415 204.259 228.881 205.43 228.881 206.601Z" fill="#EAEEF9"/>
<path d="M290.62 247.347C290.62 249.689 288.756 251.562 286.426 251.562C285.261 251.562 284.096 251.094 283.397 250.391C282.698 249.689 282.232 248.518 282.232 247.347C282.232 245.005 284.096 243.132 286.426 243.132C287.125 243.132 287.591 243.366 288.29 243.6C289.688 244.303 290.62 245.708 290.62 247.347Z" fill="#D7E0ED"/>
<path d="M289.455 246.644C289.455 248.986 287.591 250.86 285.261 250.86C284.562 250.86 284.096 250.625 283.397 250.391C282.698 249.689 282.232 248.518 282.232 247.347C282.232 245.005 284.096 243.132 286.426 243.132C287.125 243.132 287.591 243.366 288.29 243.6C288.989 244.303 289.455 245.474 289.455 246.644Z" fill="#EAEEF9"/>
<path d="M188.342 210.114C188.342 212.455 186.478 214.329 184.149 214.329C182.984 214.329 181.819 213.86 181.12 213.158C180.421 212.455 179.955 211.284 179.955 210.114C179.955 207.772 181.819 205.898 184.149 205.898C184.848 205.898 185.314 206.133 186.013 206.367C187.41 207.069 188.342 208.474 188.342 210.114Z" fill="#D7E0ED"/>
<path d="M187.177 209.411C187.177 211.753 185.314 213.626 182.984 213.626C182.285 213.626 181.819 213.392 181.12 213.158C180.421 212.455 179.955 211.284 179.955 210.114C179.955 207.772 181.819 205.898 184.149 205.898C184.848 205.898 185.314 206.133 186.012 206.367C186.711 207.069 187.177 208.24 187.177 209.411Z" fill="#EAEEF9"/>
<path d="M93.7534 237.512C93.7534 239.854 91.8896 241.727 89.5598 241.727C88.3949 241.727 87.23 241.259 86.5311 240.556C85.8322 239.854 85.3662 238.683 85.3662 237.512C85.3662 235.17 87.23 233.297 89.5598 233.297C90.2587 233.297 90.7247 233.531 91.4236 233.765C92.5885 234.468 93.7534 235.873 93.7534 237.512Z" fill="#D7E0ED"/>
<path d="M92.5885 236.809C92.5885 239.151 90.7247 241.025 88.3949 241.025C87.696 241.025 87.23 240.79 86.5311 240.556C85.8322 239.854 85.3662 238.683 85.3662 237.512C85.3662 235.17 87.23 233.297 89.5598 233.297C90.2587 233.297 90.7247 233.531 91.4236 233.765C92.1226 234.468 92.5885 235.639 92.5885 236.809Z" fill="#EAEEF9"/>
<path d="M107.034 201.682C107.034 204.024 105.17 205.897 102.84 205.897C101.675 205.897 100.51 205.429 99.8114 204.726C99.1124 204.024 98.6465 202.853 98.6465 201.682C98.6465 199.34 100.51 197.467 102.84 197.467C103.539 197.467 104.005 197.701 104.704 197.935C106.102 198.403 107.034 200.043 107.034 201.682Z" fill="#D7E0ED"/>
<path d="M105.869 200.746C105.869 203.088 104.005 204.961 101.675 204.961C100.976 204.961 100.51 204.727 99.8114 204.493C99.1124 203.79 98.6465 202.619 98.6465 201.449C98.6465 199.107 100.51 197.233 102.84 197.233C103.539 197.233 104.005 197.468 104.704 197.702C105.403 198.638 105.869 199.575 105.869 200.746Z" fill="#EAEEF9"/>
<path d="M22.6954 234.468C22.6954 236.81 20.8315 238.683 18.5018 238.683C17.3369 238.683 16.172 238.215 15.4731 237.512C14.5412 236.81 14.0752 235.639 14.0752 234.468C14.0752 232.126 15.939 230.253 18.2688 230.253C18.9677 230.253 19.4337 230.487 20.1326 230.721C21.5305 231.19 22.6954 232.829 22.6954 234.468Z" fill="#D7E0ED"/>
<path d="M21.5305 233.531C21.5305 235.873 19.6667 237.746 17.3369 237.746C16.6379 237.746 16.172 237.512 15.4731 237.278C14.5412 236.81 14.0752 235.639 14.0752 234.468C14.0752 232.126 15.939 230.253 18.2688 230.253C18.9677 230.253 19.4337 230.487 20.1326 230.721C20.8315 231.424 21.5305 232.36 21.5305 233.531Z" fill="#EAEEF9"/>
<path d="M238.433 193.72C238.433 194.891 237.501 195.593 236.569 195.593C236.103 195.593 235.637 195.359 235.171 195.125C234.938 194.891 234.705 194.188 234.705 193.72C234.705 192.549 235.637 191.847 236.569 191.847C236.802 191.847 237.035 191.847 237.501 192.081C237.967 192.315 238.433 193.018 238.433 193.72Z" fill="#D7E0ED"/>
<path d="M237.967 193.252C237.967 194.423 237.035 195.126 236.103 195.126C235.87 195.126 235.637 195.126 235.171 194.892C234.938 194.658 234.705 193.955 234.705 193.487C234.705 192.316 235.637 191.613 236.569 191.613C236.802 191.613 237.035 191.613 237.501 191.847C237.734 192.316 237.967 192.784 237.967 193.252Z" fill="#EAEEF9"/>
<path d="M290.153 203.557C290.153 204.728 289.222 205.43 288.29 205.43C287.824 205.43 287.358 205.196 286.892 204.962C286.659 204.728 286.426 204.025 286.426 203.557C286.426 202.386 287.358 201.684 288.29 201.684C288.523 201.684 288.756 201.684 289.222 201.918C289.687 202.152 290.153 202.854 290.153 203.557Z" fill="#D7E0ED"/>
<path d="M289.687 203.323C289.687 204.494 288.756 205.196 287.824 205.196C287.591 205.196 287.358 205.196 286.892 204.962C286.659 204.728 286.426 204.025 286.426 203.557C286.426 202.386 287.358 201.684 288.29 201.684C288.523 201.684 288.756 201.684 289.222 201.918C289.454 202.152 289.687 202.62 289.687 203.323Z" fill="#EAEEF9"/>
<path d="M71.1544 222.289C71.1544 223.46 70.2225 224.163 69.2906 224.163C68.8246 224.163 68.3587 223.929 67.8927 223.694C67.6597 223.46 67.4268 222.758 67.4268 222.289C67.4268 221.119 68.3587 220.416 69.2906 220.416C69.5236 220.416 69.7565 220.416 70.2225 220.65C70.6884 220.65 71.1544 221.353 71.1544 222.289Z" fill="#D7E0ED"/>
<path d="M70.6884 221.822C70.6884 222.993 69.7565 223.695 68.8246 223.695C68.5916 223.695 68.3587 223.695 67.8927 223.461C67.6597 223.227 67.4268 222.524 67.4268 222.056C67.4268 220.885 68.3587 220.183 69.2906 220.183C69.5236 220.183 69.7565 220.183 70.2225 220.417C70.4555 220.885 70.6884 221.353 70.6884 221.822Z" fill="#EAEEF9"/>
<path d="M249.849 219.949C249.849 221.119 248.917 221.822 247.985 221.822C247.519 221.822 247.053 221.588 246.587 221.354C246.354 221.119 246.121 220.417 246.121 219.949C246.121 218.778 247.053 218.075 247.985 218.075C248.218 218.075 248.451 218.075 248.917 218.309C249.383 218.544 249.849 219.246 249.849 219.949Z" fill="#D7E0ED"/>
<path d="M249.383 219.714C249.383 220.885 248.451 221.588 247.519 221.588C247.286 221.588 247.053 221.588 246.587 221.354C246.354 221.119 246.121 220.417 246.121 219.949C246.121 218.778 247.053 218.075 247.985 218.075C248.218 218.075 248.451 218.075 248.917 218.309C249.15 218.778 249.383 219.246 249.383 219.714Z" fill="#EAEEF9"/>
<path d="M74.1836 192.316C74.1836 193.253 73.4846 193.955 72.5527 193.955C72.0868 193.955 71.6208 193.721 71.3878 193.487C71.1549 193.253 70.9219 192.784 70.9219 192.316C70.9219 191.379 71.6208 190.677 72.5527 190.677C72.7857 190.677 73.0187 190.677 73.2516 190.911C73.7176 191.145 74.1836 191.613 74.1836 192.316Z" fill="#D7E0ED"/>
<path d="M73.7176 192.082C73.7176 193.018 73.0187 193.721 72.0868 193.721C71.8538 193.721 71.6208 193.721 71.3878 193.487C71.1549 193.253 70.9219 192.784 70.9219 192.316C70.9219 191.379 71.6208 190.677 72.5527 190.677C72.7857 190.677 73.0187 190.677 73.2516 190.911C73.4846 191.145 73.7176 191.613 73.7176 192.082Z" fill="#EAEEF9"/>
<path d="M19.4336 213.625C19.4336 214.561 18.7346 215.498 17.8027 215.498C17.3368 215.498 16.8708 215.264 16.6378 215.03C16.4049 214.796 16.1719 214.327 16.1719 213.859C16.1719 212.922 16.8708 212.22 17.8027 212.22C18.0357 212.22 18.2687 212.22 18.5016 212.454C18.9676 212.454 19.4336 213.156 19.4336 213.625Z" fill="#D7E0ED"/>
<path d="M18.9676 213.391C18.9676 214.328 18.2687 215.031 17.3368 215.031C17.1038 215.031 16.8708 215.031 16.6378 214.796C16.4049 214.562 16.1719 214.094 16.1719 213.626C16.1719 212.689 16.8708 211.986 17.8027 211.986C18.0357 211.986 18.2687 211.986 18.5016 212.22C18.7346 212.455 18.9676 212.923 18.9676 213.391Z" fill="#EAEEF9"/>
<path d="M268.254 237.511C268.254 248.986 258.935 258.353 247.519 258.353C241.695 258.353 236.569 256.011 232.842 252.264C229.114 248.518 226.784 243.366 226.784 237.511C226.784 226.037 236.103 216.67 247.519 216.67C250.781 216.67 253.577 217.372 256.372 218.777C263.362 221.822 268.254 229.081 268.254 237.511Z" fill="#D7E0ED"/>
<path d="M262.43 233.296C262.43 244.771 253.111 254.138 241.695 254.138C238.433 254.138 235.637 253.435 232.842 252.264C229.114 248.518 226.784 243.366 226.784 237.511C226.784 226.037 236.103 216.67 247.519 216.67C250.781 216.67 253.577 217.372 256.372 218.777C260.1 222.29 262.43 227.442 262.43 233.296Z" fill="#EAEEF9"/>
<path d="M150.6 228.144C154.074 228.144 156.89 225.314 156.89 221.822C156.89 218.33 154.074 215.499 150.6 215.499C147.126 215.499 144.31 218.33 144.31 221.822C144.31 225.314 147.126 228.144 150.6 228.144Z" fill="#F4F7FC"/>
<path d="M78.1439 221.822C81.618 221.822 84.4343 218.991 84.4343 215.499C84.4343 212.008 81.618 209.177 78.1439 209.177C74.6698 209.177 71.8535 212.008 71.8535 215.499C71.8535 218.991 74.6698 221.822 78.1439 221.822Z" fill="#F4F7FC"/>
<path d="M55.5447 241.025C57.9895 241.025 59.9713 239.033 59.9713 236.575C59.9713 234.118 57.9895 232.126 55.5447 232.126C53.1 232.126 51.1182 234.118 51.1182 236.575C51.1182 239.033 53.1 241.025 55.5447 241.025Z" fill="#F4F7FC"/>
<path d="M65.5632 225.803C66.8499 225.803 67.8929 224.754 67.8929 223.461C67.8929 222.168 66.8499 221.119 65.5632 221.119C64.2765 221.119 63.2334 222.168 63.2334 223.461C63.2334 224.754 64.2765 225.803 65.5632 225.803Z" fill="url(#paint6_linear_1334_224140)"/>
<path d="M162.482 206.835C163.64 206.835 164.578 205.892 164.578 204.728C164.578 203.564 163.64 202.62 162.482 202.62C161.324 202.62 160.385 203.564 160.385 204.728C160.385 205.892 161.324 206.835 162.482 206.835Z" fill="url(#paint7_linear_1334_224140)"/>
<path d="M302.269 213.626C303.427 213.626 304.365 212.683 304.365 211.519C304.365 210.355 303.427 209.411 302.269 209.411C301.111 209.411 300.172 210.355 300.172 211.519C300.172 212.683 301.111 213.626 302.269 213.626Z" fill="url(#paint8_linear_1334_224140)"/>
<path d="M245.422 237.746C246.323 237.746 247.053 237.012 247.053 236.107C247.053 235.202 246.323 234.468 245.422 234.468C244.521 234.468 243.791 235.202 243.791 236.107C243.791 237.012 244.521 237.746 245.422 237.746Z" fill="url(#paint9_linear_1334_224140)"/>
<defs>
<linearGradient id="paint0_linear_1334_224140" x1="32.5412" y1="203.312" x2="35.48" y2="203.312" gradientUnits="userSpaceOnUse">
<stop stop-color="#FF66A9"/>
<stop offset="1" stop-color="#F53689"/>
</linearGradient>
<linearGradient id="paint1_linear_1334_224140" x1="290.85" y1="188.167" x2="287.783" y2="186.177" gradientUnits="userSpaceOnUse">
<stop stop-color="#83A6FF"/>
<stop offset="1" stop-color="#5A78FF"/>
</linearGradient>
<linearGradient id="paint2_linear_1334_224140" x1="58.2399" y1="122.088" x2="256.506" y2="122.088" gradientUnits="userSpaceOnUse">
<stop stop-color="#6F88FF"/>
<stop offset="1" stop-color="#6E88FF" stop-opacity="0"/>
</linearGradient>
<linearGradient id="paint3_linear_1334_224140" x1="154.215" y1="131.057" x2="166.751" y2="131.057" gradientUnits="userSpaceOnUse">
<stop stop-color="#FF66A9"/>
<stop offset="1" stop-color="#F53689"/>
</linearGradient>
<linearGradient id="paint4_linear_1334_224140" x1="172.967" y1="127.229" x2="180.218" y2="127.229" gradientUnits="userSpaceOnUse">
<stop stop-color="#FF66A9"/>
<stop offset="1" stop-color="#F53689"/>
</linearGradient>
<linearGradient id="paint5_linear_1334_224140" x1="141.029" y1="127.229" x2="148.279" y2="127.229" gradientUnits="userSpaceOnUse">
<stop stop-color="#FF66A9"/>
<stop offset="1" stop-color="#F53689"/>
</linearGradient>
<linearGradient id="paint6_linear_1334_224140" x1="63.1027" y1="223.396" x2="67.9428" y2="223.396" gradientUnits="userSpaceOnUse">
<stop stop-color="#83A6FF"/>
<stop offset="1" stop-color="#5A78FF"/>
</linearGradient>
<linearGradient id="paint7_linear_1334_224140" x1="160.472" y1="204.656" x2="164.688" y2="204.656" gradientUnits="userSpaceOnUse">
<stop stop-color="#FF66A9"/>
<stop offset="1" stop-color="#F53689"/>
</linearGradient>
<linearGradient id="paint8_linear_1334_224140" x1="300.064" y1="211.584" x2="304.28" y2="211.584" gradientUnits="userSpaceOnUse">
<stop stop-color="#FF66A9"/>
<stop offset="1" stop-color="#F53689"/>
</linearGradient>
<linearGradient id="paint9_linear_1334_224140" x1="243.858" y1="236.021" x2="246.936" y2="236.021" gradientUnits="userSpaceOnUse">
<stop stop-color="#83A6FF"/>
<stop offset="1" stop-color="#5A78FF"/>
</linearGradient>
</defs>
</svg>
