<svg width="48" height="48" viewBox="0 0 48 48" fill="none" xmlns="http://www.w3.org/2000/svg">
<rect width="48" height="48" rx="24" fill="#FFFAC6"/>
<path d="M24 26.75C23.59 26.75 23.25 26.41 23.25 26V21C23.25 20.59 23.59 20.25 24 20.25C24.41 20.25 24.75 20.59 24.75 21V26C24.75 26.41 24.41 26.75 24 26.75Z" fill="#F98723"/>
<path d="M24 29.9986C23.94 29.9986 23.87 29.9886 23.8 29.9786C23.74 29.9686 23.68 29.9486 23.62 29.9186C23.56 29.8986 23.5 29.8686 23.44 29.8286C23.39 29.7886 23.34 29.7486 23.29 29.7086C23.11 29.5186 23 29.2586 23 28.9986C23 28.7386 23.11 28.4786 23.29 28.2886C23.34 28.2486 23.39 28.2086 23.44 28.1686C23.5 28.1286 23.56 28.0986 23.62 28.0786C23.68 28.0486 23.74 28.0286 23.8 28.0186C23.93 27.9886 24.07 27.9886 24.19 28.0186C24.26 28.0286 24.32 28.0486 24.38 28.0786C24.44 28.0986 24.5 28.1286 24.56 28.1686C24.61 28.2086 24.66 28.2486 24.71 28.2886C24.89 28.4786 25 28.7386 25 28.9986C25 29.2586 24.89 29.5186 24.71 29.7086C24.66 29.7486 24.61 29.7886 24.56 29.8286C24.5 29.8686 24.44 29.8986 24.38 29.9186C24.32 29.9486 24.26 29.9686 24.19 29.9786C24.13 29.9886 24.06 29.9986 24 29.9986Z" fill="#F98723"/>
<path d="M30.06 34.1598H17.94C15.99 34.1598 14.5 33.4498 13.74 32.1698C12.99 30.8898 13.09 29.2398 14.04 27.5298L20.1 16.6298C21.1 14.8298 22.48 13.8398 24 13.8398C25.52 13.8398 26.9 14.8298 27.9 16.6298L33.96 27.5398C34.91 29.2498 35.02 30.8898 34.26 32.1798C33.5 33.4498 32.01 34.1598 30.06 34.1598ZM24 15.3398C23.06 15.3398 22.14 16.0598 21.41 17.3598L15.36 28.2698C14.68 29.4898 14.57 30.6098 15.04 31.4198C15.51 32.2298 16.55 32.6698 17.95 32.6698H30.07C31.47 32.6698 32.5 32.2298 32.98 31.4198C33.46 30.6098 33.34 29.4998 32.66 28.2698L26.59 17.3598C25.86 16.0598 24.94 15.3398 24 15.3398Z" fill="#F98723"/>
</svg>
